<svg width="7" height="4" viewBox="0 0 7 4" fill="none" xmlns="http://www.w3.org/2000/svg">
<path d="M3.50205 4.00205C3.43624 4.00243 3.37101 3.98981 3.31009 3.96493C3.24917 3.94005 3.19377 3.90339 3.14705 3.85705L0.147046 0.857046C0.0528938 0.762894 0 0.635196 0 0.502046C0 0.368895 0.0528938 0.241197 0.147046 0.147046C0.241197 0.0528938 0.368895 0 0.502046 0C0.635196 0 0.762894 0.0528938 0.857046 0.147046L3.50205 2.79705L6.14705 0.147046C6.2412 0.0528938 6.36889 0 6.50205 0C6.6352 0 6.76289 0.0528938 6.85705 0.147046C6.9512 0.241197 7.00409 0.368895 7.00409 0.502046C7.00409 0.635196 6.9512 0.762894 6.85705 0.857046L3.85705 3.85705C3.81033 3.90339 3.75492 3.94005 3.694 3.96493C3.63308 3.98981 3.56785 4.00243 3.50205 4.00205Z" fill="#008184"/>
</svg>
