<svg width="64" height="64" viewBox="0 0 64 64" fill="none" xmlns="http://www.w3.org/2000/svg">
<path d="M31.8215 56.3391C19.4221 56.3391 6.04504 48.5617 6.04504 31.496C6.04504 14.4303 19.4221 6.65302 31.8215 6.65302C38.71 6.65302 45.0652 8.91955 49.7761 13.0526C54.8869 17.5857 57.5979 23.9854 57.5979 31.496C57.5979 39.0067 54.8869 45.3619 49.7761 49.895C45.0652 54.0281 38.6655 56.3391 31.8215 56.3391Z" fill="url(#paint0_radial_3041_19029)"/>
<path d="M53.1072 16.7383C55.4759 20.5603 56.7114 25.1111 56.7114 30.173C56.7114 37.6837 54.0005 44.0389 48.8896 48.572C44.1788 52.7051 37.7791 55.0161 30.935 55.0161C22.9088 55.0161 14.4915 51.7496 9.52283 44.8211C14.3048 52.6695 23.2999 56.3493 31.8239 56.3493C38.6679 56.3493 45.0676 54.0383 49.7785 49.9052C54.8893 45.3722 57.6003 39.017 57.6003 31.5063C57.6003 25.8444 56.0581 20.8136 53.1072 16.7383Z" fill="#EB8F00"/>
<path d="M31.8233 56.3462C19.4239 56.3462 6.04688 48.5688 6.04688 31.5031C6.04688 14.4375 19.4239 6.66013 31.8233 6.66013C38.7118 6.66013 45.067 8.92666 49.7779 13.0598C54.8887 17.5928 57.5997 23.9925 57.5997 31.5031C57.5997 39.0138 54.8887 45.369 49.7779 49.9021C45.067 54.0352 38.6674 56.3462 31.8233 56.3462Z" fill="url(#paint1_linear_3041_19029)"/>
<path d="M23.1108 25.7422C21.2487 25.7422 19.5554 27.3154 19.5554 29.9286C19.5554 32.5418 21.2487 34.1106 23.1108 34.1106C24.9774 34.1106 26.6662 32.5374 26.6662 29.9286C26.6662 27.3199 24.9951 25.7422 23.1108 25.7422Z" fill="#422B0D"/>
<path d="M22.9552 27.4917C22.3241 27.1895 21.5642 27.4562 21.2575 28.0873C21.022 28.5806 21.1286 29.1716 21.5242 29.5538C22.1553 29.856 22.9152 29.5894 23.2219 28.9583C23.4574 28.465 23.3508 27.8739 22.9552 27.4917Z" fill="#896024"/>
<path d="M40.1785 25.7422C38.3164 25.7422 36.6232 27.3154 36.6232 29.9286C36.6232 32.5418 38.3164 34.1106 40.1785 34.1106C42.0407 34.1106 43.7339 32.5374 43.7339 29.9286C43.7339 27.3199 42.0407 25.7422 40.1785 25.7422Z" fill="#422B0D"/>
<path d="M40.0006 27.4917C39.3695 27.1895 38.6096 27.4562 38.3029 28.0873C38.0674 28.5806 38.1741 29.1716 38.5696 29.5538C39.2007 29.856 39.9606 29.5894 40.2673 28.9583C40.5028 28.465 40.3962 27.8739 40.0006 27.4917Z" fill="#896024"/>
<path d="M26.9784 49.3305C25.4896 49.3305 24.1118 48.5572 23.3341 47.2862C22.5875 46.0551 22.6541 44.4908 23.5119 43.3308C25.4229 40.6643 28.3561 39.2422 32.0003 39.2422C35.6446 39.2422 38.5777 40.6643 40.4888 43.3308C41.3465 44.4908 41.4132 46.0551 40.6665 47.2862C39.8888 48.5572 38.5111 49.3305 37.0223 49.3305C36.5556 49.3261 36.089 49.2505 35.6446 49.1083C33.2758 48.3394 30.7248 48.3394 28.3561 49.1083C27.9116 49.2461 27.445 49.3216 26.9784 49.3305Z" fill="#422B0D"/>
<path d="M40.6224 17.4719H40.5779C40.1291 17.5075 39.7335 17.1741 39.6935 16.7253C39.658 16.2764 39.9913 15.8809 40.4401 15.8409C41.2979 15.712 42.1734 15.7209 43.0311 15.8631C45.3554 16.2186 47.4576 17.4452 48.9064 19.2985C49.5685 20.1873 48.3997 21.0317 47.6664 20.3651C45.711 18.6363 43.2311 17.6186 40.6224 17.4719Z" fill="#422B0D"/>
<path d="M23.4906 17.4753H23.5572C24.0105 17.4842 24.3794 17.1242 24.3883 16.6709C24.3972 16.262 24.095 15.9065 23.6905 15.8487C22.8328 15.7198 21.9573 15.7287 21.0996 15.8709C18.7708 16.222 16.6687 17.453 15.2199 19.3063C14.5621 20.1951 15.731 21.0395 16.4598 20.3729C18.4153 18.6485 20.8907 17.6264 23.4906 17.4753Z" fill="#422B0D"/>
<defs>
<radialGradient id="paint0_radial_3041_19029" cx="0" cy="0" r="1" gradientUnits="userSpaceOnUse" gradientTransform="translate(31.8215 31.496) scale(25.3141 25.314)">
<stop offset="0.5" stop-color="#FDE030"/>
<stop offset="0.92" stop-color="#F7C02B"/>
<stop offset="1" stop-color="#F4A223"/>
</radialGradient>
<linearGradient id="paint1_linear_3041_19029" x1="31.8233" y1="56.3462" x2="31.8233" y2="6.66013" gradientUnits="userSpaceOnUse">
<stop offset="0.39" stop-color="#40C0E7" stop-opacity="0"/>
<stop offset="1" stop-color="#5F7AFF"/>
</linearGradient>
</defs>
</svg>
