<svg width="64" height="64" viewBox="0 0 64 64" fill="none" xmlns="http://www.w3.org/2000/svg">
<path d="M31.8204 56.3462C19.421 56.3462 6.04395 48.5689 6.04395 31.5032C6.04395 14.4375 19.421 6.66016 31.8204 6.66016C38.7089 6.66016 45.0641 8.92669 49.775 13.0598C54.8858 17.5929 57.5968 23.9925 57.5968 31.5032C57.5968 39.0139 54.8858 45.369 49.775 49.9021C45.0641 54.0352 38.6644 56.3462 31.8204 56.3462Z" fill="url(#paint0_radial_3041_20951)"/>
<path d="M53.1029 16.7383C55.4717 20.5603 56.7072 25.1111 56.7072 30.1731C56.7072 37.6837 53.9962 44.0389 48.8853 48.572C44.1745 52.7051 37.7748 55.0161 30.9307 55.0161C22.9045 55.0161 14.4872 51.7496 9.51855 44.8211C14.3005 52.6696 23.2956 56.3493 31.8196 56.3493C38.6637 56.3493 45.0633 54.0384 49.7742 49.9053C54.885 45.3722 57.596 39.017 57.596 31.5063C57.596 25.8444 56.0539 20.8136 53.1029 16.7383Z" fill="#EB8F00"/>
<path d="M31.9996 48.4358C28.2043 48.4358 25.4978 45.6404 24.68 44.0894C24.3689 43.565 24.3111 42.925 24.5156 42.3517C24.64 42.0095 24.9689 41.7784 25.3333 41.7695C25.4578 41.774 25.5777 41.7962 25.6933 41.8406C27.6043 42.5917 29.2798 43.6805 32.0218 43.6805C34.7639 43.6805 36.4661 42.5917 38.3504 41.8406C38.466 41.7962 38.5859 41.7695 38.7104 41.7695C39.0704 41.7873 39.3815 42.014 39.5059 42.3517C39.7103 42.925 39.6526 43.565 39.3415 44.0894C38.5015 45.6404 35.795 48.4358 31.9996 48.4358Z" fill="#422B0D"/>
<path d="M25.5608 27.7159L25.472 27.8048C25.4009 27.8848 25.3253 27.9603 25.2453 28.027L24.9387 28.2803C24.8098 28.3781 24.6631 28.4847 24.4942 28.5914C24.3254 28.6981 24.152 28.8003 23.9609 28.898C23.7654 28.9958 23.561 29.0803 23.3521 29.1514C23.1343 29.218 22.9121 29.2714 22.6854 29.3158C22.4543 29.3513 22.2232 29.3691 21.9877 29.3691H21.7788C21.6633 29.3691 21.6411 29.3691 21.5966 29.3691L21.2855 29.3291C21.0589 29.2847 20.8367 29.2314 20.6189 29.1647C20.4056 29.0847 20.2011 28.9914 20.0011 28.8847C19.81 28.7869 19.6323 28.6803 19.4678 28.5781C19.2056 28.4047 18.9612 28.2092 18.7301 27.9959L18.4501 27.7381L18.339 27.627C17.7701 27.107 16.9124 27.0759 16.308 27.5515C15.868 27.8892 15.7214 28.4936 15.9614 28.9958L16.028 29.1291C16.0858 29.258 16.1525 29.3825 16.2236 29.5025C16.6813 30.2669 17.3035 30.9201 18.0412 31.4223C18.3923 31.6668 18.7657 31.8756 19.1567 32.0445C19.5878 32.2356 20.0323 32.3823 20.49 32.4889C20.7344 32.5334 20.9611 32.5778 21.2589 32.6045C21.3966 32.6045 21.5566 32.6312 21.6277 32.6312H21.9744C22.4721 32.6223 22.9654 32.5734 23.4543 32.4756C23.912 32.369 24.3565 32.2223 24.7876 32.0312C25.1786 31.8623 25.552 31.6534 25.9031 31.409C26.4541 31.0357 26.943 30.5735 27.3474 30.0446L27.5607 29.7469L27.7385 29.4669C27.8052 29.3602 27.8629 29.2447 27.9118 29.1247L27.9607 29.0136C28.2274 28.3781 27.9252 27.6448 27.2896 27.3781C27.2452 27.3604 27.2008 27.3426 27.1563 27.3337C26.5963 27.1559 25.9786 27.3026 25.5608 27.7159Z" fill="#422B0D"/>
<path d="M45.5599 27.7159L45.471 27.8048C45.3999 27.8848 45.3243 27.9603 45.2443 28.027L44.9377 28.2803C44.8088 28.3781 44.6621 28.4847 44.4933 28.5914C44.3244 28.6981 44.1511 28.8003 43.96 28.898C43.7644 28.9958 43.56 29.0803 43.3511 29.1514C43.1333 29.218 42.9111 29.2714 42.6845 29.3158C42.4534 29.3513 42.2223 29.3691 41.9867 29.3691H41.7778C41.6623 29.3691 41.6401 29.3691 41.5956 29.3691L41.2845 29.3291C41.0579 29.2847 40.8357 29.2314 40.6179 29.1647C40.4046 29.0847 40.2002 28.9914 40.0002 28.8847C39.8091 28.7869 39.6313 28.6803 39.4669 28.5781C39.2047 28.4047 38.9602 28.2092 38.7291 27.9959L38.4491 27.7381L38.338 27.627C37.7692 27.107 36.9114 27.0759 36.307 27.5515C35.8671 27.8892 35.7204 28.4936 35.9604 28.9958L36.027 29.1291C36.0848 29.258 36.1515 29.3825 36.2226 29.5025C36.6803 30.2669 37.3025 30.9201 38.0403 31.4223C38.3914 31.6668 38.7647 31.8756 39.1558 32.0445C39.5913 32.2356 40.0446 32.3867 40.5112 32.4889C40.7557 32.5334 40.9823 32.5778 41.2801 32.6045C41.4179 32.6045 41.5779 32.6312 41.649 32.6312H41.9956C42.4934 32.6223 42.9867 32.5734 43.4755 32.4756C43.9422 32.3734 44.3955 32.2223 44.831 32.0312C45.2221 31.8623 45.5954 31.6534 45.9465 31.409C46.4976 31.0357 46.9865 30.5735 47.3909 30.0446L47.6042 29.7469L47.782 29.4669C47.8486 29.3602 47.9064 29.2447 47.9553 29.1247L48.0042 29.0136C48.2708 28.3781 47.9686 27.6448 47.3331 27.3781C47.2887 27.3604 47.2442 27.3426 47.1998 27.3337C46.6265 27.1337 45.9865 27.2848 45.5599 27.7159Z" fill="#422B0D"/>
<path d="M16.1854 22.7844C15.8743 23.1088 15.3543 23.1221 15.0299 22.8066C14.7365 22.5266 14.6965 22.0689 14.9321 21.74C15.4298 21.0289 16.0387 20.4023 16.7409 19.8868C18.603 18.4513 20.9362 17.7713 23.2783 17.9891C24.3805 18.1269 24.1672 19.5357 23.185 19.629C20.554 19.8379 18.083 20.9534 16.1854 22.7844Z" fill="#422B0D"/>
<path d="M47.3253 22.7844C47.6364 23.1088 48.1564 23.1221 48.4808 22.8066C48.7741 22.5266 48.8141 22.0689 48.5785 21.74C48.0808 21.0289 47.4719 20.4023 46.7698 19.8868C44.9076 18.4513 42.5744 17.7713 40.2323 17.9891C39.1302 18.1269 39.3435 19.5357 40.3257 19.629C42.9566 19.8379 45.4276 20.9534 47.3253 22.7844Z" fill="#422B0D"/>
<defs>
<radialGradient id="paint0_radial_3041_20951" cx="0" cy="0" r="1" gradientUnits="userSpaceOnUse" gradientTransform="translate(31.8204 31.5032) scale(25.3141 25.314)">
<stop offset="0.5" stop-color="#FDE030"/>
<stop offset="0.92" stop-color="#F7C02B"/>
<stop offset="1" stop-color="#F4A223"/>
</radialGradient>
</defs>
</svg>
