<svg xmlns="http://www.w3.org/2000/svg" width="16" height="16" viewBox="0 0 16 16" fill="none">
  <path d="M8.64055 13.4164C8.64055 13.4164 7.89726 13.9308 7.82726 14.0208C7.75726 14.1097 7.72727 14.2142 7.86281 14.2553C7.99836 14.2964 8.21391 14.2397 8.21391 14.2397C8.21391 14.2397 8.10613 14.3997 8.35945 14.4586C8.52945 14.4975 8.85943 14.3253 8.85943 14.3253C8.85943 14.3253 8.80499 14.4775 9.03164 14.5086C9.35829 14.5541 9.92271 13.8531 10.0383 13.6342C10.1538 13.4153 10.1005 13.2275 10.1005 13.2275L8.64055 13.4164Z" fill="#ADADB7"/>
  <path d="M6.68512 12.9541C6.68512 12.9541 5.77295 13.5007 5.69962 13.5318C5.62629 13.563 5.34186 13.7218 5.44963 13.8963C5.53296 14.0318 5.85628 13.9274 5.85628 13.9274C5.85628 13.9274 5.78628 14.0796 5.97071 14.1674C6.15626 14.2551 6.54402 14.0418 6.54402 14.0418C6.54402 14.0418 6.50069 14.2318 6.7529 14.2607C7.07621 14.2985 7.79617 13.3119 7.79617 13.3119L6.68512 12.9541Z" fill="#ADADB7"/>
  <path d="M10.3296 5.15246C10.3296 5.15246 10.4551 3.197 9.50072 2.29039C8.54633 1.38377 7.37306 1.48709 7.01308 1.58153C6.6531 1.67486 6.02646 1.90152 5.58426 2.54037C4.99985 3.38477 5.23984 4.17695 4.96874 4.68804C4.75542 5.09135 4.16545 6.24684 4.07212 7.07569C3.97879 7.90453 3.91546 9.47445 3.96213 10.0322C4.00768 10.5777 4.0299 11.0588 4.32211 11.5021C4.49654 11.7677 4.8443 11.7732 4.96319 11.6277C5.03318 11.5421 5.00985 11.4166 5.00985 11.4166C5.00985 11.4166 5.48538 12.1254 5.67759 12.3632C5.99091 12.7487 6.64087 13.3698 7.70082 13.552C9.09852 13.792 11.3917 13.052 11.3917 13.052C11.3917 13.052 11.5884 13.1854 11.9006 13.2009C12.0595 13.2087 12.245 13.052 12.2217 12.8954C12.1984 12.7387 12.0184 12.5198 11.9795 12.4343C11.9406 12.3487 12.0606 9.95554 11.6851 8.32896C11.3095 6.70237 10.6107 5.37133 10.3296 5.15246Z" fill="#4D4D4D"/>
  <path d="M5.30862 5.15195C5.30862 5.15195 4.63088 5.85635 4.56866 6.82519C4.51644 7.63959 4.51088 9.12396 4.98086 10.4539C5.45083 11.7838 6.3419 12.8838 7.63961 13.1437C9.04398 13.426 10.6006 12.9304 10.6483 12.9149C10.695 12.8993 10.3672 12.5504 10.1373 12.206C9.96282 11.9438 9.73616 11.3616 9.73616 11.3616C9.73616 11.3616 9.75172 11.8105 9.46284 11.846C9.24285 11.8738 8.93065 11.6583 8.69622 11.1416C8.46178 10.625 8.14291 9.22284 8.05514 8.06846C7.97737 7.03629 8.08292 6.37188 8.18847 6.0819C8.2518 5.90746 8.37957 5.78858 8.37957 5.78858C8.37957 5.78858 8.7351 6.22078 9.29841 6.07412C9.8406 5.93302 9.97615 5.3386 9.88282 4.85418C9.7706 4.27533 9.53839 3.6498 8.75177 3.82202C7.85848 4.01756 8.16958 5.17083 8.16958 5.17083C8.16958 5.17083 7.53183 5.69081 6.64077 5.59748C5.74637 5.50415 5.30862 5.15195 5.30862 5.15195Z" fill="url(#paint0_linear_2523_6115)"/>
  <path d="M6.12193 2.90538C6.12193 2.90538 6.01416 2.50318 5.74084 2.45207C5.2142 2.35318 4.48424 2.69761 4.18759 2.87982C3.9476 3.02759 3.61873 3.34869 3.71873 3.50534C3.81872 3.662 4.3598 3.5109 4.82422 3.58867C5.14532 3.64312 5.59085 3.77644 5.77862 3.77089C5.92861 3.76644 6.12304 3.50979 6.1486 3.3898C6.17415 3.2698 6.17415 3.05648 6.12193 2.90538Z" fill="#ADADB7"/>
  <path d="M6.14741 2.94629C6.14741 2.94629 5.7041 3.13961 4.77082 3.20183C4.37529 3.2285 3.70754 3.42071 3.70754 3.42071C3.70754 3.42071 3.63977 3.48848 3.74976 3.54626C3.85976 3.60403 4.41751 3.44515 4.76082 3.42626C5.31857 3.39515 6.34074 3.32182 6.34074 3.32182L6.14741 2.94629Z" fill="#4D4D4D"/>
  <path d="M7.97281 3.33275C7.98281 3.57162 7.7506 3.77606 7.54172 3.74161C7.2784 3.69717 7.14952 3.44607 7.17729 3.1972C7.20507 2.94832 7.43172 2.81722 7.64171 2.84055C7.85281 2.86277 7.96281 3.08276 7.97281 3.33275Z" fill="#000409"/>
  <defs>
    <linearGradient id="paint0_linear_2523_6115" x1="7.06208" y1="12.638" x2="8.60614" y2="4.69449" gradientUnits="userSpaceOnUse">
      <stop offset="0.3618" stop-color="white"/>
      <stop offset="0.4122" stop-color="#FFFAEF"/>
      <stop offset="0.5102" stop-color="#FFEDC7"/>
      <stop offset="0.6459" stop-color="#FFD985"/>
      <stop offset="0.7882" stop-color="#FFC139"/>
      <stop offset="0.8168" stop-color="#FFB92E"/>
      <stop offset="0.9438" stop-color="#FF9700"/>
    </linearGradient>
  </defs>
</svg>