<svg xmlns="http://www.w3.org/2000/svg" width="4" height="7" viewBox="0 0 4 7" fill="none">
<path d="M0.502899 7.00205C0.437096 7.00243 0.371865 6.98981 0.310946 6.96493C0.250027 6.94005 0.194619 6.90339 0.147899 6.85705C0.101035 6.81056 0.0638379 6.75526 0.0384536 6.69433C0.0130692 6.6334 0 6.56805 0 6.50205C0 6.43604 0.0130692 6.37069 0.0384536 6.30976C0.0638379 6.24883 0.101035 6.19353 0.147899 6.14705L2.7979 3.50205L0.147899 0.857046C0.0537473 0.762894 0.000853539 0.635196 0.000853539 0.502046C0.000853539 0.368895 0.0537473 0.241197 0.147899 0.147046C0.242051 0.0528938 0.369748 0 0.502899 0C0.63605 0 0.763747 0.0528938 0.857899 0.147046L3.8579 3.14705C3.90476 3.19353 3.94196 3.24883 3.96735 3.30976C3.99273 3.37069 4.0058 3.43604 4.0058 3.50205C4.0058 3.56805 3.99273 3.6334 3.96735 3.69433C3.94196 3.75526 3.90476 3.81056 3.8579 3.85705L0.857899 6.85705C0.811179 6.90339 0.755771 6.94005 0.694852 6.96493C0.633934 6.98981 0.568702 7.00243 0.502899 7.00205Z" fill="#2C353A"/>
</svg>