<svg width="16" height="16" viewBox="0 0 16 16" fill="none" xmlns="http://www.w3.org/2000/svg">
<path d="M13.5517 11.8556C13.2561 11.3022 12.6993 11.1677 12.0904 11.2933C12.0792 11.2955 12.0659 11.2989 12.0526 11.3033C12.227 10.9888 12.3615 10.681 12.3826 10.1131C12.4326 8.7152 11.8559 8.02844 11.258 7.5206C10.019 6.46825 6.43743 6.81496 6.38187 6.81718C5.92181 6.83607 5.28062 7.11722 4.9328 7.42392C4.16604 8.09178 3.57485 9.03301 3.53151 10.0709C3.50818 10.4465 3.57374 10.8921 3.75265 11.2522C3.27148 11.1922 2.76253 11.3577 2.44471 11.9245C2.1869 12.3834 2.26024 12.9457 2.54028 13.4636C2.91921 14.1659 3.78043 14.8293 4.63276 14.6326C5.49731 14.4337 6.24741 13.5769 7.01084 13.1246C7.06529 13.0924 7.12974 13.0813 7.19308 13.088C7.6687 13.1424 8.33767 13.1424 8.75772 13.0969C8.84551 13.088 8.93219 13.1169 8.99442 13.178C9.07332 13.2558 9.15222 13.3291 9.18111 13.3558C9.66006 13.7969 10.2079 14.2737 10.8169 14.517C11.8481 14.9282 12.8716 14.4681 13.4261 13.4836C13.7172 12.9657 13.845 12.4034 13.5517 11.8556Z" fill="#A65F3E"/>
<path d="M5.99441 9.93942C5.92775 9.57832 5.88108 9.12168 6.10774 8.79836L5.94219 8.47949C5.52221 8.90503 5.5911 9.57388 5.66998 9.9983C5.67998 10.055 5.84331 10.8905 5.75331 11.2193C5.64998 11.5971 5.31445 11.9004 4.93224 11.9782C4.72559 11.6482 4.4156 11.4116 4.0734 11.2738C3.74009 11.1394 3.26122 11.176 2.98901 11.3749C3.28233 11.2938 3.62454 11.3127 3.91119 11.4493C4.31006 11.6382 4.55671 11.8971 4.78225 12.4471C4.85669 12.6282 4.91558 12.917 5.08779 12.867C5.18668 12.8393 5.26445 12.7393 5.22667 12.5804C5.18668 12.4126 5.12668 12.2982 5.12668 12.2982C5.12668 12.2982 5.73554 12.1937 6.07218 11.306C6.2444 10.8505 6.00552 9.99497 5.99441 9.93942Z" fill="#703B26"/>
<path opacity="0.7" d="M2.68939 12.7287C2.69272 12.5254 2.84604 12.2298 3.03714 12.1587C3.49268 11.9865 3.98821 12.1943 4.26264 12.8176C4.48929 13.3331 4.51151 13.8742 4.41485 14.0197C4.27152 14.2342 4.06265 14.1997 3.91821 14.1742C3.65489 14.1275 3.42601 13.9686 3.21936 13.7975C3.00937 13.6231 2.6805 13.2698 2.68939 12.7287Z" fill="#F29657"/>
<path d="M10.3191 12.5748C10.2702 12.5748 10.2202 12.5704 10.1702 12.5615C9.72027 12.4782 9.45251 12.0304 9.42029 11.6304C9.38807 11.226 9.54362 10.8427 9.69916 10.5216C9.72694 10.4638 10.0158 9.93384 10.0936 9.57386C10.2102 9.03056 10.1125 8.53503 10.078 8.31393C10.0436 8.09172 10.2125 8.12949 10.2858 8.28837C10.4658 8.67835 10.498 9.22388 10.4169 9.64052C10.3425 10.0216 10.0236 10.6083 9.99581 10.666C9.85916 10.9482 9.7225 11.2793 9.74805 11.6049C9.76916 11.8726 9.94471 12.1848 10.2291 12.2371C10.5369 12.2937 10.7836 12.1826 11.0435 11.9448L11.3235 12.0515C11.118 12.2404 10.7502 12.5748 10.3191 12.5748Z" fill="#703B26"/>
<path d="M11.05 12.8401C11.0178 12.9001 10.9722 12.9468 10.9067 12.9456C10.8056 12.9445 10.7411 12.8256 10.74 12.7234C10.7356 11.919 11.6166 11.1846 12.4277 11.2502C11.7933 11.3857 11.3244 11.9035 11.0978 12.7223C11.0867 12.7612 11.07 12.8023 11.05 12.8401Z" fill="#703B26"/>
<path opacity="0.7" d="M13.308 12.7199C13.3014 12.5165 13.1436 12.2243 12.9525 12.1543C12.4947 11.9888 12.0014 12.2032 11.737 12.831C11.5181 13.3498 11.5426 13.8265 11.5726 13.9276C11.6659 14.2398 11.9581 14.2098 12.1014 14.182C12.3636 14.1309 12.5903 13.9687 12.7947 13.7954C13.0025 13.6198 13.3247 13.2621 13.308 12.7199Z" fill="#F29657"/>
<path d="M6.89165 9.81428L6.64722 9.54874C7.0472 9.16765 7.59272 8.64323 7.68716 8.16992L8.01048 8.23436C7.90493 8.76545 7.45273 9.40652 7.0472 9.81761C7.00386 9.86206 6.93276 9.85983 6.89165 9.81428Z" fill="#703B26"/>
<path d="M8.82149 8.12738C9.49368 7.98073 9.98476 7.56852 10.0159 7.05411L6.35829 6.83301C6.33496 7.22521 6.58383 7.59075 6.99159 7.84184C6.48384 7.92851 6.13719 8.0585 5.98942 8.12072C5.90831 8.15516 5.85498 8.23405 5.85498 8.32293C5.85609 8.74402 6.30607 9.60397 6.62938 9.65619C6.94937 9.70841 7.67044 8.77957 7.93598 8.37959C7.93598 9.00178 8.02931 10.1017 8.21597 10.1884C8.59484 10.3628 9.79477 9.71397 9.83033 9.3751C9.8581 9.10956 9.32591 8.58958 8.82149 8.12738Z" fill="#FFCA28"/>
<path d="M12.0219 3.05545C11.9941 2.57983 11.6774 2.15533 11.2296 1.9942C10.8662 1.86419 10.5028 1.90975 10.2106 2.07421C10.0772 2.14867 9.9172 2.16089 9.7794 2.09199C9.56604 1.98531 9.19599 1.84085 8.66926 1.77417C8.14475 1.7075 7.73915 1.76528 7.49578 1.82307C7.33799 1.86085 7.17574 1.80529 7.06128 1.68972C6.84126 1.4708 6.53789 1.33301 6.19229 1.33301C5.62222 1.33301 5.1166 1.74862 5.00325 2.30757C4.93213 2.6554 5.01547 2.99322 5.20216 3.25547C5.36441 3.4855 5.39663 3.78665 5.29217 4.0489C5.18661 4.31338 4.98547 4.89457 4.98991 5.21683C5.00658 6.62256 6.28563 7.35154 7.97695 7.56601C9.66828 7.78049 11.1807 7.25264 11.4652 5.79801C11.5296 5.46908 11.5118 5.03903 11.4552 4.71677C11.4085 4.45118 11.4963 4.1767 11.6841 3.98223C11.9086 3.74887 12.0441 3.42327 12.0219 3.05545Z" fill="#A65F3E"/>
<path d="M5.48326 2.63153C5.52881 2.2771 5.83657 2.02489 6.17322 2.06711C6.30099 2.08378 6.6843 2.23377 6.5532 2.43376C6.52876 2.47043 6.49209 2.49598 6.45654 2.52153C6.21766 2.69486 6.00323 2.90596 5.82546 3.14706C5.79324 3.1915 5.74435 3.2415 5.69658 3.22039C5.5277 3.14817 5.46326 2.79374 5.48326 2.63153Z" fill="#874D36"/>
<path d="M11.4772 3.39171C11.5227 3.03729 11.2861 2.71508 10.9506 2.67286C10.8228 2.65619 10.4139 2.70619 10.4917 2.93285C10.5061 2.97507 10.535 3.0084 10.5628 3.04284C10.7506 3.2695 10.905 3.52837 11.0172 3.80725C11.0372 3.85835 11.0717 3.91946 11.1239 3.91057C11.305 3.88169 11.4561 3.55504 11.4772 3.39171Z" fill="#874D36"/>
<path opacity="0.7" d="M7.77225 4.5744C7.44449 4.95104 7.19783 5.16437 6.96562 5.49657C6.5712 6.06099 6.84563 7.04204 7.96335 7.18759C8.7422 7.2887 9.41327 6.91983 9.4266 6.17431C9.43549 5.70211 9.01885 5.07215 8.8033 4.6655C8.53443 4.16108 8.11334 4.18219 7.77225 4.5744Z" fill="#F29657"/>
<path opacity="0.55" d="M7.22365 4.45104C7.26501 4.16067 7.09859 3.89679 6.85196 3.86167C6.60532 3.82654 6.37185 4.03346 6.3305 4.32384C6.28914 4.61421 6.45555 4.87809 6.70219 4.91321C6.94883 4.94834 7.18229 4.74142 7.22365 4.45104Z" fill="black"/>
<path opacity="0.55" d="M10.2888 4.84069C10.3302 4.55032 10.1638 4.28644 9.91714 4.25132C9.67051 4.21619 9.43704 4.42311 9.39568 4.71349C9.35433 5.00386 9.52074 5.26773 9.76738 5.30286C10.014 5.33799 10.2475 5.13107 10.2888 4.84069Z" fill="black"/>
<path opacity="0.55" fill-rule="evenodd" clip-rule="evenodd" d="M7.24445 6.00722C7.31554 5.98314 7.39269 6.02126 7.41677 6.09235C7.50041 6.33929 7.75665 6.50676 8.05663 6.54543C8.35636 6.58407 8.65014 6.48756 8.79867 6.26764C8.84068 6.20544 8.92516 6.18907 8.98736 6.23109C9.04956 6.2731 9.06593 6.35758 9.02392 6.41978C8.80025 6.75095 8.38795 6.86221 8.02188 6.81502C7.65607 6.76786 7.28679 6.55591 7.15932 6.17954C7.13524 6.10845 7.17335 6.0313 7.24445 6.00722Z" fill="black"/>
<path opacity="0.55" d="M8.41995 6.20328C8.15218 6.26217 7.87997 6.2155 7.70109 5.99107C7.56666 5.8233 7.42778 5.5422 7.61888 5.34333C7.88997 5.06556 8.56438 5.14889 8.80881 5.42443C8.9477 5.65886 8.67327 6.14995 8.41995 6.20328Z" fill="black"/>
</svg>
