<svg xmlns="http://www.w3.org/2000/svg" width="16" height="16" viewBox="0 0 16 16" fill="none">
<path d="M8.69452 12.0891L14.0896 12.6024C14.5975 12.6513 14.7275 12.368 14.7275 12.128L14.7219 11.8369L8.08667 10.9014C8.08667 11.2336 8.3567 12.0891 8.69452 12.0891Z" fill="#C62828"/>
<path d="M7.30739 12.0892L1.91227 12.6025C1.40443 12.6514 1.27441 12.3681 1.27441 12.1281L1.27997 11.837L7.91524 10.9004C7.91524 11.2337 7.64521 12.0892 7.30739 12.0892Z" fill="#C62828"/>
<path d="M7.1107 11.8362L6.26837 11.9107L1.71558 12.3507C1.47111 12.3507 1.27441 12.1562 1.27441 11.9162L1.51556 4.55306C1.51556 4.31303 1.71336 4.11856 1.95672 4.11856L7.1107 3.63184C7.44852 3.63184 7.723 3.90187 7.723 4.23413V11.235C7.723 11.5662 7.44963 11.8362 7.1107 11.8362Z" fill="#F44336"/>
<path d="M8.89086 11.8354L9.73986 11.9098L14.286 12.3488C14.5305 12.3488 14.7271 12.1543 14.7271 11.9143L14.486 4.55111C14.486 4.31108 14.2882 4.11661 14.0448 4.11661L8.89086 3.62988C8.55304 3.62988 8.27856 3.89992 8.27856 4.23218V11.2331C8.27856 11.5653 8.55193 11.8354 8.89086 11.8354Z" fill="#F44336"/>
<path d="M9.63905 10.1875H6.36367L6.26367 11.913L7.28584 12.0085C7.28584 12.0085 7.50472 12.5552 8.00025 12.5552C8.49578 12.5552 8.71465 12.0085 8.71465 12.0085L9.73682 11.913L9.63905 10.1875Z" fill="#424242"/>
<path fill-rule="evenodd" clip-rule="evenodd" d="M8.78732 11.8291L9.73949 11.9113L9.7156 12.1881L8.76343 12.1058L8.78732 11.8291Z" fill="#616161"/>
<path fill-rule="evenodd" clip-rule="evenodd" d="M7.23779 12.1058L6.28561 12.1881L6.26172 11.9113L7.21389 11.8291L7.23779 12.1058Z" fill="#616161"/>
<path d="M14.1851 4.53599L13.7406 3.9248L8.00098 10.4478L2.26137 3.9248L1.81687 4.53599L1.75464 11.798C1.75464 11.798 2.93479 11.9458 4.51165 11.7858C5.88516 11.6469 6.5319 11.2913 6.99085 11.3835C7.54203 11.4946 7.64204 11.8336 7.65982 11.8914C7.70983 12.0514 7.80873 12.1758 8.00098 12.1758C8.19322 12.1758 8.27879 12.1092 8.33768 11.9114C8.35546 11.8536 8.45992 11.4958 9.0111 11.3846C9.47005 11.2924 10.1168 11.648 11.4903 11.7869C13.0672 11.9469 14.2473 11.7991 14.2473 11.7991L14.1851 4.53599Z" fill="#94C6D6"/>
<path d="M8.79649 11.8292C8.67206 11.8181 8.55762 11.8947 8.51762 12.0136C8.45762 12.1947 8.31763 12.4314 8.00098 12.4314C7.681 12.4314 7.53989 12.1936 7.47878 12.0125C7.43879 11.8959 7.32657 11.8203 7.20324 11.8303L7.15991 11.8336L7.16102 11.8692C7.16102 12.3325 7.53656 12.708 7.99987 12.708C8.46318 12.708 8.83871 12.3325 8.83871 11.8692C8.83871 11.8581 8.8376 11.8325 8.8376 11.8325L8.79649 11.8292Z" fill="#616161"/>
<path d="M13.5906 11.0971L13.6084 8.16504H14.2161L14.2472 11.7971C14.2472 11.7971 13.7639 11.6093 13.5906 11.0971Z" fill="url(#paint0_linear_2527_14239)"/>
<path d="M13.6186 9.38867L13.5908 11.0986C13.5908 11.0986 12.2618 11.0297 10.1448 10.6631C8.76022 10.4231 8.00124 11.1919 8.00124 11.1919L7.98901 9.38867H13.6186Z" fill="url(#paint1_linear_2527_14239)"/>
<path d="M2.38354 9.38867L2.41133 11.0986C2.41133 11.0986 3.74038 11.0297 5.85731 10.6631C7.24193 10.4231 8.00091 11.1919 8.00091 11.1919L7.98869 9.38867H2.38354Z" fill="url(#paint2_linear_2527_14239)"/>
<path d="M2.41127 11.0971L2.39349 8.16504H1.78464L1.75464 11.7971C1.75464 11.7971 2.23684 11.6093 2.41127 11.0971Z" fill="url(#paint3_linear_2527_14239)"/>
<path d="M13.7403 3.92488C13.7403 3.92488 10.7911 3.37037 9.49647 3.29814C8.27854 3.23035 8.02851 3.85043 8.00406 3.92488H7.99961C7.97406 3.85043 7.72402 3.23146 6.50609 3.29814C5.21149 3.37037 2.26223 3.92488 2.26223 3.92488L2.1311 11.0813C2.1311 11.0813 5.64265 10.3457 6.49276 10.4413C7.34287 10.5368 8.00073 11.1925 8.00073 11.1925V11.1914V11.1925C8.00073 11.1925 8.6597 10.5368 9.5098 10.4413C10.3599 10.3457 13.8715 11.0813 13.8715 11.0813L13.7403 3.92488Z" fill="#F5F5F5"/>
<path opacity="0.26" d="M6.84728 3.29883L6.24731 10.4331C6.34175 10.4308 6.42508 10.4331 6.49175 10.4408C7.34059 10.5353 8.00056 11.192 8.00056 11.192L7.98167 3.92446C7.98167 3.92446 7.83723 3.3555 6.84728 3.29883Z" fill="#94C6D6"/>
<g opacity="0.5">
<path opacity="0.5" d="M3.70226 4.24219C3.40227 4.29441 3.15673 4.33885 3.01674 4.36329C3.01674 4.43218 3.01674 4.50773 3.01562 4.58884C3.13895 4.56661 3.39005 4.52106 3.70226 4.46662V4.24219Z" fill="#757575"/>
<g opacity="0.5">
<path opacity="0.5" d="M6.40698 3.88477V4.10587C6.99917 4.10476 7.32693 4.25364 7.43471 4.31364C7.43471 4.22142 7.43582 4.13921 7.43582 4.06699C7.25249 3.98477 6.91696 3.88366 6.40698 3.88477Z" fill="#757575"/>
<path opacity="0.5" d="M5.92423 3.91211C5.44315 3.961 4.77318 4.06321 4.18433 4.16099V4.38653C4.76874 4.28987 5.43982 4.18654 5.92423 4.13543V3.91211Z" fill="#757575"/>
</g>
<g opacity="0.5">
<path opacity="0.5" d="M4.74122 4.87207C4.02348 4.98318 3.30352 5.11206 3.01465 5.16428C3.01465 5.23761 3.01465 5.31316 3.01465 5.38982C3.26575 5.34427 4.00237 5.21094 4.74122 5.0965V4.87207Z" fill="#757575"/>
<path opacity="0.5" d="M6.07779 4.69876C5.84336 4.71764 5.54448 4.75542 5.22339 4.79986V5.0243C5.55115 4.97763 5.8578 4.93986 6.09556 4.91986C6.8933 4.8543 7.31439 5.04985 7.43216 5.11651C7.43216 5.03096 7.43216 4.94874 7.43216 4.86875C7.21439 4.77209 6.77775 4.64098 6.07779 4.69876Z" fill="#757575"/>
</g>
<g opacity="0.5">
<path opacity="0.5" d="M3.82127 5.82227C3.47018 5.88226 3.17686 5.93448 3.01465 5.96448C3.01465 6.03892 3.01465 6.11447 3.01465 6.19002C3.1602 6.16336 3.45796 6.11003 3.82127 6.04781V5.82227Z" fill="#757575"/>
<path opacity="0.5" d="M7.43243 5.67205C7.21578 5.57428 6.77802 5.44095 6.0714 5.49984C5.6192 5.5365 4.92701 5.63983 4.30371 5.74205V5.96759C4.93257 5.86426 5.63475 5.75982 6.09028 5.72205C6.90135 5.65539 7.32355 5.85871 7.43243 5.92204C7.43243 5.83649 7.43243 5.75427 7.43243 5.67205Z" fill="#757575"/>
</g>
<g opacity="0.5">
<path opacity="0.5" d="M7.43352 6.47494C7.21909 6.37716 6.77911 6.2405 6.06693 6.29939C5.99471 6.30494 5.91693 6.31272 5.83472 6.32161V6.54493C5.92471 6.53493 6.00804 6.52716 6.08581 6.52049C6.91244 6.45271 7.33464 6.66493 7.43463 6.72492C7.43352 6.64159 7.43352 6.55826 7.43352 6.47494Z" fill="#757575"/>
<path opacity="0.5" d="M5.35081 6.38184C4.48197 6.50072 3.39981 6.69293 3.01538 6.76293C3.01538 6.83848 3.01538 6.91292 3.01538 6.98847C3.35425 6.92625 4.46197 6.72737 5.35081 6.60516V6.38184Z" fill="#757575"/>
</g>
<g opacity="0.5">
<path opacity="0.5" d="M4.02866 7.38672C3.59202 7.46005 3.21426 7.52782 3.01538 7.56338C3.01538 7.63893 3.01538 7.71448 3.01538 7.78892C3.19537 7.75559 3.57868 7.6867 4.02866 7.61115V7.38672Z" fill="#757575"/>
<path opacity="0.5" d="M7.43379 7.27978C7.22158 7.18201 6.77938 7.04202 6.06053 7.1009C5.66055 7.13423 5.07391 7.21756 4.51172 7.30756V7.53199C5.07947 7.44088 5.6761 7.35533 6.0783 7.322C6.92604 7.25201 7.34935 7.47866 7.43379 7.52977C7.43379 7.44644 7.43379 7.36311 7.43379 7.27978Z" fill="#757575"/>
</g>
<path opacity="0.5" d="M7.43661 8.88808C7.2344 8.79142 6.79665 8.64587 6.07446 8.70032V8.92364C6.99553 8.8492 7.41328 9.12474 7.43661 9.1414C7.43661 9.05919 7.43661 8.97475 7.43661 8.88808Z" fill="#757575"/>
<g opacity="0.5">
<path opacity="0.5" d="M3.82111 9.02051C3.47891 9.07939 3.18781 9.1305 3.01782 9.16161C3.01782 9.23938 3.01782 9.31383 3.01782 9.38716C3.17448 9.35827 3.4678 9.30605 3.82111 9.24494V9.02051Z" fill="#757575"/>
<path opacity="0.5" d="M4.30322 8.94097V9.16651C4.73431 9.09651 5.19762 9.02541 5.59204 8.97541V8.75098C5.19984 8.79986 4.73653 8.86986 4.30322 8.94097Z" fill="#757575"/>
</g>
<g opacity="0.5">
<path opacity="0.5" d="M5.07487 9.62109C4.27935 9.73664 3.38496 9.89552 3.01831 9.96219C3.01831 10.0444 3.01831 10.12 3.01831 10.1877C3.35052 10.1266 4.26158 9.96441 5.07487 9.84553V9.62109Z" fill="#757575"/>
<path opacity="0.5" d="M7.43727 9.69218C7.23617 9.59441 6.78842 9.4422 6.04179 9.5033C5.90069 9.51441 5.73625 9.5333 5.55737 9.55552V9.77885C5.74292 9.75551 5.91402 9.73663 6.05957 9.7244C7.01063 9.64552 7.42839 9.94106 7.43283 9.94328L7.43838 9.93661C7.43838 9.85995 7.43839 9.77885 7.43727 9.69218Z" fill="#757575"/>
</g>
<g opacity="0.5">
<path opacity="0.5" d="M4.90959 8.04492C4.15185 8.15825 3.34856 8.30158 3.01636 8.36268C3.01636 8.43935 3.01636 8.51379 3.01636 8.58823C3.31412 8.53379 4.13297 8.38713 4.90959 8.26935V8.04492Z" fill="#757575"/>
<path opacity="0.5" d="M7.43518 8.08306C7.2263 7.98529 6.78299 7.84085 6.05414 7.90085C5.86749 7.9164 5.63972 7.94307 5.39307 7.9764V8.20083C5.6475 8.16639 5.88193 8.13862 6.07303 8.12306C6.94854 8.05084 7.37185 8.29416 7.43629 8.33527C7.43518 8.25305 7.43518 8.16861 7.43518 8.08306Z" fill="#757575"/>
</g>
</g>
<g opacity="0.5">
<g opacity="0.5">
<path opacity="0.5" d="M10.7133 4.19025C11.6332 4.31247 12.8354 4.53024 13.162 4.58912C13.162 4.5069 13.162 4.43246 13.1609 4.36358C12.7787 4.29358 11.6088 4.0847 10.7122 3.96582V4.19025H10.7133Z" fill="#757575"/>
<path opacity="0.5" d="M10.2299 3.91028C10.1821 3.90584 10.1366 3.90139 10.0932 3.89806C9.3966 3.84029 8.96106 3.97028 8.74219 4.06694C8.74219 4.13916 8.7433 4.22249 8.7433 4.3136C8.86774 4.24471 9.28883 4.05472 10.0755 4.11916C10.1243 4.12361 10.1766 4.12805 10.2299 4.1336V3.91028Z" fill="#757575"/>
</g>
<g opacity="0.5">
<path opacity="0.5" d="M12.2642 5.23225C12.6719 5.30224 13.0097 5.36224 13.1641 5.39113C13.1641 5.31335 13.1641 5.23891 13.1641 5.16558C12.9897 5.13336 12.6586 5.07448 12.2642 5.00781V5.23225Z" fill="#757575"/>
<path opacity="0.5" d="M11.7811 4.92652C11.1801 4.82986 10.5312 4.73431 10.1001 4.69876C9.40015 4.64098 8.96351 4.77209 8.74463 4.86875C8.74463 4.94874 8.74463 5.03096 8.74463 5.11651C8.8624 5.04985 9.28349 4.8543 10.0812 4.91986C10.5156 4.95541 11.1745 5.05318 11.78 5.15096V4.92652H11.7811Z" fill="#757575"/>
</g>
<path opacity="0.5" d="M11.6885 5.71094V5.93537C12.334 6.0387 12.9351 6.14758 13.164 6.1898C13.164 6.11314 13.164 6.0387 13.164 5.96426C12.9051 5.91759 12.3151 5.81204 11.6885 5.71094Z" fill="#757575"/>
<g opacity="0.5">
<path opacity="0.5" d="M10.7125 6.36801C10.4892 6.33912 10.2826 6.31468 10.1115 6.30134C9.39928 6.24246 8.95931 6.37912 8.74487 6.47689C8.74487 6.56022 8.74487 6.64355 8.74487 6.72688C8.84487 6.66799 9.26818 6.45467 10.0937 6.52244C10.2692 6.53689 10.4826 6.56133 10.7125 6.59244V6.36801Z" fill="#757575"/>
<path opacity="0.5" d="M11.1963 6.43555V6.65998C12.0018 6.77997 12.8695 6.93663 13.1629 6.98996C13.1629 6.91441 13.1629 6.83886 13.1629 6.76442C12.8318 6.70331 11.9818 6.55221 11.1963 6.43555Z" fill="#757575"/>
</g>
<g opacity="0.5">
<path opacity="0.5" d="M11.2934 7.24978C10.8545 7.18312 10.429 7.12646 10.1179 7.1009C9.39793 7.04202 8.95573 7.18201 8.74463 7.27978C8.74463 7.36311 8.74463 7.44755 8.74463 7.53088C8.82907 7.47866 9.25238 7.25312 10.1001 7.32311C10.4145 7.34867 10.849 7.40755 11.2945 7.47533V7.24978H11.2934Z" fill="#757575"/>
<path opacity="0.5" d="M11.7764 7.32617V7.55172C12.3808 7.64949 12.9341 7.74948 13.1618 7.79059C13.1618 7.71615 13.1618 7.6406 13.1618 7.56505C12.9085 7.51838 12.3641 7.42061 11.7764 7.32617Z" fill="#757575"/>
</g>
<path opacity="0.5" d="M12.5613 8.25684V8.48238C12.8235 8.52793 13.0379 8.56682 13.1601 8.58904C13.1601 8.5146 13.1601 8.43905 13.1601 8.3635C13.0268 8.33905 12.8157 8.30128 12.5613 8.25684Z" fill="#757575"/>
<g opacity="0.5">
<path opacity="0.5" d="M10.811 8.77955C10.5565 8.74511 10.321 8.71733 10.1299 8.70178C9.39215 8.64067 8.94662 8.78955 8.74219 8.88732C8.74219 8.97398 8.74219 9.05842 8.74219 9.14064C8.76552 9.12398 9.1855 8.84621 10.1132 8.92288C10.3088 8.93843 10.551 8.96732 10.8132 9.00287V8.77955H10.811Z" fill="#757575"/>
<path opacity="0.5" d="M11.2932 8.84863V9.07307C12.0576 9.18862 12.8598 9.33305 13.1598 9.38749C13.1598 9.31416 13.1598 9.23861 13.1598 9.16195C12.8265 9.10195 12.0398 8.96196 11.2932 8.84863Z" fill="#757575"/>
</g>
<g opacity="0.5">
<path opacity="0.5" d="M11.6879 9.71002C11.1246 9.62003 10.5357 9.53559 10.1357 9.50226C9.38798 9.44115 8.94133 9.59447 8.74023 9.69114C8.74023 9.7778 8.74023 9.8589 8.74023 9.93557L8.74579 9.94223C8.74912 9.94001 9.16688 9.64447 10.1191 9.72336C10.5224 9.75669 11.1212 9.84335 11.6901 9.93446V9.71002H11.6879Z" fill="#757575"/>
<path opacity="0.5" d="M12.1716 9.79004V10.0156C12.6038 10.0878 12.9727 10.1545 13.1594 10.1889C13.1594 10.1211 13.1594 10.0456 13.1594 9.96336C12.956 9.92559 12.5916 9.86004 12.1716 9.79004Z" fill="#757575"/>
</g>
<g opacity="0.5">
<path opacity="0.5" d="M10.1043 7.89957C9.3866 7.84291 8.94884 7.98624 8.74219 8.0829C8.74219 8.16734 8.74219 8.25178 8.74219 8.33511C8.80663 8.294 9.22883 8.05068 10.1043 8.12289V7.89957Z" fill="#757575"/>
<path opacity="0.5" d="M10.5881 7.9502V8.17352C11.0459 8.23129 11.5959 8.31795 12.0792 8.39795V8.17241C11.5925 8.09241 11.0426 8.00686 10.5881 7.9502Z" fill="#757575"/>
</g>
<g opacity="0.5">
<path opacity="0.5" d="M9.74802 5.48633C9.25027 5.48966 8.92251 5.59188 8.74585 5.67187C8.74585 5.75409 8.74585 5.83631 8.74585 5.92075C8.83918 5.86742 9.15805 5.71298 9.74802 5.70743V5.48633Z" fill="#757575"/>
<path opacity="0.5" d="M10.2305 5.51074V5.73406C10.5071 5.76184 10.8504 5.8085 11.2049 5.86072V5.63629C10.8493 5.58296 10.5071 5.53741 10.2305 5.51074Z" fill="#757575"/>
</g>
</g>
<defs>
<linearGradient id="paint0_linear_2527_14239" x1="13.9176" y1="10.6894" x2="13.9451" y2="8.76703" gradientUnits="userSpaceOnUse">
<stop offset="0.2665" stop-color="#82AEC0"/>
<stop offset="1" stop-color="#82AEC0" stop-opacity="0"/>
</linearGradient>
<linearGradient id="paint1_linear_2527_14239" x1="8.65876" y1="10.2898" x2="13.4162" y2="10.2898" gradientUnits="userSpaceOnUse">
<stop stop-color="#2F7889"/>
<stop offset="1" stop-color="#82AEC0"/>
</linearGradient>
<linearGradient id="paint2_linear_2527_14239" x1="7.33186" y1="10.2898" x2="2.58506" y2="10.2898" gradientUnits="userSpaceOnUse">
<stop stop-color="#2F7889"/>
<stop offset="1" stop-color="#82AEC0"/>
</linearGradient>
<linearGradient id="paint3_linear_2527_14239" x1="2.08381" y1="10.6894" x2="2.05634" y2="8.76702" gradientUnits="userSpaceOnUse">
<stop offset="0.2665" stop-color="#82AEC0"/>
<stop offset="1" stop-color="#82AEC0" stop-opacity="0"/>
</linearGradient>
</defs>
</svg>