<svg xmlns="http://www.w3.org/2000/svg" width="16" height="16" viewBox="0 0 16 16" fill="none">
  <path d="M5.02648 10.0547L2.15663 10.2936C2.15663 10.2936 2.13219 14.3467 2.12108 14.4656C2.10997 14.5844 2.15663 14.7044 2.29996 14.7044C2.44328 14.7044 13.6694 14.6567 13.7893 14.6567C13.9093 14.6567 13.9927 14.4889 13.9927 14.3456C13.9927 14.2022 13.9927 10.5436 13.9927 10.5436L12.1161 10.0658L5.02648 10.0547Z" fill="#ACA299"/>
  <path d="M10.2806 12.8044V12.4022C10.2806 12.4022 11.0006 12.3978 11.0095 12.4089C11.0184 12.42 11.0162 12.8067 11.0162 12.8067L10.2806 12.8044Z" fill="#D8D0C5"/>
  <path d="M6.24076 14.689C6.24076 14.689 6.19854 12.9546 6.43963 12.3602C6.69629 11.728 7.05849 11.3869 7.3007 11.1236C7.54402 10.8592 7.954 10.4981 8.08621 10.4847C8.22065 10.4703 8.64952 10.8803 8.98283 11.228C9.29948 11.558 9.69835 11.9091 9.86501 12.4991C9.98945 12.9391 9.95056 14.6734 9.95056 14.6734L6.24076 14.689Z" fill="#6F6A67"/>
  <path d="M8.08722 10.9014C8.02389 10.9014 6.94728 11.788 6.7484 12.5879C6.58952 13.2301 6.62063 14.6878 6.62063 14.6878L9.61714 14.6745C9.61714 14.6745 9.70046 12.9924 9.48825 12.4768C9.15605 11.6691 8.15055 10.9014 8.08722 10.9014Z" fill="#89847E"/>
  <path d="M7.07642 14.6872C7.07642 14.6872 7.05864 13.0172 7.06642 12.7961C7.0742 12.5739 7.38307 11.9095 8.11192 11.9251C8.84077 11.9406 9.15742 12.5506 9.1652 12.7961C9.17298 13.0417 9.1652 14.6772 9.1652 14.6772L7.07642 14.6872Z" fill="#6E4D42"/>
  <path d="M8.72063 12.1123C8.72063 12.1123 8.79063 12.1601 8.84285 12.2079C8.8884 12.2501 8.93507 12.3056 8.93507 12.3056L8.93618 14.6777L8.70508 14.6788L8.72063 12.1123Z" fill="#8F6D61"/>
  <path d="M7.35853 14.6864L7.60408 14.6853V12.041C7.60408 12.041 7.50408 12.0988 7.45408 12.141C7.40631 12.181 7.35742 12.2299 7.35742 12.2299C7.35742 12.2299 7.35853 14.6853 7.35853 14.6864Z" fill="#8F6D61"/>
  <path d="M8.02846 14.6828L8.02734 11.9263C8.02734 11.9263 8.1029 11.9229 8.13734 11.9241C8.184 11.9263 8.24511 11.9352 8.24511 11.9352L8.26289 14.6817L8.02846 14.6828Z" fill="#8F6D61"/>
  <path d="M10.1238 4.31445H5.83069V9.90305H10.1238V4.31445Z" fill="#ACA299"/>
  <path d="M4.21777 10.3072H11.8118L11.4941 9.13611C11.4941 9.13611 9.96525 9.125 9.88636 9.125C9.82081 9.125 9.77859 9.17944 9.7797 9.26055C9.78081 9.31943 9.77859 9.71053 9.77859 9.71053L8.75976 9.7083C8.75976 9.7083 8.75976 9.34166 8.75976 9.28277C8.75976 9.18055 8.69754 9.12833 8.58421 9.13167C8.49644 9.13389 7.59759 9.12833 7.52871 9.13167C7.4276 9.13611 7.41649 9.19611 7.41649 9.29055C7.41649 9.38499 7.41316 9.69053 7.41316 9.69053L6.31322 9.68941C6.31322 9.68941 6.30989 9.32721 6.30989 9.2761C6.30989 9.22611 6.28433 9.16278 6.15989 9.15722C6.03434 9.15055 4.57442 9.15722 4.57442 9.15722L4.21777 10.3072Z" fill="#E5DDD2"/>
  <path d="M7.32082 5.43895C7.32082 5.43895 7.32082 6.62667 7.32082 6.66444C7.32082 6.77666 7.27749 6.86332 7.44526 6.8511C7.54526 6.84332 8.65186 6.8511 8.65186 6.8511C8.65186 6.8511 8.65186 5.5945 8.6452 5.45117C8.63853 5.30785 8.47743 4.87232 7.97968 4.87898C7.48193 4.88565 7.32638 5.24563 7.32082 5.43895Z" fill="#2F2F2F"/>
  <path d="M5.82973 6.79883L10.1239 6.80327V7.27103L9.54065 7.51657L8.98068 7.96432L8.27182 7.49768C8.27182 7.49768 7.76852 7.49768 7.74296 7.51657C7.71852 7.53546 7.18299 8.0021 7.18299 8.0021L6.58636 7.51101L5.83084 7.33547C5.83084 7.33436 5.8264 6.80327 5.82973 6.79883Z" fill="#D9D1C6"/>
  <path d="M5.82971 7.63752C5.82971 7.63752 6.30302 7.57641 6.5619 7.68418C6.86077 7.80862 7.15853 8.25637 7.20297 8.25637C7.29741 8.25526 7.49185 7.67862 8.06737 7.63418C8.63956 7.58974 8.86955 8.31192 8.99399 8.31859C9.08843 8.32303 9.30731 7.80084 9.56618 7.65974C9.83506 7.51308 10.1239 7.50974 10.1239 7.50974V7.26865C10.1239 7.26865 9.7695 7.2342 9.47952 7.36753C9.15287 7.51863 9.03732 7.82195 8.98288 7.82528C8.94399 7.82751 8.65845 7.33531 8.04293 7.35531C7.46407 7.3742 7.24964 7.79417 7.20186 7.79528C7.18075 7.7964 6.94965 7.51974 6.66189 7.40531C6.31969 7.26865 5.83082 7.33198 5.83082 7.33198L5.82971 7.63752Z" fill="#6F6B67"/>
  <path d="M1.44336 7.81344C1.44336 7.81344 1.48336 8.25675 1.5178 8.56118C1.55224 8.86561 1.61779 9.21892 1.61779 9.21892L3.27771 9.60224L4.65208 9.20004C4.65208 9.20004 4.70652 8.81339 4.72652 8.43452C4.74541 8.07454 4.73763 7.819 4.72763 7.81122C4.69763 7.78678 3.14549 7.0957 3.14549 7.0957L1.44336 7.81344Z" fill="#ACA299"/>
  <path d="M1.61658 9.21602L4.65308 9.19824C4.65308 9.19824 4.5842 9.66933 4.5442 9.87154C4.5042 10.0726 4.41198 10.3082 4.41198 10.3082L4.41087 14.6968L4.092 14.698V10.6959H2.15322C2.15322 10.6959 1.86656 10.4493 1.75324 9.95487C1.65546 9.53267 1.61658 9.21602 1.61658 9.21602Z" fill="#89847E"/>
  <path d="M13.0006 7.04199L11.2074 7.68751C11.2074 7.68751 11.2241 8.02638 11.2885 8.59413C11.3307 8.96856 11.4252 9.41742 11.4252 9.41742L13.1306 9.8574L14.4461 9.14299C14.4461 9.14299 14.535 8.73746 14.5772 8.24971C14.6061 7.91972 14.6283 7.65418 14.6083 7.63752C14.4006 7.46864 13.0006 7.04199 13.0006 7.04199Z" fill="#ACA299"/>
  <path d="M11.3662 9.125L14.4449 9.14389C14.4449 9.14389 14.3761 9.50387 14.2472 9.92607C14.1627 10.2038 13.9961 10.6927 13.9961 10.6927H11.9617L11.9251 14.6647L11.6551 14.6658L11.6751 10.4638C11.6751 10.4638 11.574 10.0316 11.4929 9.72608C11.4273 9.47387 11.3662 9.125 11.3662 9.125Z" fill="#89847E"/>
  <path d="M12.2671 13.2367C12.2482 13.2633 12.2416 13.6422 12.2649 13.6489C12.2882 13.6555 12.9515 13.6489 12.9515 13.6489V13.22C12.9515 13.2189 12.2904 13.2044 12.2671 13.2367Z" fill="#D8D0C5"/>
  <path d="M5.20089 12.1417C5.20089 12.1417 5.91307 12.1373 5.9264 12.1462C5.93974 12.1551 5.93751 12.5473 5.93751 12.5473C5.93751 12.5473 5.22088 12.5584 5.20755 12.545C5.19422 12.5317 5.20089 12.1417 5.20089 12.1417Z" fill="#D8D0C5"/>
  <path d="M6.38737 11.402V11.8042C6.38737 11.8042 5.6663 11.822 5.64852 11.7997C5.63074 11.7775 5.63296 11.4164 5.6463 11.4075C5.65963 11.3986 6.38737 11.402 6.38737 11.402Z" fill="#D8D0C5"/>
  <path d="M3.04776 11.1446C3.04776 11.1446 3.03109 11.5201 3.05443 11.5357C3.07665 11.5523 3.7955 11.5546 3.81105 11.5423C3.82661 11.5301 3.82438 11.1546 3.81105 11.1446C3.79883 11.1357 3.04776 11.1446 3.04776 11.1446Z" fill="#D8D0C5"/>
  <path d="M3.98401 7.63184C3.98401 7.63184 3.98956 8.59845 3.98956 8.664C3.98956 8.75289 4.02734 8.85288 4.13733 8.85288C4.25177 8.85288 4.28733 8.78289 4.29177 8.674C4.29621 8.56512 4.29621 7.64961 4.29621 7.64961L3.98401 7.63184Z" fill="#2E2E2F"/>
  <path d="M2.98535 7.62358C2.98535 7.62358 2.99202 8.60131 2.99535 8.66242C2.9998 8.7513 3.03424 8.85463 3.15868 8.85463C3.28311 8.85463 3.31756 8.73686 3.31311 8.66242C3.30978 8.60576 3.30867 7.61914 3.30867 7.61914L2.98535 7.62358Z" fill="#2E2E2F"/>
  <path d="M1.94568 7.61765C1.94568 7.61765 1.96901 8.59982 1.97346 8.67982C1.9779 8.74981 2.01123 8.8587 2.13789 8.85425C2.26455 8.84981 2.27455 8.71315 2.27455 8.67537C2.27455 8.6376 2.24677 7.56543 2.24677 7.56543L1.94568 7.61765Z" fill="#2E2E2F"/>
  <path d="M13.7802 7.47266C13.7802 7.47266 13.7725 8.54149 13.7725 8.60038C13.7725 8.65926 13.7869 8.78814 13.928 8.77814C14.0536 8.76926 14.0691 8.63704 14.0691 8.54816C14.0691 8.45927 14.0758 7.48043 14.0758 7.48043L13.7802 7.47266Z" fill="#2E2E2F"/>
  <path d="M11.8783 7.42171C11.8783 7.42171 11.8783 7.63725 11.8783 7.92612C11.8783 8.215 11.8805 8.41276 11.8861 8.57164C11.8894 8.69719 11.9605 8.76941 12.0716 8.76497C12.1972 8.75941 12.2127 8.65386 12.2127 8.57942C12.2127 8.50498 12.1983 7.41504 12.1983 7.41504L11.8783 7.42171Z" fill="#2E2E2F"/>
  <path d="M12.8061 7.41668C12.8061 7.41668 12.8083 8.49996 12.8061 8.58107C12.8039 8.69217 12.8661 8.78105 12.9672 8.78105C13.0683 8.78105 13.1283 8.68439 13.1216 8.59551C13.115 8.50662 13.135 7.37891 13.135 7.37891L12.8061 7.41668Z" fill="#2E2E2F"/>
  <path d="M12.7828 5.14017C12.7828 5.14017 12.7728 3.65136 12.7728 3.59136C12.7728 3.53247 12.8462 3.45581 12.9439 3.48025C13.1906 3.54247 13.4695 3.71024 13.8594 3.77357C14.2494 3.8369 14.7272 3.75913 14.8016 3.75913C14.876 3.75913 14.9572 3.86246 14.8161 3.9369C14.6749 4.01134 14.4427 4.26021 13.945 4.40132C13.5095 4.52464 13.3328 4.54464 13.1573 4.6313C13.0839 4.66797 13.1206 5.11017 13.1206 5.11017L12.7828 5.14017Z" fill="#FE2A22"/>
  <path d="M11.2074 7.68747C11.2074 7.68747 11.7596 7.53414 12.9462 7.5497C14.1328 7.56525 14.6072 7.63858 14.6072 7.63858C14.6072 7.63858 14.5706 7.51303 14.4595 7.40859C14.3484 7.30415 13.7328 6.65974 13.4062 5.79868C13.2273 5.3287 13.2384 4.92983 12.9162 4.93761C12.634 4.94539 12.6196 5.21204 12.4196 5.78312C12.2196 6.3542 12.0996 6.50642 11.8852 6.81085C11.6696 7.11528 11.4607 7.28416 11.3474 7.41526C11.203 7.58525 11.2074 7.68747 11.2074 7.68747Z" fill="#A62714"/>
  <path d="M2.90205 5.29521C2.90205 5.29521 2.8965 3.75751 2.89761 3.70085C2.90094 3.4653 3.2187 3.64307 3.24092 3.64863C3.4798 3.70973 3.78201 3.80417 4.05421 3.85084C4.32642 3.8975 4.94306 3.94972 4.99972 3.95417C5.05638 3.95861 5.10305 4.03861 5.00861 4.08527C4.91417 4.13193 4.18087 4.44303 3.89867 4.55525C3.61646 4.66746 3.21648 4.73857 3.21648 4.73857L3.21204 5.34965L2.90205 5.29521Z" fill="#FF2A23"/>
  <path d="M3.06112 5.09376C2.74558 5.09709 2.55892 6.02149 2.26338 6.56702C1.96784 7.11254 1.65675 7.47363 1.56786 7.55585C1.41232 7.70029 1.44454 7.81251 1.44454 7.81251C1.44454 7.81251 2.15228 7.72473 3.10556 7.71807C4.05884 7.7114 4.73436 7.82251 4.73436 7.82251C4.73436 7.82251 4.71659 7.67251 4.5977 7.5403C4.5166 7.4503 4.16773 7.0781 3.88774 6.53702C3.57887 5.93927 3.38555 5.09043 3.06112 5.09376Z" fill="#A62714"/>
  <path d="M8.05638 1.58205C7.72084 1.5865 7.58085 2.04869 6.812 3.06975C6.21537 3.86304 5.87205 4.15414 5.83539 4.28413C5.8165 4.35302 5.8265 4.39079 5.8265 4.39079H10.1263C10.1263 4.39079 10.1374 4.30302 10.0963 4.23858C10.0685 4.19636 9.56741 3.55306 9.25521 3.12197C8.42636 1.97981 8.36859 1.57872 8.05638 1.58205Z" fill="#A62714"/>
</svg>