<svg xmlns="http://www.w3.org/2000/svg" width="14" height="13" viewBox="0 0 14 13" fill="none">
  <path d="M6.88588 12.4215C3.78604 12.4215 0.441772 10.4772 0.441772 6.21075C0.441772 1.94433 3.78604 0 6.88588 0C8.60801 0 10.1968 0.566634 11.3745 1.59991C12.6522 2.73318 13.33 4.33308 13.33 6.21075C13.33 8.08842 12.6522 9.67722 11.3745 10.8105C10.1968 11.8438 8.5969 12.4215 6.88588 12.4215Z" fill="url(#paint0_radial_2527_6131)"/>
  <path d="M12.2066 2.51953C12.7988 3.47503 13.1077 4.61274 13.1077 5.87823C13.1077 7.7559 12.43 9.3447 11.1522 10.478C9.97453 11.5112 8.37462 12.089 6.6636 12.089C4.65704 12.089 2.5527 11.2724 1.31055 9.54024C2.50604 11.5023 4.75481 12.4223 6.88581 12.4223C8.59683 12.4223 10.1967 11.8446 11.3745 10.8113C12.6522 9.67801 13.3299 8.08921 13.3299 6.21154C13.3299 4.79607 12.9444 3.53836 12.2066 2.51953Z" fill="#EB8F00"/>
  <path d="M4.2015 2.69051C4.15261 2.57274 4.01929 2.51274 3.8993 2.55607C3.7193 2.61496 3.54598 2.69162 3.38043 2.78384C2.94046 3.02605 2.56381 3.36936 2.2816 3.78378C2.20383 3.88933 2.22383 4.0371 2.32716 4.11709C2.3816 4.16265 2.45271 4.18487 2.52381 4.17598C2.57714 4.1682 2.62603 4.14265 2.66381 4.10376C3.09045 3.68601 3.5682 3.32381 4.08484 3.02605L4.09706 3.01938C4.21483 2.95605 4.2615 2.8105 4.2015 2.69051Z" fill="#422B0D"/>
  <path d="M9.89556 2.57918C9.94444 2.46141 10.0778 2.40141 10.1978 2.44474C10.3766 2.50252 10.55 2.57696 10.7155 2.66695C11.1555 2.90916 11.5321 3.25136 11.8155 3.6669C11.8921 3.77245 11.8721 3.9191 11.7699 4.00021C11.7155 4.04576 11.6444 4.06687 11.5732 4.0591C11.5199 4.05132 11.471 4.02576 11.4333 3.98688C11.0066 3.56912 10.5289 3.20692 10.0122 2.90916L9.99999 2.9025C9.88556 2.83917 9.83889 2.69806 9.89556 2.57918Z" fill="#422B0D"/>
  <path d="M11.1602 7.1808C11.0047 6.8997 10.6669 6.77638 10.367 6.8897C9.22702 7.22191 8.04486 7.38745 6.85714 7.3819C5.66943 7.38745 4.48727 7.22191 3.34733 6.8897C3.04845 6.77638 2.71069 6.89859 2.55515 7.17858C2.40404 7.45745 2.51293 7.78076 2.6407 8.05964C3.35399 9.62621 4.92613 10.5639 6.84825 10.5695H6.86603C8.78815 10.5695 10.3603 9.62621 11.0747 8.05964C11.2014 7.77854 11.3113 7.45967 11.1602 7.1808Z" fill="#422B0D"/>
  <path d="M8.63573 10.1258C8.59462 10.088 8.5524 10.0535 8.51018 10.0147C8.05687 9.61579 7.47023 9.40136 6.86582 9.41358C6.24363 9.40358 5.63811 9.61024 5.15258 9.9991C5.11036 10.0335 5.06592 10.0669 5.02481 10.1102C4.9837 10.1535 4.96148 10.1846 4.93481 10.2213C5.54589 10.4602 6.19697 10.5824 6.8536 10.5791H6.87138C7.50023 10.5791 8.12353 10.4669 8.71239 10.2458C8.69017 10.2035 8.66462 10.1635 8.63573 10.1258Z" fill="#ED7770"/>
  <path d="M10.3672 6.89017C9.22725 7.22238 8.04509 7.38792 6.85738 7.38237C5.66966 7.38792 4.4875 7.22238 3.34756 6.89017C3.04869 6.77685 2.71093 6.89906 2.55538 7.17904C2.53316 7.22126 2.51538 7.26571 2.50427 7.31126C2.54094 7.33015 2.58316 7.34903 2.63315 7.36903C3.97086 8.039 5.44967 8.37898 6.94515 8.3612C8.37952 8.37786 9.79722 8.06566 11.0927 7.45014C11.1449 7.42792 11.1883 7.40681 11.2271 7.38681C11.2183 7.31459 11.1949 7.24349 11.1605 7.17904C11.0049 6.89906 10.6672 6.77573 10.3672 6.89017Z" fill="white"/>
  <path d="M11.1647 7.18191C11.0069 6.90081 10.668 6.77638 10.3658 6.8897C9.2259 7.22191 8.04374 7.38745 6.85714 7.3819C5.66943 7.38745 4.48727 7.22191 3.34733 6.8897C3.04845 6.77638 2.71069 6.89859 2.55515 7.17858C2.40404 7.45745 2.51293 7.78076 2.6407 8.05964C2.69736 8.18518 2.76069 8.30851 2.83069 8.42739C2.83069 8.42739 2.59737 7.563 2.79958 7.3119C2.86846 7.20524 2.98401 7.13858 3.11067 7.13191C3.16289 7.13191 3.214 7.1408 3.264 7.15635C4.42394 7.49745 5.62721 7.66966 6.83714 7.66744H6.87603C8.08596 7.66966 9.28923 7.49745 10.4492 7.15635C10.4992 7.1408 10.5503 7.13191 10.6025 7.13191C10.7292 7.13858 10.8458 7.20524 10.9147 7.3119C11.1202 7.563 10.8836 8.43073 10.8836 8.43073C10.9525 8.31184 11.0214 8.18963 11.0791 8.06297C11.2058 7.7841 11.3158 7.46189 11.1647 7.18191Z" fill="#EB8F00"/>
  <path d="M11.007 5.56738C11.007 5.56738 12.8957 5.6196 13.6502 7.01174C13.9657 7.59615 13.9835 8.56721 13.3302 8.92163C12.5402 9.35605 11.7991 8.73942 11.7047 8.08168C11.4503 6.29734 11.007 5.56738 11.007 5.56738Z" fill="#29B6F6"/>
  <path d="M13.5141 8.25371C13.4397 8.38926 13.2763 8.44815 13.133 8.39148C13.0052 8.32371 12.9708 8.16038 12.9508 8.01706L12.8897 7.57264C12.8641 7.39598 12.6841 6.82379 12.873 6.73047C13.023 6.65714 13.3108 6.85935 13.3952 6.97601C13.5808 7.24044 13.6685 7.99373 13.5141 8.25371Z" fill="#81D4FA"/>
  <path d="M12.8732 6.73535C13.0232 6.66202 13.3109 6.86423 13.3954 6.98089C13.5809 7.23976 13.6687 7.99305 13.5142 8.25304C13.4398 8.38859 13.2765 8.44747 13.1332 8.39081C13.0054 8.32304 12.9709 8.15971 12.9509 8.01639L12.8898 7.57197" fill="#81D4FA"/>
  <path d="M2.85384 5.56738C2.85384 5.56738 0.965052 5.6196 0.210648 7.01174C-0.104891 7.5906 -0.117113 8.55721 0.530631 8.91608C1.32059 9.3505 2.06166 8.73387 2.1561 8.07613C2.41053 6.29734 2.85384 5.56738 2.85384 5.56738Z" fill="#29B6F6"/>
  <path d="M0.345844 8.25371C0.420285 8.38926 0.58361 8.44815 0.726935 8.39148C0.854706 8.32371 0.889149 8.16038 0.909148 8.01706L0.970256 7.57264C0.99581 7.39598 1.1758 6.82379 0.986922 6.73047C0.83693 6.65714 0.549167 6.85935 0.464727 6.97601C0.279181 7.24044 0.191408 7.99373 0.345844 8.25371Z" fill="#81D4FA"/>
  <path d="M5.16929 5.43104L5.15263 5.40659L5.12929 5.37659C5.12041 5.36437 5.11152 5.35437 5.10041 5.34437L5.03263 5.27549C5.00375 5.2466 4.97153 5.21771 4.93597 5.18772C4.86264 5.12439 4.78042 5.07328 4.69154 5.03328C4.60599 4.9955 4.51266 4.97551 4.41933 4.97551C4.45822 4.97551 4.42933 4.97551 4.43822 4.97551H4.37489C4.36378 4.97439 4.35378 4.97439 4.34267 4.97551C4.32267 4.97773 4.30267 4.98106 4.28267 4.98551C4.23712 4.99662 4.19157 5.01106 4.14824 5.02884C4.05935 5.06772 3.97713 5.11994 3.9038 5.18327C3.84381 5.23327 3.78714 5.28771 3.73492 5.3466L3.67159 5.4177L3.63826 5.45548C3.50383 5.6088 3.27162 5.62436 3.11829 5.49103C3.00385 5.39104 2.96274 5.22994 3.01385 5.08661L3.02607 5.05106C3.03607 5.02773 3.04496 4.99217 3.06607 4.94995C3.11718 4.82996 3.18384 4.71552 3.26384 4.61219C3.45827 4.35554 3.73159 4.16889 4.04157 4.08C4.1049 4.06334 4.16935 4.05111 4.2349 4.04223C4.26823 4.04223 4.31712 4.03223 4.33156 4.03223H4.416C4.54155 4.03445 4.6671 4.05223 4.78931 4.08334C4.90597 4.11556 5.01708 4.16222 5.12263 4.22222C5.29484 4.32332 5.44594 4.45665 5.56705 4.61553C5.64927 4.7233 5.71926 4.83996 5.77371 4.9644C5.78259 4.98217 5.79037 4.99995 5.79481 5.01884C5.80037 5.03328 5.8037 5.0455 5.80704 5.0555L5.81704 5.0855C5.88037 5.28215 5.77259 5.49325 5.57594 5.55658C5.42817 5.60436 5.26484 5.55547 5.16818 5.43437L5.16929 5.43104Z" fill="#422B0D"/>
  <path d="M10.2055 5.43104L10.1855 5.40659L10.1622 5.37659C10.1533 5.36437 10.1444 5.35437 10.1333 5.34437L10.0644 5.27549C10.0344 5.24438 10.0022 5.21549 9.96887 5.18772C9.89554 5.12439 9.81332 5.07328 9.72444 5.03328C9.63889 4.9955 9.54556 4.97551 9.45223 4.97551C9.49112 4.97551 9.46223 4.97551 9.47112 4.97551H9.40668C9.39557 4.97439 9.38557 4.97439 9.37446 4.97551C9.35446 4.97773 9.33446 4.98106 9.31446 4.98551C9.26891 4.99662 9.22335 5.01106 9.18002 5.02884C9.09003 5.06994 9.00559 5.12328 8.93004 5.18772C8.87004 5.23882 8.81449 5.29327 8.76227 5.35104L8.69894 5.42215L8.66561 5.45992C8.53117 5.61325 8.29896 5.6288 8.14563 5.49548C8.0312 5.39548 7.99009 5.23438 8.0412 5.09106L8.05342 5.0555C8.06342 5.03217 8.0723 4.99662 8.0923 4.9544C8.14563 4.83218 8.21341 4.71774 8.29563 4.61219C8.49006 4.35554 8.76338 4.16889 9.07336 4.08C9.13669 4.06334 9.20113 4.05111 9.26669 4.04223C9.30002 4.04223 9.3489 4.03223 9.36335 4.03223H9.44779C9.57334 4.03445 9.69888 4.05223 9.8211 4.08334C9.93665 4.11667 10.0478 4.16333 10.1522 4.22333C10.3244 4.32332 10.4755 4.45776 10.5966 4.61664C10.6433 4.67663 10.6844 4.73996 10.7222 4.80552C10.7522 4.85774 10.7788 4.91107 10.8033 4.96551C10.8122 4.98328 10.8188 5.00106 10.8244 5.01995C10.8244 5.03439 10.8333 5.04661 10.8366 5.05661L10.8466 5.08661C10.9099 5.28327 10.8022 5.49436 10.6055 5.55769C10.4577 5.60547 10.2944 5.55658 10.1977 5.43548L10.2055 5.43104Z" fill="#422B0D"/>
  <defs>
    <radialGradient id="paint0_radial_2527_6131" cx="0" cy="0" r="1" gradientUnits="userSpaceOnUse" gradientTransform="translate(6.88588 6.21075) scale(6.32852 6.32849)">
      <stop offset="0.5" stop-color="#FDE030"/>
      <stop offset="0.92" stop-color="#F7C02B"/>
      <stop offset="1" stop-color="#F4A223"/>
    </radialGradient>
  </defs>
</svg>