<svg width="16" height="16" viewBox="0 0 16 16" fill="none" xmlns="http://www.w3.org/2000/svg">
<path d="M7.5 3C7.63256 3.00095 7.76015 3.0524 7.85547 3.14453L11.8555 7.14453C11.9476 7.23986 11.999 7.36744 12 7.5V12.5C11.9996 12.6325 11.9472 12.7598 11.8535 12.8535C11.7598 12.9472 11.6325 12.9996 11.5 13H4.5C4.36751 12.9996 4.24017 12.9472 4.14648 12.8535C4.0528 12.7598 4.00038 12.6325 4 12.5V3.5C4.00038 3.36751 4.0528 3.24017 4.14648 3.14648C4.24017 3.0528 4.36751 3.00038 4.5 3H7.5ZM5 4V12H11V7.98535L7.5 8C7.36718 8.00037 7.23911 7.94873 7.14453 7.85547C7.05242 7.76014 7.00097 7.63256 7 7.5V4H5ZM6 1C6.13261 1 6.25975 1.05272 6.35352 1.14648C6.44728 1.24025 6.5 1.36739 6.5 1.5C6.5 1.63261 6.44728 1.75975 6.35352 1.85352C6.25975 1.94728 6.13261 2 6 2H3V10.5C3 10.6326 2.94728 10.7597 2.85352 10.8535C2.75975 10.9473 2.63261 11 2.5 11C2.36739 11 2.24025 10.9473 2.14648 10.8535C2.05272 10.7597 2 10.6326 2 10.5V1.5C2 1.36739 2.05272 1.24025 2.14648 1.14648C2.24025 1.05272 2.36739 1 2.5 1H6ZM8 7L10.2803 6.98535L8 4.70508V7Z" fill="#008184"/>
</svg>
