<svg width="16" height="16" viewBox="0 0 16 16" fill="none" xmlns="http://www.w3.org/2000/svg">
<path d="M7.95533 14.0885C4.8555 14.0885 1.51123 12.1442 1.51123 7.87775C1.51123 3.61133 4.8555 1.66699 7.95533 1.66699C9.67746 1.66699 11.2663 2.23363 12.444 3.2669C13.7217 4.40017 14.3994 6.00008 14.3994 7.87775C14.3994 9.75542 13.7217 11.3442 12.444 12.4775C11.2663 13.5108 9.66635 14.0885 7.95533 14.0885Z" fill="url(#paint0_radial_3036_985)"/>
<path d="M7.95533 14.0885C4.8555 14.0885 1.51123 12.1442 1.51123 7.87775C1.51123 3.61133 4.8555 1.66699 7.95533 1.66699C9.67746 1.66699 11.2663 2.23363 12.444 3.2669C13.7217 4.40017 14.3994 6.00008 14.3994 7.87775C14.3994 9.75542 13.7217 11.3442 12.444 12.4775C11.2663 13.5108 9.66635 14.0885 7.95533 14.0885Z" fill="url(#paint1_linear_3036_985)"/>
<path d="M13.2762 4.18555C13.8684 5.14105 14.1773 6.27876 14.1773 7.54424C14.1773 9.42191 13.4995 11.0107 12.2218 12.144C11.0441 13.1773 9.4442 13.755 7.73318 13.755C5.72662 13.755 3.62228 12.9384 2.38013 11.2063C3.57562 13.1684 5.82439 14.0883 7.95539 14.0883C9.66641 14.0883 11.2663 13.5106 12.444 12.4773C13.7217 11.344 14.3995 9.75523 14.3995 7.87756C14.3995 6.46208 14.014 5.20438 13.2762 4.18555Z" fill="#EB8F00"/>
<path d="M1.5958 9.2323C1.39359 9.47784 1.82357 10.13 1.90023 10.4622C2.08466 11.2644 1.90023 11.4622 1.88579 12.1755C1.87356 12.9599 2.108 13.6198 2.70574 14.0409C3.26793 14.4398 3.94568 14.6442 4.8123 14.3887C5.67892 14.1331 6.20555 13.8509 6.25 13.4243C6.27444 13.2476 6.18111 13.0743 6.0189 12.9987C6.10556 12.9576 6.17445 12.8876 6.21333 12.7999C6.41999 12.3066 6.00779 12.2021 6.00779 12.2021C6.06445 12.1344 6.11223 12.0599 6.15 11.9799C6.27333 11.7344 6.25333 11.4011 5.89779 11.2922C5.73447 11.2422 5.69003 11.2688 5.69003 11.2688C5.85891 11.0955 6.06112 10.9566 6.28444 10.8633C6.88219 10.6067 7.59104 10.4511 7.76769 10.3011C8.02435 10.0789 8.0399 9.65116 7.58659 9.52339C6.93552 9.33229 5.7378 9.77671 5.00895 10.24C4.2801 10.7033 3.61125 10.9533 3.38904 10.8689C3.16683 10.7844 3.02906 10.6467 2.94462 10.3133C2.78796 9.69338 2.66685 9.4534 2.40131 9.22119C2.18132 9.03231 1.75135 9.04342 1.5958 9.2323Z" fill="url(#paint2_radial_3036_985)"/>
<path d="M8.02107 9.82013C7.94663 8.80241 5.94229 9.43127 4.91901 10.1012C3.64686 10.9345 3.4602 10.7867 3.33576 10.709C3.18577 10.6156 3.09133 10.5379 3.018 10.249C2.85246 9.5957 2.8069 9.35572 2.50914 9.09573C2.26026 8.86574 1.5103 8.8713 1.46031 9.23572C1.40587 9.62792 1.62808 9.70125 1.77807 10.4557C1.96361 11.2201 1.88917 12.0644 1.88917 12.0644C1.88917 12.0644 2.23582 11.2589 1.90251 10.0035C1.83473 9.66459 1.51253 9.14573 2.05694 9.20461C2.58358 9.26128 2.61802 9.72014 2.78246 10.3545C2.87357 10.7134 2.96689 10.9245 3.3291 11.0245C3.68908 11.1234 4.52126 10.6612 5.119 10.2812C5.85118 9.81569 6.93668 9.40905 7.50665 9.5757C7.75331 9.62903 7.91774 9.9479 7.65887 10.1734C7.24778 10.5612 5.66675 10.7356 4.71458 11.7656C4.71458 11.7656 4.83013 11.8078 5.00345 11.7222C5.17789 11.6367 5.82896 11.3145 5.82896 11.3145C6.0234 11.3967 6.11673 11.72 6.01118 11.8922C5.84007 12.1711 5.17455 12.5566 4.84235 12.54C4.84235 12.54 4.83679 12.71 5.17011 12.6644C5.27566 12.65 5.7123 12.5544 6.01784 12.3178C6.24561 12.4822 6.18117 12.7622 6.01007 12.9644C5.84007 13.1655 5.42454 13.4255 4.99679 13.471C4.99679 13.471 4.95457 13.6332 5.24233 13.6299C5.53009 13.6266 5.8423 13.4799 6.07228 13.301C6.10673 13.3555 6.13895 13.4744 6.10006 13.6377C6.04006 13.8899 5.70119 14.1454 5.04678 14.2877C4.44348 14.4188 3.76352 14.511 2.45137 13.8299C2.45137 13.8299 2.94134 14.4665 4.22016 14.5799C5.44676 14.6887 6.87891 14.1454 6.30449 13.0555C6.30449 13.0555 6.42893 12.8711 6.44449 12.6178C6.4556 12.4444 6.40116 12.2078 6.27338 12.1C6.39338 11.7467 6.3556 11.5023 6.27894 11.3578C6.22783 11.2623 6.09895 11.1689 6.09895 11.1689C6.09895 11.1689 6.35338 10.939 7.10334 10.7456C7.58443 10.6201 8.06662 10.4423 8.02107 9.82013Z" fill="#EB8F00"/>
<path d="M2.95983 10.0137C2.95983 10.0137 3.49647 10.887 4.67862 10.2537C4.67862 10.2537 3.95311 11.0147 3.38869 10.8692C2.82428 10.7236 2.95983 10.0137 2.95983 10.0137Z" fill="#EB8F00"/>
<path d="M6.33333 11.5042C6.33333 11.5042 6.60665 10.9176 7.1044 10.7432C7.1044 10.7432 6.29555 10.812 5.98779 11.1443L6.33333 11.5042Z" fill="#EB8F00"/>
<path d="M9.42918 8.81273C9.39362 8.80606 9.36029 8.79162 9.33252 8.76829C8.83143 8.36609 8.23369 8.10388 7.59928 8.00611C6.96486 7.89611 6.31379 7.95611 5.71049 8.17943C5.67715 8.19276 5.6416 8.19721 5.60605 8.19165C5.52827 8.17832 5.46494 8.12054 5.44383 8.04388C5.42272 7.96833 5.44828 7.88834 5.50828 7.83834C6.68599 6.86062 8.43256 7.02283 9.41029 8.20054C9.49029 8.2972 9.56362 8.39942 9.63028 8.50497C9.6725 8.57052 9.6725 8.65496 9.63028 8.72051C9.58695 8.78828 9.50806 8.82384 9.42918 8.81273Z" fill="#422B0D"/>
<path d="M9.86272 4.3457C10.3282 4.3457 10.7516 4.73901 10.7516 5.39231C10.7516 6.04561 10.3282 6.4378 9.86272 6.4378C9.39719 6.4378 8.97388 6.04449 8.97388 5.39231C8.97388 4.74012 9.39719 4.3457 9.86272 4.3457Z" fill="#422B0D"/>
<path d="M6.01506 3.33398C5.54953 3.33398 5.12622 3.7273 5.12622 4.37948C5.12622 5.03166 5.54953 5.42609 6.01506 5.42609C6.4817 5.42609 6.9039 5.03278 6.9039 4.37948C6.9039 3.72618 6.4817 3.33398 6.01506 3.33398Z" fill="#422B0D"/>
<path d="M5.3031 2.06995C5.25311 1.98774 5.24644 1.88552 5.28533 1.79775C5.32755 1.70997 5.41088 1.64998 5.50754 1.63776C6.11306 1.54332 6.73081 1.68664 7.233 2.03662C7.42077 2.1655 7.58743 2.32105 7.72853 2.49993C7.73742 2.51104 7.7452 2.52326 7.75297 2.53659C7.82852 2.65436 7.80297 2.80991 7.69409 2.89768C7.57743 2.99435 7.40633 2.99101 7.29411 2.8888L7.34077 2.81324L7.28411 2.87991C6.79747 2.47326 6.18861 2.24106 5.55531 2.22217C5.44976 2.22217 5.35199 2.16662 5.29866 2.07551L5.3031 2.06995Z" fill="#422B0D"/>
<path d="M11.2213 4.05778C11.3035 4.01223 11.3591 3.9289 11.3702 3.83557C11.3768 3.73891 11.3357 3.64558 11.2591 3.5867C10.778 3.20339 10.1669 3.02006 9.55472 3.07784C9.32807 3.09673 9.10586 3.15006 8.89476 3.23561L8.85476 3.25449C8.73143 3.32005 8.67699 3.46782 8.7281 3.59781C8.78254 3.73891 8.93031 3.81891 9.07808 3.78669V3.6978L9.09364 3.78446C9.71583 3.66891 10.3591 3.76558 10.9202 4.05889C11.0124 4.11111 11.1246 4.11111 11.2169 4.05889L11.2213 4.05778Z" fill="#422B0D"/>
<path d="M5.99501 3.68464C5.88057 3.60464 5.70836 3.63019 5.59725 3.79018C5.48615 3.95129 5.52281 4.12017 5.63725 4.20016C5.75169 4.28016 5.9239 4.2546 6.03501 4.09461C6.14611 3.93351 6.10945 3.76463 5.99501 3.68464Z" fill="#896024"/>
<path d="M9.83998 4.63581C9.72554 4.55581 9.55333 4.58137 9.44223 4.74136C9.33112 4.90246 9.36779 5.07134 9.48222 5.15133C9.59666 5.23133 9.76888 5.20577 9.87998 5.04578C9.9922 4.88468 9.95553 4.7158 9.83998 4.63581Z" fill="#896024"/>
<defs>
<radialGradient id="paint0_radial_3036_985" cx="0" cy="0" r="1" gradientUnits="userSpaceOnUse" gradientTransform="translate(7.95533 7.87775) scale(6.32852 6.32849)">
<stop offset="0.5" stop-color="#FDE030"/>
<stop offset="0.92" stop-color="#F7C02B"/>
<stop offset="1" stop-color="#F4A223"/>
</radialGradient>
<linearGradient id="paint1_linear_3036_985" x1="7.95533" y1="14.0885" x2="7.95533" y2="1.66699" gradientUnits="userSpaceOnUse">
<stop stop-color="#F4A223"/>
<stop offset="0.08" stop-color="#F7C02B"/>
<stop offset="0.54" stop-color="#FDE030" stop-opacity="0"/>
</linearGradient>
<radialGradient id="paint2_radial_3036_985" cx="0" cy="0" r="1" gradientUnits="userSpaceOnUse" gradientTransform="translate(5.49448 10.1672) scale(6.60319 6.20698)">
<stop offset="0.27" stop-color="#FFF176"/>
<stop offset="1" stop-color="#FFC400"/>
</radialGradient>
</defs>
</svg>
