<svg width="16" height="16" viewBox="0 0 16 16" fill="none" xmlns="http://www.w3.org/2000/svg">
<path d="M1.71637 14.5869C1.96862 14.8602 3.00764 14.3835 3.82774 14.0012C4.44226 13.7156 6.90146 12.7066 8.12384 12.1832C8.45388 12.0421 8.93394 11.8576 9.27953 11.4031C9.58624 10.9986 10.3997 9.28064 8.76169 7.54043C7.09926 5.77354 5.38683 6.26138 4.74675 6.71477C4.37003 6.98147 4.06333 7.58265 3.92553 7.88825C3.34324 9.17952 2.51313 11.5454 2.17531 12.4755C1.92751 13.1611 1.46634 14.3157 1.71637 14.5869Z" fill="#FFC107"/>
<path d="M3.76111 8.27734C3.77667 8.4707 3.81556 8.78519 3.94888 9.39082C4.03999 9.80643 4.18887 10.242 4.30997 10.5298C4.67329 11.3955 5.18326 11.7444 5.6999 12.0245C6.57763 12.5001 7.17427 12.589 7.17427 12.589L6.45875 12.8813C6.45875 12.8813 6.02544 12.7912 5.43436 12.5001C4.87106 12.2223 4.28442 11.7522 3.85555 10.8321C3.67001 10.4332 3.56224 10.0465 3.50002 9.73975C3.42335 9.3597 3.41113 9.14412 3.41113 9.14412L3.76111 8.27734Z" fill="#FF8F00"/>
<path d="M2.88196 10.5312C2.88196 10.5312 2.97084 11.2523 3.56637 12.1623C4.26411 13.2267 5.2385 13.4011 5.2385 13.4011L4.59076 13.6678C4.59076 13.6678 3.86746 13.4467 3.17972 12.5078C2.75085 11.9223 2.63086 11.2223 2.63086 11.2223L2.88196 10.5312Z" fill="#FF8F00"/>
<path d="M2.26514 12.2402C2.26514 12.2402 2.42735 12.8624 2.78289 13.3268C3.2062 13.8813 3.74506 14.0424 3.74506 14.0424L3.24842 14.2624C3.24842 14.2624 2.87177 14.1835 2.45957 13.6613C2.14626 13.2646 2.05737 12.8091 2.05737 12.8091L2.26514 12.2402Z" fill="#FF8F00"/>
<g opacity="0.44">
<path opacity="0.44" d="M1.99553 13.8201C1.97331 13.7701 1.97331 13.7134 1.99664 13.6645L4.82649 7.79492L5.29203 9.54514L2.31441 13.8468C2.23441 13.9668 2.05442 13.9513 1.99553 13.8201Z" fill="#FFFDE7"/>
</g>
<path d="M5.51712 10.1331C6.83951 11.68 8.34525 11.4866 8.84643 11.0954C9.34871 10.7032 9.74543 9.35522 8.4286 7.83392C7.04842 6.24039 5.48601 6.69489 5.12485 7.03938C4.76369 7.38387 4.30364 8.71403 5.51712 10.1331Z" fill="url(#paint0_linear_2537_13918)"/>
<path d="M10.0585 10.7693C9.57624 10.3649 9.31954 10.4371 8.97505 10.5805C8.53055 10.7649 7.83158 10.9016 6.88257 10.5805L7.16816 9.89272C7.73156 10.0827 8.13939 9.99049 8.49166 9.78272C8.94505 9.51607 9.56513 9.15053 10.5297 9.96049C10.932 10.2983 11.3442 10.5227 11.6465 10.4205C11.8665 10.3471 11.9832 10.0194 12.0421 9.75828C12.0477 9.73495 12.0565 9.66828 12.0632 9.6094C12.1166 9.20164 12.2055 8.32169 12.8611 7.87171C13.5623 7.39063 14.2991 7.39062 14.2991 7.39062L14.4324 8.715C14.0935 8.665 13.8579 8.73389 13.659 8.84388C12.91 9.26053 13.5623 10.8604 12.3966 11.3982C11.2753 11.9193 10.3586 11.0204 10.0585 10.7693Z" fill="#03A9F4"/>
<path d="M5.93267 9.08065L5.45047 8.64837C6.33598 7.65936 6.10266 6.9326 5.93267 6.40365C5.89823 6.29697 5.86601 6.19584 5.8449 6.09916C5.76935 5.7569 5.75379 5.45908 5.77712 5.19905C5.43714 4.77566 5.28715 4.33227 5.27715 4.30227C5.07049 3.67664 5.22604 3.06656 5.58269 2.49426C6.30376 1.33301 7.60925 1.33301 7.60925 1.33301L8.04478 2.49871C7.71369 2.48537 6.62819 2.50204 6.29487 3.02767C5.87379 3.68997 6.15044 4.09891 6.17044 4.14558C6.25154 4.04001 6.33376 3.95556 6.40709 3.89C6.93928 3.41771 7.40148 3.34993 7.69591 3.3766C8.02701 3.4066 8.32699 3.57329 8.54142 3.84666C8.77585 4.1467 8.87252 4.53674 8.79808 4.89123C8.72586 5.23683 8.49587 5.52909 8.15033 5.71467C7.54703 6.03916 7.04484 5.9947 6.70819 5.88247C6.71041 5.89025 6.71152 5.89914 6.71374 5.90692C6.72596 5.96248 6.75041 6.04027 6.77929 6.13028C6.97595 6.73924 7.34149 7.70603 5.93267 9.08065ZM6.7493 4.91012C6.81374 4.9568 6.88151 4.99569 6.95151 5.02347C7.18483 5.11682 7.43926 5.0857 7.72813 4.93013C7.89812 4.839 7.91812 4.74121 7.92479 4.70899C7.94479 4.61231 7.91146 4.48896 7.83924 4.39673C7.77591 4.3156 7.70258 4.27338 7.61481 4.26449C7.44815 4.25004 7.2226 4.35561 6.99706 4.55675C6.88929 4.65343 6.80707 4.77233 6.7493 4.91012Z" fill="#F44336"/>
<path d="M7.8644 9.26121L7.17432 9.24232C7.17432 9.24232 7.50213 7.39098 8.56338 7.07983C8.76229 7.02204 8.9801 6.96315 9.19901 6.93092C9.32903 6.91092 9.53461 6.88092 9.63574 6.84313C9.65907 6.66867 9.58573 6.44642 9.5035 6.19416C9.43904 5.99858 9.37237 5.79745 9.33681 5.57742C9.26791 5.14848 9.38237 4.76954 9.65907 4.5084C9.99689 4.19169 10.5425 4.09056 11.1581 4.23058C11.5093 4.31059 11.7682 4.48284 11.996 4.63397C12.3216 4.85066 12.5117 4.96067 12.9095 4.69286C13.3906 4.36838 12.7617 3.09822 12.4272 2.36479L13.6751 1.84473C13.8429 2.21144 14.653 4.09834 14.1185 5.17515C13.9385 5.53741 13.6285 5.77744 13.2217 5.86746C12.3372 6.06526 11.8193 5.72077 11.4415 5.46963C11.2626 5.35072 11.1059 5.25738 10.9359 5.20848C9.75464 4.87177 11.4037 6.60977 10.6314 7.39098C10.168 7.85882 9.03566 7.98217 8.96232 7.99995C8.23334 8.17552 7.8644 9.26121 7.8644 9.26121Z" fill="#F48FB1"/>
<path d="M5.77735 5.19922C5.75624 5.44365 5.74624 5.5892 5.80957 5.90696C6.11511 6.13139 6.78063 6.13139 6.78063 6.13139C6.75175 6.0414 6.72619 5.96362 6.71508 5.90807C6.71286 5.90029 6.71175 5.8914 6.70953 5.88363C6.03289 5.54587 5.77735 5.19922 5.77735 5.19922Z" fill="#C92B27"/>
<path d="M4.39272 6.29325L3.2439 5.72994L3.81609 4.90332L4.71715 5.49996L4.39272 6.29325Z" fill="#FFC107"/>
<path d="M2.69818 4.73278C2.11154 4.6539 1.51379 4.15615 1.44824 4.09948L2.02488 3.42285C2.19931 3.57062 2.56929 3.81839 2.81706 3.85172L2.69818 4.73278Z" fill="#FB8C00"/>
<path d="M3.73405 3.25204L2.88965 2.97539C2.98631 2.67985 3.01186 2.36097 2.96187 2.05321L3.8396 1.91211C3.91182 2.35875 3.87515 2.82206 3.73405 3.25204Z" fill="#03A9F4"/>
<path d="M9.87734 2.40185L9.00903 2.5918L9.25976 3.73797L10.1281 3.54802L9.87734 2.40185Z" fill="#FB8C00"/>
<path d="M11.1631 2.86263L10.552 2.2171C10.872 1.91379 10.9453 1.51714 10.9453 1.5127L11.823 1.65602C11.8119 1.72602 11.6997 2.35487 11.1631 2.86263Z" fill="#FFC107"/>
<path d="M12.2782 6.0445L11.502 6.28711L11.7671 7.13551L12.5434 6.8929L12.2782 6.0445Z" fill="#FB8C00"/>
<path d="M11.7284 13.4486L10.8451 13.3442C10.8829 13.0298 10.6484 12.6442 10.584 12.5587L11.2951 12.0254C11.3484 12.0954 11.8117 12.7365 11.7284 13.4486Z" fill="#F44336"/>
<path d="M14.264 12.3215C13.9318 12.2715 13.5919 12.2515 13.2563 12.2637L13.2263 11.3748C13.6163 11.3615 14.0107 11.3837 14.3963 11.4426L14.264 12.3215Z" fill="#FB8C00"/>
<path d="M13.6941 12.9134L13.0696 13.5459L13.929 14.3944L14.5535 13.7619L13.6941 12.9134Z" fill="#F48FB1"/>
<path d="M11.8763 8.66004L11.2341 7.92578L10.4999 8.56796L11.142 9.30222L11.8763 8.66004Z" fill="#F44336"/>
<defs>
<linearGradient id="paint0_linear_2537_13918" x1="9.15472" y1="7.76041" x2="5.84683" y2="9.74515" gradientUnits="userSpaceOnUse">
<stop offset="0.0235" stop-color="#8F4700"/>
<stop offset="1" stop-color="#703E2D"/>
</linearGradient>
</defs>
</svg>
