<svg width="16" height="16" viewBox="0 0 16 16" fill="none" xmlns="http://www.w3.org/2000/svg">
<path d="M13.2537 13.038C13.157 12.8369 12.937 12.7269 12.7182 12.7702L12.6071 12.7824H12.5782C12.1582 12.7824 11.9738 12.6713 11.846 12.3591C11.6515 11.8847 11.8115 11.1881 11.9738 10.6348C12.3071 9.49707 12.7626 7.9405 12.7515 6.41281C12.7504 6.12949 12.7337 5.84728 12.6993 5.56619C12.6448 5.11844 12.5393 4.67735 12.386 4.25293C12.4271 6.38614 12.0249 9.10932 10.1883 10.9981C8.7217 12.5069 6.22184 13.3857 5.21411 13.2202C6.38072 14.4657 8.05507 15.1068 9.75498 14.9579C11.2638 14.8357 13.0248 14.2235 13.2759 13.5346C13.3359 13.3724 13.327 13.1935 13.2537 13.038Z" fill="#E0E0E0"/>
<path d="M3.95852 5.76086C3.313 5.68531 2.64414 5.37977 2.40304 4.76869C2.21305 4.29427 2.05084 3.58654 1.49643 3.67098C0.807574 3.77653 0.968676 5.16422 1.12978 5.69975C1.78419 7.8774 3.9163 8.22072 3.95074 8.1685C3.98518 8.11628 4.11851 5.75864 3.95852 5.76086Z" fill="#E0E0E0"/>
<path d="M3.95831 5.76105C3.60721 5.72438 3.26945 5.61106 2.96836 5.42773C3.0428 5.71438 3.01169 6.0177 2.87947 6.28324C2.63393 6.83876 1.95508 7.13653 1.95508 7.13653C2.81948 8.03981 3.92608 8.20757 3.95497 8.1698C3.99941 8.1098 4.1183 5.75883 3.95831 5.76105Z" fill="#CCCCCC"/>
<path d="M12.0402 5.76086C12.6857 5.68531 13.3546 5.37977 13.5957 4.76869C13.7857 4.29427 13.9479 3.58654 14.5023 3.67098C15.1878 3.77542 15.0267 5.16422 14.8656 5.69975C14.2112 7.8774 12.0791 8.22183 12.0446 8.1685C12.0102 8.11517 11.8802 5.75864 12.0402 5.76086Z" fill="#E0E0E0"/>
<path d="M14.2336 6.22844C13.8136 6.69175 12.8514 7.13395 11.9692 7.19839C11.9726 7.52281 11.997 7.84724 12.0403 8.16944C12.0759 8.22166 14.2069 7.87835 14.8613 5.7007C14.9746 5.29516 15.0191 4.87408 14.9913 4.4541C14.928 5.10962 14.6624 5.72958 14.2336 6.22844Z" fill="#CCCCCC"/>
<path d="M12.757 6.41038C12.7559 6.12706 12.7392 5.84485 12.7048 5.56376C12.4826 3.7472 11.456 2.16951 10.0249 1.44399C9.37719 1.10846 8.64723 0.967355 7.92171 1.03846C6.41401 1.19845 5.06853 2.05396 4.28524 3.35166C2.31423 6.64814 3.57639 10.6357 3.9097 11.3134C5.61405 14.7766 8.36724 15.0721 9.75606 14.9599C11.2649 14.8377 13.0259 14.2255 13.277 13.5366C13.3359 13.3744 13.3281 13.1955 13.2548 13.0389C13.1581 12.8378 12.9381 12.7278 12.7192 12.7711L12.6081 12.7833H12.5792C12.1593 12.7833 11.9748 12.6722 11.8471 12.36C11.6526 11.8856 11.8126 11.189 11.9748 10.6357C12.3081 9.5002 12.7648 7.94362 12.757 6.41038Z" fill="#E0E0E0"/>
<path d="M13.2539 13.038C13.1573 12.8369 12.9373 12.7269 12.7184 12.7702L12.6073 12.7824H12.5784C12.1584 12.7824 11.974 12.6713 11.8462 12.3591C11.6518 11.8847 11.8118 11.1881 11.974 10.6348C12.3073 9.49707 12.7628 7.9405 12.7517 6.41281C12.7506 6.12949 12.734 5.84728 12.6995 5.56619C12.6451 5.11844 12.5395 4.67735 12.3862 4.25293C12.4273 6.38614 12.0251 9.10932 10.1885 10.9981C8.72195 12.5069 6.22208 13.3857 5.21436 13.2202C6.38096 14.4657 8.05532 15.1068 9.75523 14.9579C11.264 14.8357 13.0251 14.2235 13.2761 13.5346C13.3361 13.3724 13.3273 13.1935 13.2539 13.038Z" fill="#CCCCCC"/>
<path d="M7.74096 6.87137C6.79546 6.87693 5.85106 6.79693 4.92 6.63361C4.76223 6.60695 4.61335 6.71249 4.58669 6.87026C4.58113 6.90248 4.58113 6.9347 4.58669 6.96692C4.85556 8.2824 6.14994 9.36234 7.7443 9.36234C9.48754 9.36234 10.6619 8.2513 10.9052 6.96248C10.933 6.80582 10.8286 6.65694 10.6719 6.62917C10.6386 6.62361 10.6053 6.62361 10.5719 6.62917C9.63753 6.79471 8.6898 6.87582 7.74096 6.87137Z" fill="url(#paint0_linear_2537_14037)"/>
<path d="M7.96379 7.24675H7.74158H7.63825C7.16606 7.24675 6.70275 7.22342 6.2561 7.18676V9.20886C6.25721 9.98771 6.88718 10.6188 7.66603 10.6199H7.9349C8.71486 10.6199 9.34594 9.98882 9.34705 9.20886V7.17676C8.90041 7.21787 8.43599 7.2412 7.96379 7.24675Z" fill="url(#paint1_linear_2537_14037)"/>
<path opacity="0.3" d="M7.79954 8.99488C7.88954 8.99599 7.96287 8.92266 7.96398 8.83267V8.83156V7.24609H7.74177H7.63844V8.82934C7.63733 8.91933 7.70955 8.99377 7.79954 8.99488Z" fill="#AB3F2E"/>
<path d="M9.2414 5.95007C9.95626 5.95007 10.5358 5.37056 10.5358 4.6557C10.5358 3.94084 9.95626 3.36133 9.2414 3.36133C8.52653 3.36133 7.94702 3.94084 7.94702 4.6557C7.94702 5.37056 8.52653 5.95007 9.2414 5.95007Z" fill="white"/>
<path d="M9.29674 5.21964C9.60355 5.21964 9.85226 4.96695 9.85226 4.65523C9.85226 4.34352 9.60355 4.09082 9.29674 4.09082C8.98993 4.09082 8.74121 4.34352 8.74121 4.65523C8.74121 4.96695 8.98993 5.21964 9.29674 5.21964Z" fill="#422B0D"/>
<path d="M7.01401 4.88431L7.0029 4.86653C6.99068 4.84653 6.97735 4.82653 6.96291 4.80765C6.91402 4.7432 6.86069 4.6821 6.80291 4.62543C6.72514 4.55099 6.64181 4.481 6.55515 4.41767C6.50738 4.38322 6.45738 4.34656 6.40516 4.31323C6.35294 4.2799 6.30072 4.24879 6.24294 4.21435C6.18517 4.1799 6.13184 4.15546 6.07851 4.12768C6.02518 4.09991 5.9674 4.07658 5.91185 4.05213C5.81075 4.00769 5.70742 3.97103 5.60076 3.94103C5.52298 3.91992 5.44299 3.90547 5.36299 3.89659H5.29188H5.26633C5.16522 3.89325 5.0819 3.97214 5.07745 4.07213C5.07412 4.15324 5.12634 4.22657 5.20411 4.25212L5.22411 4.25879L5.28855 4.2799C5.33077 4.29434 5.39188 4.31656 5.46743 4.34878C5.54298 4.381 5.62964 4.421 5.72297 4.46655L5.8663 4.54099C5.91518 4.56655 5.96185 4.5921 6.01518 4.62321L6.04518 4.64099L5.94518 4.65099C5.9063 4.65765 5.88852 4.65988 5.85185 4.66765C5.81519 4.67543 5.78408 4.68099 5.75408 4.68876C5.69186 4.70432 5.63187 4.72432 5.57187 4.74654C5.4641 4.78653 5.36188 4.83987 5.26744 4.90431C5.22855 4.93097 5.19189 4.96097 5.15634 4.99208C5.12856 5.01652 5.10189 5.04319 5.07745 5.07096C5.05634 5.0943 5.0419 5.11429 5.03079 5.12763L5.01523 5.14874C4.95524 5.22984 4.9719 5.34317 5.05301 5.40317C5.11745 5.45094 5.20633 5.45094 5.27077 5.40317L5.29077 5.38872L5.30411 5.37872L5.34077 5.35206C5.38743 5.32095 5.43632 5.29206 5.48743 5.26762C5.56298 5.23207 5.64187 5.20207 5.72186 5.17762C5.7663 5.16429 5.81408 5.15318 5.86297 5.14207C5.88741 5.1354 5.91074 5.13207 5.93296 5.12763C5.95518 5.12318 5.99296 5.11874 6.01185 5.11541C6.10962 5.10207 6.2085 5.09541 6.30739 5.09541C6.39071 5.09652 6.47515 5.10429 6.55737 5.11874C6.59293 5.1254 6.62515 5.13096 6.65181 5.13874C6.67514 5.14429 6.69737 5.15096 6.71959 5.15874L6.74181 5.16429L6.76514 5.17429L6.78403 5.18318C6.85958 5.2154 6.94735 5.19429 6.99957 5.13096C7.02513 5.09985 7.03957 5.05985 7.03957 5.01986C7.04846 4.97319 7.03957 4.9243 7.01401 4.88431Z" fill="#422B0D"/>
<defs>
<linearGradient id="paint0_linear_2537_14037" x1="7.74612" y1="9.3679" x2="7.74612" y2="6.63036" gradientUnits="userSpaceOnUse">
<stop stop-color="#404040"/>
<stop offset="0.12" stop-color="#3E3A35"/>
<stop offset="0.44" stop-color="#392D1E"/>
<stop offset="0.74" stop-color="#362510"/>
<stop offset="1" stop-color="#35220B"/>
</linearGradient>
<linearGradient id="paint1_linear_2537_14037" x1="7.80158" y1="10.6199" x2="7.80158" y2="7.17676" gradientUnits="userSpaceOnUse">
<stop stop-color="#FF4081"/>
<stop offset="0.28" stop-color="#FB3D80"/>
<stop offset="0.55" stop-color="#EF337D"/>
<stop offset="0.82" stop-color="#DB2378"/>
<stop offset="1" stop-color="#CA1573"/>
</linearGradient>
</defs>
</svg>
