<svg width="16" height="16" viewBox="0 0 16 16" fill="none" xmlns="http://www.w3.org/2000/svg">
<path d="M7.9131 14.0865C4.81326 14.0865 1.46899 12.1422 1.46899 7.87579C1.46899 3.60937 4.81326 1.66504 7.9131 1.66504C9.63523 1.66504 11.224 2.23167 12.4017 3.26495C13.6795 4.39822 14.3572 5.99812 14.3572 7.87579C14.3572 9.75346 13.6795 11.3423 12.4017 12.4755C11.2218 13.5088 9.62412 14.0865 7.9131 14.0865Z" fill="url(#paint0_radial_3036_918)"/>
<path d="M5.77751 5.43555C5.31198 5.43555 4.88867 5.82886 4.88867 6.48215C4.88867 7.13545 5.31198 7.52765 5.77751 7.52765C6.24416 7.52765 6.66636 7.13434 6.66636 6.48215C6.66636 5.82997 6.2486 5.43555 5.77751 5.43555Z" fill="#422B0D"/>
<path d="M5.73883 5.87293C5.58107 5.79738 5.39108 5.86404 5.31441 6.02181C5.25553 6.14514 5.28219 6.29291 5.38108 6.38846C5.53885 6.46401 5.72883 6.39735 5.8055 6.23958C5.86438 6.11625 5.83772 5.96848 5.73883 5.87293Z" fill="#896024"/>
<path d="M10.0441 5.43555C9.57858 5.43555 9.15527 5.82886 9.15527 6.48215C9.15527 7.13545 9.57858 7.52765 10.0441 7.52765C10.5096 7.52765 10.933 7.13434 10.933 6.48215C10.933 5.82997 10.5096 5.43555 10.0441 5.43555Z" fill="#422B0D"/>
<path d="M9.99982 5.87293C9.84205 5.79738 9.65206 5.86404 9.5754 6.02181C9.51651 6.14514 9.54318 6.29291 9.64206 6.38846C9.79983 6.46401 9.98982 6.39735 10.0665 6.23958C10.1254 6.11625 10.0987 5.96848 9.99982 5.87293Z" fill="#896024"/>
<path d="M13.2762 4.18457C13.8684 5.14007 14.1773 6.27778 14.1773 7.54327C14.1773 9.42094 13.4995 11.0097 12.2218 12.143C11.0441 13.1763 9.4442 13.754 7.73318 13.754C5.72662 13.754 3.62228 12.9374 2.38013 11.2053C3.57562 13.1674 5.82439 14.0873 7.95539 14.0873C9.66641 14.0873 11.2663 13.5096 12.444 12.4763C13.7217 11.343 14.3995 9.75425 14.3995 7.87658C14.3995 6.46111 14.014 5.2034 13.2762 4.18457Z" fill="#EB8F00"/>
<path d="M12.2298 8.84584C12.0743 8.56474 11.7365 8.44142 11.4365 8.55474C10.2966 8.88695 9.11444 9.05249 7.92672 9.04694C6.73901 9.05249 5.55685 8.88695 4.41691 8.55474C4.11803 8.44142 3.78028 8.56363 3.62473 8.84361C3.47362 9.12249 3.58251 9.4458 3.71028 9.72467C4.42357 11.2913 5.99571 12.229 7.91783 12.2345H7.93561C9.85773 12.2345 11.4299 11.2913 12.1443 9.72467C12.2709 9.44358 12.3809 9.12471 12.2298 8.84584Z" fill="#422B0D"/>
<path d="M9.70531 11.7908C9.6642 11.753 9.62198 11.7186 9.57976 11.6797C9.12645 11.2808 8.53981 11.0664 7.9354 11.0786C7.31321 11.0686 6.70769 11.2753 6.22216 11.6641C6.17994 11.6986 6.1355 11.7319 6.09439 11.7752C6.05328 11.8186 6.03106 11.8497 6.00439 11.8864C6.61547 12.1252 7.26655 12.2474 7.92318 12.2441H7.94096C8.56981 12.2441 9.19311 12.1319 9.78197 11.9108C9.75975 11.8686 9.7342 11.8286 9.70531 11.7908Z" fill="#ED7770"/>
<path d="M11.4366 8.55521C10.2967 8.88741 9.11455 9.05296 7.92683 9.04741C6.73912 9.05296 5.55696 8.88741 4.41702 8.55521C4.11815 8.44188 3.78039 8.5641 3.62484 8.84408C3.60262 8.8863 3.58484 8.93075 3.57373 8.9763C3.6104 8.99519 3.65262 9.01407 3.70261 9.03407C5.04032 9.70403 6.51913 10.044 8.01461 10.0262C9.44897 10.0429 10.8667 9.7307 12.1622 9.11518C12.2144 9.09296 12.2577 9.07185 12.2966 9.05185C12.2877 8.97963 12.2644 8.90852 12.2299 8.84408C12.0744 8.5641 11.7366 8.44077 11.4366 8.55521Z" fill="white"/>
<path d="M12.2343 8.84695C12.0765 8.56585 11.7376 8.44142 11.4354 8.55474C10.2955 8.88695 9.11332 9.05249 7.92672 9.04694C6.73901 9.05249 5.55685 8.88695 4.41691 8.55474C4.11803 8.44142 3.78028 8.56363 3.62473 8.84361C3.47362 9.12249 3.58251 9.4458 3.71028 9.72467C3.76694 9.85022 3.83027 9.97355 3.90027 10.0924C3.90027 10.0924 3.66695 9.22804 3.86916 8.97694C3.93804 8.87028 4.05359 8.80362 4.18025 8.79695C4.23247 8.79695 4.28358 8.80584 4.33358 8.82139C5.49352 9.16249 6.69679 9.3347 7.90672 9.33248H7.94561C9.15554 9.3347 10.3588 9.16249 11.5188 8.82139C11.5687 8.80584 11.6199 8.79695 11.6721 8.79695C11.7987 8.80362 11.9154 8.87028 11.9843 8.97694C12.1898 9.22804 11.9532 10.0958 11.9532 10.0958C12.0221 9.97688 12.0909 9.85467 12.1487 9.72801C12.2754 9.44913 12.3854 9.12693 12.2343 8.84695Z" fill="#EB8F00"/>
<defs>
<radialGradient id="paint0_radial_3036_918" cx="0" cy="0" r="1" gradientUnits="userSpaceOnUse" gradientTransform="translate(7.9131 7.87579) scale(6.32852 6.32849)">
<stop offset="0.5" stop-color="#FDE030"/>
<stop offset="0.92" stop-color="#F7C02B"/>
<stop offset="1" stop-color="#F4A223"/>
</radialGradient>
</defs>
</svg>
