<svg width="16" height="16" viewBox="0 0 16 16" fill="none" xmlns="http://www.w3.org/2000/svg">
<path d="M7.95509 14.0865C4.85525 14.0865 1.51099 12.1422 1.51099 7.87579C1.51099 3.60937 4.85525 1.66504 7.95509 1.66504C9.67722 1.66504 11.266 2.23167 12.4437 3.26495C13.7214 4.39822 14.3992 5.99812 14.3992 7.87579C14.3992 9.75346 13.7214 11.3423 12.4437 12.4755C11.266 13.5088 9.66611 14.0865 7.95509 14.0865Z" fill="url(#paint0_radial_3036_1017)"/>
<path d="M13.276 4.18457C13.8682 5.14007 14.177 6.27778 14.177 7.54327C14.177 9.42094 13.4993 11.0097 12.2216 12.143C11.0439 13.1763 9.44395 13.754 7.73293 13.754C5.72637 13.754 3.62204 12.9374 2.37988 11.2053C3.57537 13.1674 5.82414 14.0873 7.95514 14.0873C9.66616 14.0873 11.2661 13.5096 12.4438 12.4763C13.7215 11.343 14.3992 9.75425 14.3992 7.87658C14.3992 6.46111 14.0137 5.2034 13.276 4.18457Z" fill="#EB8F00"/>
<path d="M7.99966 12.109C7.05082 12.109 6.37419 11.4101 6.16976 11.0223C6.09199 10.8912 6.07754 10.7313 6.12865 10.5879C6.15976 10.5024 6.24198 10.4446 6.33308 10.4424C6.36419 10.4435 6.39419 10.449 6.42308 10.4602C6.90083 10.6479 7.3197 10.9201 8.00522 10.9201C8.69074 10.9201 9.11627 10.6479 9.58736 10.4602C9.61624 10.449 9.64624 10.4424 9.67735 10.4424C9.76735 10.4468 9.84512 10.5035 9.87623 10.5879C9.92734 10.7313 9.91289 10.8912 9.83512 11.0223C9.62513 11.4101 8.9485 12.109 7.99966 12.109Z" fill="#422B0D"/>
<path d="M6.38972 6.92702L6.3675 6.94924C6.34973 6.96924 6.33084 6.98813 6.31084 7.00479L6.23418 7.06812C6.20196 7.09256 6.16529 7.11923 6.12307 7.14589C6.08085 7.17256 6.03752 7.19811 5.98974 7.22256C5.94086 7.247 5.88975 7.26811 5.83753 7.28589C5.78309 7.30255 5.72754 7.31589 5.67087 7.327C5.6131 7.33588 5.55532 7.34033 5.49644 7.34033H5.44422C5.41533 7.34033 5.40978 7.34033 5.39867 7.34033L5.32089 7.33033C5.26423 7.31922 5.20868 7.30589 5.15423 7.28922C5.1009 7.26922 5.04979 7.24589 4.9998 7.21922C4.95202 7.19478 4.90758 7.16812 4.86647 7.14256C4.80092 7.09923 4.73981 7.05034 4.68204 6.99701L4.61204 6.93257L4.58426 6.9048C4.44205 6.7748 4.22762 6.76703 4.07651 6.88591C3.96652 6.97035 3.92985 7.12145 3.98985 7.247L4.00652 7.28033C4.02096 7.31255 4.03763 7.34366 4.0554 7.37366C4.16984 7.56476 4.32539 7.72808 4.50982 7.85363C4.5976 7.91474 4.69092 7.96696 4.7887 8.00918C4.89647 8.05695 5.00757 8.09362 5.12201 8.12028C5.18312 8.13139 5.23978 8.1425 5.31423 8.14917C5.34867 8.14917 5.38867 8.15584 5.40644 8.15584H5.4931C5.61754 8.15361 5.74087 8.14139 5.86308 8.11695C5.97752 8.09029 6.08863 8.05362 6.1964 8.00585C6.29417 7.96363 6.3875 7.91141 6.47527 7.8503C6.61304 7.75697 6.73526 7.64142 6.83637 7.50921L6.8897 7.43477L6.93414 7.36477C6.9508 7.33811 6.96525 7.30922 6.97747 7.27922L6.98969 7.25144C7.05635 7.09256 6.9808 6.90924 6.82192 6.84258C6.81081 6.83813 6.7997 6.83369 6.78859 6.83147C6.6486 6.78703 6.49416 6.82369 6.38972 6.92702Z" fill="#422B0D"/>
<path d="M11.3895 6.92702L11.3673 6.94924C11.3495 6.96924 11.3306 6.98813 11.3106 7.00479L11.2339 7.06812C11.2017 7.09256 11.165 7.11923 11.1228 7.14589C11.0806 7.17256 11.0373 7.19811 10.9895 7.22256C10.9406 7.247 10.8895 7.26811 10.8373 7.28589C10.7828 7.30255 10.7273 7.31589 10.6706 7.327C10.6129 7.33588 10.5551 7.34033 10.4962 7.34033H10.444C10.4151 7.34033 10.4095 7.34033 10.3984 7.34033L10.3206 7.33033C10.264 7.31922 10.2084 7.30589 10.154 7.28922C10.1007 7.26922 10.0496 7.24589 9.99955 7.21922C9.95178 7.19478 9.90734 7.16812 9.86623 7.14256C9.80067 7.09923 9.73957 7.05034 9.68179 6.99701L9.6118 6.93257L9.58402 6.9048C9.4418 6.7748 9.22737 6.76703 9.07627 6.88591C8.96627 6.97035 8.92961 7.12145 8.98961 7.247L9.00627 7.28033C9.02072 7.31255 9.03738 7.34366 9.05516 7.37366C9.1696 7.56476 9.32514 7.72808 9.50958 7.85363C9.59735 7.91474 9.69068 7.96696 9.78845 8.00918C9.89734 8.05695 10.0107 8.09473 10.1273 8.12028C10.1884 8.13139 10.2451 8.1425 10.3195 8.14917C10.354 8.14917 10.394 8.15584 10.4118 8.15584H10.4984C10.6229 8.15361 10.7462 8.14139 10.8684 8.11695C10.9851 8.0914 11.0984 8.05362 11.2073 8.00585C11.305 7.96363 11.3984 7.91141 11.4861 7.8503C11.6239 7.75697 11.7461 7.64142 11.8472 7.50921L11.9006 7.43477L11.945 7.36477C11.9617 7.33811 11.9761 7.30922 11.9883 7.27922L12.0006 7.25144C12.0672 7.09256 11.9917 6.90924 11.8328 6.84258C11.8217 6.83813 11.8106 6.83369 11.7995 6.83147C11.6561 6.78147 11.4961 6.81925 11.3895 6.92702Z" fill="#422B0D"/>
<path d="M4.04634 5.69512C3.96857 5.77622 3.83857 5.77956 3.75747 5.70067C3.68414 5.63068 3.67414 5.51624 3.73302 5.43402C3.85746 5.25625 4.00967 5.0996 4.18522 4.97071C4.65075 4.61185 5.23405 4.44186 5.81958 4.4963C6.09512 4.53074 6.04179 4.88294 5.79625 4.90627C5.1385 4.95849 4.52076 5.23737 4.04634 5.69512Z" fill="#422B0D"/>
<path d="M11.8313 5.69512C11.9091 5.77622 12.0391 5.77956 12.1202 5.70067C12.1935 5.63068 12.2035 5.51624 12.1446 5.43402C12.0202 5.25625 11.868 5.0996 11.6924 4.97071C11.2269 4.61185 10.6436 4.44186 10.0581 4.4963C9.78254 4.53074 9.83587 4.88294 10.0814 4.90627C10.7392 4.95849 11.3569 5.23737 11.8313 5.69512Z" fill="#422B0D"/>
<defs>
<radialGradient id="paint0_radial_3036_1017" cx="0" cy="0" r="1" gradientUnits="userSpaceOnUse" gradientTransform="translate(7.95509 7.87579) scale(6.32852 6.32849)">
<stop offset="0.5" stop-color="#FDE030"/>
<stop offset="0.92" stop-color="#F7C02B"/>
<stop offset="1" stop-color="#F4A223"/>
</radialGradient>
</defs>
</svg>
