<svg xmlns="http://www.w3.org/2000/svg" width="16" height="16" viewBox="0 0 16 16" fill="none">
<path d="M4.34888 13.1725C4.34888 12.6947 5.01674 11.0071 5.01674 11.0071C5.66015 10.8082 10.3063 10.9771 11.0142 10.9771C11.0142 10.9771 11.6542 12.347 11.6542 13.1725C11.6542 13.998 9.68955 14.6669 8.00822 14.6669C6.3269 14.6669 4.34888 13.998 4.34888 13.1725Z" fill="#8B5738"/>
<path d="M8.00813 12.5836C9.66826 12.5836 11.0141 11.9991 11.0141 11.2781C11.0141 10.5571 9.66826 9.97266 8.00813 9.97266C6.348 9.97266 5.0022 10.5571 5.0022 11.2781C5.0022 11.9991 6.348 12.5836 8.00813 12.5836Z" fill="#FFB17A"/>
<path d="M5.18599 12.6842C5.52158 12.8753 6.05276 12.8608 6.46504 12.9353C6.98955 13.0308 7.28625 13.4308 8.29749 13.413C8.65864 13.4063 9.50097 13.3652 9.4543 13.3663C9.42541 13.3075 9.26094 13.2508 8.9409 13.2008C8.64753 13.1541 8.43639 13.1586 8.09635 13.1586C7.83632 13.1586 7.47961 13.0808 7.11956 12.883C6.9551 12.793 6.69951 12.693 6.44948 12.6419C6.06499 12.5631 5.79718 12.6464 5.26044 12.3919C5.00374 12.2708 4.79594 12.0197 4.74704 11.7275L4.62036 12.092C4.78705 12.3975 4.93929 12.5442 5.18599 12.6842Z" fill="#CC8552"/>
<path d="M10.7169 12.3851C9.85697 12.9317 9.13034 12.8706 9.13034 12.8706C9.06923 12.9106 9.57032 13.0184 9.94252 12.9561C10.6736 12.8339 11.118 12.4673 11.4069 11.9762C11.3669 11.8518 11.2791 11.6162 11.2791 11.6162C11.1958 11.8173 11.0991 12.1417 10.7169 12.3851Z" fill="#CC8552"/>
<path d="M9.16931 13.9365C8.6937 14.0231 8.23808 13.8754 7.77025 13.7654C7.12906 13.6154 5.92446 13.6365 5.92446 13.6365C5.85223 13.672 6.49231 13.9043 6.80346 13.9309C7.08683 13.9554 7.38687 13.9309 7.65579 14.0409C8.03472 14.1953 8.40144 14.2731 8.76815 14.2731C9.4649 14.2731 10.375 13.8531 10.5917 13.3076C10.5917 13.3076 10.1939 13.5409 9.88495 13.6976C9.66048 13.812 9.41823 13.892 9.16931 13.9365Z" fill="#A86D44"/>
<path d="M4.86947 13.2765C4.96391 13.4276 5.06057 13.5676 5.18723 13.6932C5.40166 13.9065 5.67276 14.0298 5.84719 13.9987C5.84719 13.9987 5.22945 13.4999 5.295 13.3699C5.32833 13.3032 6.61049 13.4087 6.61049 13.4087C6.61049 13.4087 6.22162 13.2043 5.84275 13.131C5.59721 13.0832 5.14834 13.1788 4.73947 12.891C4.51393 12.7321 4.47949 12.541 4.47949 12.541C4.47949 12.541 4.39838 12.8177 4.38171 12.9232C4.61837 13.171 4.83836 13.2265 4.86947 13.2765Z" fill="#A86D44"/>
<path d="M11.3682 12.7276C11.1437 12.9287 10.7893 13.3353 10.7893 13.5453C10.7893 13.5453 11.1871 13.1598 11.4548 12.9831C11.5215 12.9398 11.5693 12.8842 11.6215 12.8253C11.6215 12.8253 11.5948 12.6265 11.5526 12.4854C11.5359 12.5798 11.4682 12.6387 11.3682 12.7276Z" fill="#A86D44"/>
<path d="M8.00207 12.1699C10.9946 12.1699 13.4205 9.744 13.4205 6.75147C13.4205 3.75893 10.9946 1.33301 8.00207 1.33301C5.00954 1.33301 2.58362 3.75893 2.58362 6.75147C2.58362 9.744 5.00954 12.1699 8.00207 12.1699Z" fill="url(#paint0_radial_2527_6043)"/>
<path d="M8.00207 12.1699C10.9946 12.1699 13.4205 9.744 13.4205 6.75147C13.4205 3.75893 10.9946 1.33301 8.00207 1.33301C5.00954 1.33301 2.58362 3.75893 2.58362 6.75147C2.58362 9.744 5.00954 12.1699 8.00207 12.1699Z" fill="url(#paint1_radial_2527_6043)"/>
<path opacity="0.7" d="M5.99157 3.37443C6.49608 3.41776 7.52954 3.79559 6.77722 4.7646C6.28272 5.40135 5.66486 5.99364 5.44595 6.50593C4.81365 7.98723 6.39829 8.59175 6.89057 8.74621C7.31729 8.88067 8.13962 9.18071 8.37076 9.56409C9.26309 11.0421 6.54942 11.4454 6.54942 11.4454C6.54942 11.4454 8.54633 12.1733 10.191 11.0609C10.8133 10.6398 11.3611 9.65966 10.8255 8.77733C10.5655 8.3495 9.84872 7.96389 9.67314 7.8261C8.92194 7.23269 8.45855 6.61928 8.83193 5.93141C8.98306 5.6536 9.29865 5.50914 9.60424 5.42468C10.4599 5.18799 11.5278 5.23021 11.8067 4.17342C12.0479 3.26219 10.2877 1.22638 7.55732 1.55753C6.42385 1.69421 5.40372 2.16872 4.56917 2.94882C3.02898 4.39011 3.16233 5.58248 3.16233 5.58248C3.16233 5.58248 4.16579 3.21552 5.99157 3.37443Z" fill="url(#paint2_linear_2527_6043)"/>
<path opacity="0.39" d="M11.9769 3.57966C11.5901 3.01736 11.0556 2.57064 10.4922 2.18504C9.59323 1.57051 8.43086 1.52051 8.43086 1.52051C9.85771 2.20282 9.69769 3.10737 9.23207 3.75412C8.66533 4.542 7.52853 5.07429 7.23182 6.0333C7.05847 6.59337 7.16515 7.18233 7.71077 7.54015C8.25639 7.89798 10.22 8.84809 10.2878 9.97268C10.3389 10.8195 9.66546 11.3529 9.66546 11.3529C10.4533 11.1828 12.1113 10.0227 11.6201 8.8292C11.3823 8.25135 10.3011 7.86797 10.8456 7.209C11.0479 6.96341 12.4603 6.83229 12.5925 5.40322C12.6536 4.73536 12.2936 4.03971 11.9769 3.57966Z" fill="url(#paint3_linear_2527_6043)"/>
<path opacity="0.85" d="M3.6352 7.74028C3.6352 7.74028 2.82413 5.5889 4.4896 3.59643C5.86175 1.954 7.10057 2.61853 6.90947 3.31861C6.71726 4.0187 6.12063 4.23428 5.22178 4.93771C4.03407 5.86671 3.6352 7.74028 3.6352 7.74028Z" fill="url(#paint4_linear_2527_6043)"/>
<path d="M11.2191 4.75241C11.0025 4.64463 10.8292 4.50909 10.7536 4.2791L10.4325 3.21582L10.1114 4.2791C10.0359 4.50797 9.86144 4.64463 9.64589 4.75241L9.10925 4.98462L9.66145 5.21349C9.8781 5.32127 10.0359 5.46904 10.1125 5.69791L10.4336 6.7523L10.7547 5.69791C10.8303 5.46904 10.9892 5.32127 11.2058 5.21349L11.758 4.98462L11.2191 4.75241Z" fill="url(#paint5_linear_2527_6043)"/>
<path d="M10.1472 8.59713C9.93059 8.48936 9.75726 8.35381 9.68171 8.12382L9.36062 7.06055L9.03952 8.12382C8.96397 8.3527 8.78954 8.48936 8.57399 8.59713L8.03735 8.82934L8.58955 9.05822C8.8062 9.16599 8.96397 9.31376 9.04063 9.54264L9.36173 10.597L9.68282 9.54264C9.75837 9.31376 9.91725 9.16599 10.1339 9.05822L10.6861 8.82934L10.1472 8.59713Z" fill="url(#paint6_linear_2527_6043)"/>
<path d="M12.7064 6.8865C12.5431 6.8054 12.412 6.70207 12.3542 6.52985L12.112 5.72656L11.8698 6.52985C11.812 6.70318 11.6809 6.8054 11.5176 6.8865L11.1132 7.06205L11.5298 7.23537C11.6931 7.31648 11.8131 7.42759 11.8698 7.60091L12.112 8.39642L12.3542 7.60091C12.412 7.42759 12.5309 7.31648 12.6942 7.23537L13.1108 7.06205L12.7064 6.8865Z" fill="white"/>
<defs>
<radialGradient id="paint0_radial_2527_6043" cx="0" cy="0" r="1" gradientUnits="userSpaceOnUse" gradientTransform="translate(9.76238 3.33391) rotate(-3.7268) scale(8.46604 8.46604)">
<stop offset="0.1041" stop-color="#CE93D8"/>
<stop offset="1" stop-color="#AB47BC"/>
</radialGradient>
<radialGradient id="paint1_radial_2527_6043" cx="0" cy="0" r="1" gradientUnits="userSpaceOnUse" gradientTransform="translate(6.8185 6.01522) scale(7.71088 7.71088)">
<stop offset="0.2804" stop-color="#81D4FA" stop-opacity="0"/>
<stop offset="0.9643" stop-color="#81D4FA" stop-opacity="0.9"/>
</radialGradient>
<linearGradient id="paint2_linear_2527_6043" x1="9.18977" y1="2.07215" x2="4.88385" y2="13.2242" gradientUnits="userSpaceOnUse">
<stop stop-color="#673AB7"/>
<stop offset="0.9367" stop-color="#673AB7" stop-opacity="0"/>
</linearGradient>
<linearGradient id="paint3_linear_2527_6043" x1="9.87751" y1="3.65899" x2="9.87751" y2="12.8983" gradientUnits="userSpaceOnUse">
<stop offset="0.2348" stop-color="#1D44B3"/>
<stop offset="0.8842" stop-color="#2044B3" stop-opacity="0.074"/>
<stop offset="0.936" stop-color="#2144B3" stop-opacity="0"/>
</linearGradient>
<linearGradient id="paint4_linear_2527_6043" x1="4.53787" y1="2.71959" x2="5.50795" y2="6.33495" gradientUnits="userSpaceOnUse">
<stop offset="0.2271" stop-color="white"/>
<stop offset="1" stop-color="white" stop-opacity="0"/>
</linearGradient>
<linearGradient id="paint5_linear_2527_6043" x1="10.4315" y1="4.10692" x2="10.4315" y2="6.70977" gradientUnits="userSpaceOnUse">
<stop offset="0.2614" stop-color="white"/>
<stop offset="1" stop-color="white" stop-opacity="0"/>
</linearGradient>
<linearGradient id="paint6_linear_2527_6043" x1="9.35962" y1="7.35172" x2="9.35962" y2="10.3593" gradientUnits="userSpaceOnUse">
<stop stop-color="white"/>
<stop offset="1" stop-color="white" stop-opacity="0"/>
</linearGradient>
</defs>
</svg>