<svg width="16" height="16" viewBox="0 0 16 16" fill="none" xmlns="http://www.w3.org/2000/svg">
<path d="M7.95509 14.0865C4.85525 14.0865 1.51099 12.1422 1.51099 7.87579C1.51099 3.60937 4.85525 1.66504 7.95509 1.66504C9.67722 1.66504 11.266 2.23167 12.4437 3.26495C13.7214 4.39822 14.3992 5.99812 14.3992 7.87579C14.3992 9.75346 13.7214 11.3423 12.4437 12.4755C11.266 13.5088 9.66611 14.0865 7.95509 14.0865Z" fill="url(#paint0_radial_3036_939)"/>
<path d="M13.2757 4.18457C13.8679 5.14007 14.1768 6.27778 14.1768 7.54327C14.1768 9.42094 13.499 11.0097 12.2213 12.143C11.0436 13.1763 9.44371 13.754 7.73269 13.754C5.72613 13.754 3.61735 12.9374 2.37964 11.2053C3.57513 13.1674 5.82279 14.0873 7.9549 14.0873C9.66592 14.0873 11.2658 13.5096 12.4435 12.4763C13.7213 11.343 14.399 9.75425 14.399 7.87658C14.399 6.46111 14.0135 5.2034 13.2757 4.18457Z" fill="#EB8F00"/>
<path d="M9.14344 3.60663C9.24344 3.51775 9.34343 3.43997 9.45454 3.3622C9.56564 3.28443 9.68786 3.22887 9.79896 3.16221C10.0434 3.05111 10.31 2.94 10.6323 2.92889C10.71 2.91778 10.7878 2.94 10.8767 2.94C10.9545 2.94 11.0433 2.97333 11.1211 2.99556C11.1433 3.00667 11.1656 3.00667 11.1767 3.01778L11.2322 3.05111L11.3433 3.10666C11.41 3.1511 11.4767 3.20665 11.5433 3.26221C11.6655 3.37331 11.7433 3.51775 11.81 3.65107C11.8433 3.71774 11.8655 3.7844 11.8877 3.85106C11.91 3.91772 11.9211 3.98439 11.9322 4.02883L11.9433 4.06216C11.9655 4.19549 11.8766 4.32881 11.7433 4.35103C11.6322 4.37325 11.5322 4.3177 11.4767 4.22882C11.4433 4.16215 11.41 4.1066 11.3878 4.06216C11.3655 4.01772 11.3322 3.97328 11.31 3.92883C11.2544 3.85106 11.1878 3.7844 11.1211 3.72885C11.11 3.71774 11.0878 3.70663 11.0656 3.69551C11.0433 3.6844 11.0322 3.67329 11.0211 3.66218C10.9989 3.65107 10.9878 3.65107 10.9656 3.63996L10.9433 3.62885C10.9322 3.62885 10.9211 3.62885 10.91 3.62885C10.8322 3.60663 10.7545 3.59552 10.6656 3.60663C10.4878 3.60663 10.2767 3.67329 10.0656 3.75107C9.96562 3.79551 9.85451 3.83995 9.75452 3.88439C9.65453 3.93995 9.54342 3.98439 9.43231 4.02883L9.41009 4.03994C9.27677 4.09549 9.13233 4.02883 9.08789 3.90661C9.03234 3.79551 9.06567 3.67329 9.14344 3.60663Z" fill="#422B0D"/>
<path d="M5.9547 5.16324C5.86582 5.18546 5.81026 5.19657 5.73249 5.19657C5.66583 5.19657 5.58805 5.20768 5.52139 5.19657C5.37695 5.19657 5.23252 5.17435 5.09919 5.1299C4.87698 5.07435 4.65477 5.04102 4.46589 5.04102C4.37701 5.04102 4.28812 5.05213 4.22146 5.07435C4.1548 5.09657 4.09924 5.1299 4.04369 5.18546C3.93259 5.29656 3.82148 5.49655 3.71038 5.69654C3.64371 5.81875 3.48817 5.8632 3.36595 5.79653C3.26596 5.74098 3.22151 5.62988 3.23262 5.52988C3.25484 5.40767 3.28818 5.27434 3.33262 5.14101C3.38817 5.00769 3.44372 4.87436 3.55483 4.74104C3.66593 4.60771 3.81037 4.49661 3.97703 4.44105C4.14369 4.3855 4.29923 4.36328 4.45478 4.36328C4.75476 4.37439 5.01031 4.45217 5.25474 4.54105C5.35473 4.57438 5.45473 4.60771 5.55472 4.62993C5.61027 4.64104 5.65472 4.65215 5.71027 4.65215C5.75471 4.65215 5.82137 4.66326 5.85471 4.66326H5.89915C6.03247 4.66326 6.14358 4.78548 6.13247 4.9188C6.14358 5.05213 6.06581 5.14101 5.9547 5.16324Z" fill="#422B0D"/>
<path d="M5.77729 11.0295C5.97728 10.8073 6.51058 10.5517 7.25499 10.5628C8.24382 10.5851 8.77713 11.0295 8.77713 11.0295C9.09933 11.2961 8.9549 11.7072 8.61047 11.6739C8.05495 11.6072 8.08828 11.5072 7.08833 11.485C6.36615 11.4739 6.02172 11.585 5.98839 11.585C5.7884 11.5961 5.71063 11.5184 5.67729 11.385C5.64396 11.2739 5.67729 11.1295 5.77729 11.0295Z" fill="#422B0D"/>
<path d="M10.0324 5.75195C10.5213 5.75195 10.9657 6.16304 10.9657 6.85189C10.9657 7.54074 10.5213 7.95183 10.0324 7.95183C9.54354 7.95183 9.09912 7.54074 9.09912 6.85189C9.09912 6.16304 9.54354 5.75195 10.0324 5.75195Z" fill="#422B0D"/>
<path d="M5.0219 5.94141C4.55526 5.94141 4.13306 6.33027 4.13306 6.98579C4.13306 7.64131 4.55526 8.03018 5.0219 8.03018C5.48854 8.03018 5.91074 7.64131 5.91074 6.98579C5.91074 6.33027 5.48854 5.94141 5.0219 5.94141Z" fill="#422B0D"/>
<path d="M9.92983 6.25788C9.81539 6.17788 9.64317 6.20344 9.53207 6.36343C9.42096 6.52453 9.45763 6.69341 9.57207 6.7734C9.68651 6.8534 9.85872 6.82784 9.96982 6.66785C10.082 6.50675 10.0443 6.33676 9.92983 6.25788Z" fill="#896024"/>
<path d="M12.7213 6.43262H12.0991V7.43256H12.7213C13.0213 7.43256 13.3213 7.24368 13.3213 6.95481V6.91037C13.3213 6.61038 13.0213 6.43262 12.7213 6.43262ZM12.6658 7.28812C12.4547 7.28812 12.288 7.12147 12.288 6.92148C12.288 6.72149 12.4547 6.55483 12.6658 6.55483C12.8769 6.55483 13.0435 6.72149 13.0435 6.92148C13.0435 7.12147 12.8769 7.28812 12.6658 7.28812Z" fill="#404040"/>
<path d="M12.677 8.755C12.6437 8.755 12.6104 8.73278 12.6104 8.69945V8.18836C12.6104 8.15503 12.6326 8.13281 12.6659 8.13281H12.677C12.7103 8.13281 12.7326 8.15503 12.7326 8.18836V8.69945C12.7326 8.72167 12.7103 8.755 12.677 8.755Z" fill="#404040"/>
<path d="M12.677 9.6007C12.6437 9.6007 12.6104 9.57848 12.6104 9.54515V9.03407C12.6104 9.00074 12.6326 8.97852 12.6659 8.97852H12.677C12.7103 8.97852 12.7326 9.00074 12.7326 9.03407V9.54515C12.7326 9.57848 12.7103 9.6007 12.677 9.6007Z" fill="#404040"/>
<path d="M12.677 10.4542C12.6437 10.4542 12.6104 10.432 12.6104 10.3987V9.88758C12.6104 9.85425 12.6326 9.83203 12.6659 9.83203H12.677C12.7103 9.83203 12.7326 9.85425 12.7326 9.88758V10.3987C12.7326 10.432 12.7103 10.4542 12.677 10.4542Z" fill="#404040"/>
<path d="M12.677 11.3097C12.6437 11.3097 12.6104 11.2875 12.6104 11.2541V10.7431C12.6104 10.7097 12.6326 10.6875 12.6659 10.6875H12.677C12.7103 10.6875 12.7326 10.7097 12.7326 10.7431V11.2541C12.7326 11.2875 12.7103 11.3097 12.677 11.3097Z" fill="#404040"/>
<path d="M12.677 12.1661C12.6437 12.1661 12.6104 12.1439 12.6104 12.1106V11.5995C12.6104 11.5662 12.6326 11.5439 12.6659 11.5439H12.677C12.7103 11.5439 12.7326 11.5662 12.7326 11.5995V12.1106C12.7326 12.1439 12.7103 12.1661 12.677 12.1661Z" fill="#404040"/>
<path d="M12.677 13.0226C12.6437 13.0226 12.6104 13.0004 12.6104 12.967V12.4559C12.6104 12.4226 12.6326 12.4004 12.6659 12.4004H12.677C12.7103 12.4004 12.7326 12.4226 12.7326 12.4559V12.967C12.7326 13.0004 12.7103 13.0226 12.677 13.0226Z" fill="#404040"/>
<path d="M12.677 13.8761C12.6437 13.8761 12.6104 13.8539 12.6104 13.8205V13.3095C12.6104 13.2761 12.6326 13.2539 12.6659 13.2539H12.677C12.7103 13.2539 12.7326 13.2761 12.7326 13.3095V13.8205C12.7326 13.8539 12.7103 13.8761 12.677 13.8761Z" fill="#404040"/>
<path d="M12.677 7.85559C12.6437 7.85559 12.6104 7.83336 12.6104 7.80003V7.28895C12.6104 7.25562 12.6326 7.2334 12.6659 7.2334H12.677C12.7103 7.2334 12.7326 7.25562 12.7326 7.28895V7.80003C12.7326 7.82225 12.7103 7.85559 12.677 7.85559Z" fill="#404040"/>
<path fill-rule="evenodd" clip-rule="evenodd" d="M12.6769 7.77712C12.5481 7.77712 12.4436 7.88158 12.4436 8.01044C12.4436 8.1393 12.5481 8.24376 12.6769 8.24376C12.8058 8.24376 12.9103 8.1393 12.9103 8.01044C12.9103 7.88158 12.8058 7.77712 12.6769 7.77712ZM12.3325 8.01044C12.3325 7.82022 12.4867 7.66602 12.6769 7.66602C12.8672 7.66602 13.0214 7.82022 13.0214 8.01044C13.0214 8.20066 12.8672 8.35486 12.6769 8.35486C12.4867 8.35486 12.3325 8.20066 12.3325 8.01044Z" fill="#404040"/>
<path fill-rule="evenodd" clip-rule="evenodd" d="M12.6769 8.63454C12.5481 8.63454 12.4436 8.739 12.4436 8.86786C12.4436 8.99672 12.5481 9.10118 12.6769 9.10118C12.8058 9.10118 12.9103 8.99672 12.9103 8.86786C12.9103 8.739 12.8058 8.63454 12.6769 8.63454ZM12.3325 8.86786C12.3325 8.67764 12.4867 8.52344 12.6769 8.52344C12.8672 8.52344 13.0214 8.67764 13.0214 8.86786C13.0214 9.05808 12.8672 9.21229 12.6769 9.21229C12.4867 9.21229 12.3325 9.05808 12.3325 8.86786Z" fill="#404040"/>
<path fill-rule="evenodd" clip-rule="evenodd" d="M12.6769 9.47829C12.5481 9.47829 12.4436 9.58275 12.4436 9.71161C12.4436 9.84047 12.5481 9.94493 12.6769 9.94493C12.8058 9.94493 12.9103 9.84047 12.9103 9.71161C12.9103 9.58275 12.8058 9.47829 12.6769 9.47829ZM12.3325 9.71161C12.3325 9.52139 12.4867 9.36719 12.6769 9.36719C12.8672 9.36719 13.0214 9.52139 13.0214 9.71161C13.0214 9.90183 12.8672 10.056 12.6769 10.056C12.4867 10.056 12.3325 9.90183 12.3325 9.71161Z" fill="#404040"/>
<path fill-rule="evenodd" clip-rule="evenodd" d="M12.6769 10.3318C12.5481 10.3318 12.4436 10.4363 12.4436 10.5651C12.4436 10.694 12.5481 10.7984 12.6769 10.7984C12.8058 10.7984 12.9103 10.694 12.9103 10.5651C12.9103 10.4363 12.8058 10.3318 12.6769 10.3318ZM12.3325 10.5651C12.3325 10.3749 12.4867 10.2207 12.6769 10.2207C12.8672 10.2207 13.0214 10.3749 13.0214 10.5651C13.0214 10.7553 12.8672 10.9096 12.6769 10.9096C12.4867 10.9096 12.3325 10.7553 12.3325 10.5651Z" fill="#404040"/>
<path fill-rule="evenodd" clip-rule="evenodd" d="M12.6769 11.1775C12.5481 11.1775 12.4436 11.282 12.4436 11.4108C12.4436 11.5397 12.5481 11.6442 12.6769 11.6442C12.8058 11.6442 12.9103 11.5397 12.9103 11.4108C12.9103 11.282 12.8058 11.1775 12.6769 11.1775ZM12.3325 11.4108C12.3325 11.2206 12.4867 11.0664 12.6769 11.0664C12.8672 11.0664 13.0214 11.2206 13.0214 11.4108C13.0214 11.6011 12.8672 11.7553 12.6769 11.7553C12.4867 11.7553 12.3325 11.6011 12.3325 11.4108Z" fill="#404040"/>
<path fill-rule="evenodd" clip-rule="evenodd" d="M12.6769 12.032C12.5481 12.032 12.4436 12.1365 12.4436 12.2653C12.4436 12.3942 12.5481 12.4986 12.6769 12.4986C12.8058 12.4986 12.9103 12.3942 12.9103 12.2653C12.9103 12.1365 12.8058 12.032 12.6769 12.032ZM12.3325 12.2653C12.3325 12.0751 12.4867 11.9209 12.6769 11.9209C12.8672 11.9209 13.0214 12.0751 13.0214 12.2653C13.0214 12.4555 12.8672 12.6097 12.6769 12.6097C12.4867 12.6097 12.3325 12.4555 12.3325 12.2653Z" fill="#404040"/>
<path fill-rule="evenodd" clip-rule="evenodd" d="M12.6769 12.8767C12.5481 12.8767 12.4436 12.9812 12.4436 13.11C12.4436 13.2389 12.5481 13.3434 12.6769 13.3434C12.8058 13.3434 12.9103 13.2389 12.9103 13.11C12.9103 12.9812 12.8058 12.8767 12.6769 12.8767ZM12.3325 13.11C12.3325 12.9198 12.4867 12.7656 12.6769 12.7656C12.8672 12.7656 13.0214 12.9198 13.0214 13.11C13.0214 13.3003 12.8672 13.4545 12.6769 13.4545C12.4867 13.4545 12.3325 13.3003 12.3325 13.11Z" fill="#404040"/>
<path fill-rule="evenodd" clip-rule="evenodd" d="M12.6767 13.7332C12.5478 13.7332 12.4434 13.8376 12.4434 13.9665C12.4434 14.0954 12.5478 14.1998 12.6767 14.1998C12.8056 14.1998 12.91 14.0954 12.91 13.9665C12.91 13.8376 12.8056 13.7332 12.6767 13.7332ZM12.3323 13.9665C12.3323 13.7763 12.4865 13.6221 12.6767 13.6221C12.8669 13.6221 13.0211 13.7763 13.0211 13.9665C13.0211 14.1567 12.8669 14.3109 12.6767 14.3109C12.4865 14.3109 12.3323 14.1567 12.3323 13.9665Z" fill="#404040"/>
<path d="M9.73261 9.14392C10.9967 9.14392 12.0214 8.11921 12.0214 6.85516C12.0214 5.59112 10.9967 4.56641 9.73261 4.56641C8.46856 4.56641 7.44385 5.59112 7.44385 6.85516C7.44385 8.11921 8.46856 9.14392 9.73261 9.14392Z" fill="#CCCCCC" fill-opacity="0.5"/>
<path fill-rule="evenodd" clip-rule="evenodd" d="M9.73247 4.76094C8.5758 4.76094 7.63814 5.6986 7.63814 6.85526C7.63814 8.01192 8.5758 8.94959 9.73247 8.94959C10.8891 8.94959 11.8268 8.01192 11.8268 6.85526C11.8268 5.6986 10.8891 4.76094 9.73247 4.76094ZM7.24927 6.85526C7.24927 5.48383 8.36103 4.37207 9.73247 4.37207C11.1039 4.37207 12.2157 5.48383 12.2157 6.85526C12.2157 8.22669 11.1039 9.33845 9.73247 9.33845C8.36103 9.33845 7.24927 8.22669 7.24927 6.85526Z" fill="#404040"/>
<path d="M11.4213 6.72127C11.3768 6.29908 11.188 5.91021 10.8769 5.64356C10.5658 5.37691 10.1658 5.23247 9.76581 5.23247C9.35472 5.23247 8.95474 5.3658 8.64365 5.62134C8.33255 5.87688 8.13256 6.26575 8.09923 6.68794C8.09923 6.72128 8.0659 6.7435 8.04368 6.73239C8.02146 6.73239 7.99924 6.71016 7.99924 6.67683C7.98813 6.45462 8.03257 6.2213 8.12145 6.0102C8.21034 5.79911 8.34366 5.61023 8.51032 5.44357C8.84364 5.12137 9.32139 4.96582 9.77692 4.96582C10.2436 4.96582 10.6991 5.14359 11.0324 5.46579C11.1991 5.63245 11.3324 5.82133 11.4213 6.03243C11.5102 6.24352 11.5435 6.47684 11.5324 6.69905C11.5324 6.73239 11.5102 6.75461 11.4768 6.75461C11.4435 6.76572 11.4213 6.7435 11.4213 6.72127Z" fill="white"/>
<path d="M5.00282 6.37409C4.88839 6.29409 4.71617 6.31965 4.60507 6.47964C4.49396 6.63963 4.53063 6.80962 4.64507 6.88961C4.7595 6.96961 4.93172 6.94406 5.04282 6.78406C5.15504 6.62296 5.11837 6.45297 5.00282 6.37409Z" fill="#896024"/>
<defs>
<radialGradient id="paint0_radial_3036_939" cx="0" cy="0" r="1" gradientUnits="userSpaceOnUse" gradientTransform="translate(7.95509 7.87578) scale(6.32852 6.32849)">
<stop offset="0.5" stop-color="#FDE030"/>
<stop offset="0.9188" stop-color="#F7C02B"/>
<stop offset="1" stop-color="#F4A223"/>
</radialGradient>
</defs>
</svg>
