<svg width="16" height="16" viewBox="0 0 16 16" fill="none" xmlns="http://www.w3.org/2000/svg">
<path d="M6 10.5C6.27636 10.5 6.5 10.7239 6.5 11C6.5 11.5097 6.58255 11.7462 6.65234 11.8545C6.69723 11.9248 6.76553 11.9999 6.99902 12H7C7.27572 12 7.49974 12.2231 7.5 12.499C7.5 12.7751 7.27636 13 7 13C6.78906 13 6.5 13 6.5 14C6.5 14.2761 6.27636 14.5 6 14.5C5.72364 14.5 5.5 14.2761 5.5 14C5.5 13 5.21094 13 5 13C4.72363 13 4.5 12.7751 4.5 12.499C4.50026 12.2234 4.72526 12 5.00098 12C5.23447 11.9999 5.30277 11.9248 5.34766 11.8545C5.41745 11.7462 5.5 11.5097 5.5 11C5.5 10.7239 5.72364 10.5 6 10.5ZM10.5 1.5C10.7764 1.5 11 1.72387 11 2C11 4.98095 12.374 7.49902 14 7.49902C14.2762 7.49902 14.4997 7.72312 14.5 7.99902C14.5 8.27515 14.2764 8.49902 14 8.49902C12.374 8.49902 11 11.0183 11 14C11 14.2761 10.7764 14.5 10.5 14.5C10.2236 14.5 10 14.2761 10 14C10 11.0183 8.62598 8.49902 7 8.49902C6.72364 8.49902 6.5 8.27515 6.5 7.99902C6.50026 7.72312 6.7238 7.49902 7 7.49902C8.62598 7.49902 10 4.98095 10 2C10 1.72387 10.2236 1.5 10.5 1.5ZM10.5 5.19434C10.0719 6.45274 9.39374 7.4421 8.56738 7.99902C9.39399 8.55617 10.0718 9.54693 10.5 10.8057C10.9282 9.54687 11.6069 8.55615 12.4336 7.99902C11.607 7.44217 10.9282 6.45302 10.5 5.19434ZM3.5 1.5C3.77502 1.5 4 1.72501 4 2C4 2.75501 4.09521 3.29999 4.28027 3.625C4.43524 3.8849 4.65007 4 5 4C5.27502 4 5.5 4.225 5.5 4.5C5.5 4.775 5.27502 5 5 5C4.65002 5 4 5 4 7C4 7.27499 3.77502 7.5 3.5 7.5C3.22497 7.5 3 7.27499 3 7C3 5 2.34997 5 2 5C1.72497 5 1.5 4.775 1.5 4.5C1.5 4.225 1.72497 4 2 4C2.34993 4 2.56476 3.8849 2.71973 3.625C2.90479 3.29999 3 2.75501 3 2C3 1.72501 3.22497 1.5 3.5 1.5Z" fill="#171E21"/>
</svg>
