<svg width="16" height="16" viewBox="0 0 16 16" fill="none" xmlns="http://www.w3.org/2000/svg">
<path d="M12.6028 1.97828L12.6295 2.26604C12.7672 2.2516 13.0205 2.29715 13.3772 2.65491C13.735 3.01267 13.7805 3.26488 13.7661 3.40265L14.0538 3.42931C14.3938 3.46042 14.7016 3.15822 14.6649 2.81934C14.6305 2.50047 14.4649 2.14382 14.176 1.85495C13.8872 1.56719 13.5316 1.40053 13.2117 1.36609C12.8739 1.33053 12.5717 1.6383 12.6028 1.97828Z" fill="#9E740B"/>
<path d="M10.609 5.42266L9.78687 4.60048L12.6178 2.19172C12.6178 2.19172 12.9334 1.96395 13.5 2.53059C14.0666 3.09723 13.8389 3.41277 13.8389 3.41277L11.4312 6.24373L10.609 5.42266Z" fill="#693928"/>
<path d="M4.01001 13.3654C2.99322 14.3478 1.33301 14.6367 1.33301 14.6367L10.2763 5.69336L11.2276 6.64459L4.01001 13.3654Z" fill="#82AEC0"/>
<path d="M2.60428 11.9598C1.62304 12.9777 1.33301 14.6368 1.33301 14.6368L10.2763 5.69342L9.32512 4.74219L2.60428 11.9598Z" fill="#C9E3E6"/>
<path d="M6.12818 13.5081C6.05707 13.4548 5.98818 13.4293 5.91819 13.4081C5.88708 13.4004 5.85597 13.3948 5.82375 13.3904C5.8193 13.3593 5.81375 13.3281 5.80597 13.2959C5.78597 13.2248 5.75931 13.1559 5.70598 13.0859C5.65265 13.157 5.62709 13.2259 5.60598 13.2959C5.5982 13.3281 5.59265 13.3593 5.5882 13.3915C5.55821 13.3959 5.5271 13.4015 5.4971 13.4093C5.42599 13.4293 5.35711 13.4548 5.28711 13.507C5.35822 13.5592 5.4271 13.5848 5.4971 13.6048C5.52821 13.6137 5.55932 13.6192 5.59043 13.6237C5.59487 13.6548 5.60043 13.6848 5.6082 13.7159C5.6282 13.787 5.65376 13.8559 5.70598 13.9259C5.75931 13.8548 5.78486 13.7859 5.80375 13.7159C5.81153 13.6848 5.81708 13.6548 5.82153 13.6248C5.85263 13.6204 5.88486 13.6148 5.91708 13.6059C5.98818 13.5881 6.05818 13.5615 6.12818 13.5081Z" fill="white"/>
<path opacity="0.6" d="M6.60464 12.1193C6.66241 12.1115 6.72019 12.0937 6.77907 12.0526C6.72019 12.0104 6.66241 11.9937 6.60464 11.986C6.59686 11.9282 6.57908 11.8704 6.53797 11.8115C6.49575 11.8704 6.47909 11.9282 6.47131 11.986C6.41354 11.9937 6.35576 12.0115 6.29688 12.0526C6.35465 12.0937 6.41242 12.1115 6.47131 12.1193C6.47909 12.1771 6.49686 12.2348 6.53797 12.2937C6.57908 12.2359 6.59686 12.1782 6.60464 12.1193Z" fill="white"/>
<path d="M9.72819 11.7274C9.61375 11.6418 9.50043 11.5985 9.38599 11.5663C9.33599 11.5529 9.28488 11.5441 9.23488 11.5363C9.22822 11.4863 9.21822 11.4352 9.20489 11.3852C9.17266 11.2707 9.12933 11.1574 9.04378 11.043C8.95823 11.1574 8.9149 11.2707 8.88268 11.3852C8.86935 11.4352 8.86046 11.4863 8.85268 11.5363C8.80268 11.5429 8.75158 11.5529 8.70158 11.5663C8.58714 11.5985 8.47381 11.6418 8.35938 11.7274C8.47381 11.8129 8.58714 11.8563 8.70158 11.8885C8.75158 11.9018 8.80268 11.9107 8.85268 11.9185C8.85935 11.9685 8.86935 12.0196 8.88268 12.0696C8.9149 12.184 8.95823 12.2973 9.04378 12.4118C9.12933 12.2973 9.17266 12.184 9.20489 12.0696C9.21822 12.0196 9.22711 11.9685 9.23488 11.9185C9.28488 11.9118 9.33599 11.9018 9.38599 11.8885C9.49931 11.8574 9.61375 11.8129 9.72819 11.7274Z" fill="white"/>
<path d="M2.90542 10.8527C2.96319 10.8449 3.02097 10.8271 3.07985 10.786C3.02097 10.7438 2.96319 10.7271 2.90542 10.7194C2.89764 10.6616 2.87986 10.6038 2.83875 10.5449C2.79653 10.6038 2.77987 10.6616 2.77209 10.7194C2.71432 10.7271 2.65654 10.7449 2.59766 10.786C2.65654 10.8271 2.71432 10.8449 2.77209 10.8527C2.77987 10.9105 2.79765 10.9682 2.83875 11.0271C2.87986 10.9682 2.89764 10.9105 2.90542 10.8527Z" fill="white"/>
<path d="M4.41323 9.35073C4.471 9.34295 4.52878 9.32518 4.58767 9.28407C4.52878 9.24185 4.471 9.22518 4.41323 9.2174C4.40545 9.15963 4.38768 9.10185 4.34657 9.04297C4.30435 9.10185 4.28768 9.15963 4.2799 9.2174C4.22213 9.22518 4.16435 9.24296 4.10547 9.28407C4.16435 9.32518 4.22213 9.34295 4.2799 9.35073C4.28768 9.40851 4.30546 9.46628 4.34657 9.52517C4.38768 9.46739 4.40545 9.40962 4.41323 9.35073Z" fill="white"/>
<path opacity="0.6" d="M10.8907 9.2842C10.7884 9.20754 10.6862 9.16865 10.584 9.13976C10.5385 9.12754 10.494 9.11976 10.4485 9.1131C10.4418 9.06754 10.434 9.0231 10.4218 8.97755C10.3929 8.87533 10.354 8.77312 10.2774 8.6709C10.2007 8.77312 10.1618 8.87533 10.1329 8.97755C10.1207 9.0231 10.1129 9.06754 10.1063 9.1131C10.0607 9.11976 10.0163 9.12754 9.97071 9.13976C9.8685 9.16865 9.76628 9.20754 9.66406 9.2842C9.76628 9.36086 9.8685 9.39975 9.97071 9.42864C10.0163 9.44086 10.0607 9.44864 10.1063 9.4553C10.1129 9.50085 10.1207 9.5453 10.1329 9.59085C10.1618 9.69307 10.2007 9.79528 10.2774 9.8975C10.354 9.79528 10.3929 9.69307 10.4218 9.59085C10.434 9.5453 10.4418 9.50085 10.4485 9.4553C10.494 9.44864 10.5385 9.44086 10.584 9.42864C10.6862 9.39975 10.7884 9.36086 10.8907 9.2842Z" fill="white"/>
<path opacity="0.6" d="M3.47877 8.70819C3.37322 8.6282 3.26545 8.58709 3.15879 8.55709C3.11213 8.54487 3.06546 8.53709 3.01769 8.53042C3.01102 8.48265 3.00213 8.43598 2.98991 8.38932C2.9588 8.28377 2.9188 8.176 2.83881 8.06934C2.75881 8.17489 2.7177 8.28266 2.6877 8.38932C2.67548 8.43598 2.6677 8.48376 2.66104 8.53153C2.61437 8.5382 2.5666 8.54709 2.51993 8.55931C2.41438 8.5882 2.30661 8.6282 2.19995 8.7093C2.3055 8.7893 2.41327 8.83041 2.51993 8.85929C2.5666 8.87263 2.61437 8.8804 2.66215 8.88818C2.66882 8.93596 2.6777 8.98262 2.68993 9.02929C2.71881 9.13484 2.75881 9.24261 2.83992 9.34927C2.91991 9.24372 2.96102 9.13595 2.98991 9.02929C3.00324 8.98262 3.01102 8.93596 3.01769 8.88929C3.06546 8.88263 3.11213 8.87374 3.1599 8.86152C3.26434 8.82818 3.37211 8.78819 3.47877 8.70819Z" fill="white"/>
<path d="M5.50697 7.63203C5.43587 7.5787 5.36698 7.55314 5.29698 7.53203C5.26587 7.52425 5.23365 7.5187 5.20254 7.51425C5.1981 7.48315 5.19254 7.45204 5.18477 7.42093C5.16477 7.34982 5.1381 7.28093 5.08477 7.21094C5.03144 7.28204 5.00589 7.35093 4.98478 7.42093C4.977 7.45204 4.97145 7.48426 4.967 7.51537C4.937 7.51981 4.90589 7.52537 4.87478 7.53314C4.80368 7.55314 4.73479 7.5787 4.66479 7.63092C4.7359 7.68425 4.80479 7.7098 4.87478 7.72869C4.90589 7.73647 4.937 7.74313 4.967 7.74758C4.97145 7.77869 4.977 7.8098 4.98478 7.8409C5.00478 7.91201 5.03033 7.9809 5.08255 8.05089C5.13588 7.97979 5.16144 7.9109 5.18032 7.8409C5.1881 7.8098 5.19477 7.77869 5.19921 7.74869C5.23032 7.74424 5.26254 7.73869 5.29365 7.7298C5.36698 7.71091 5.43698 7.68425 5.50697 7.63203Z" fill="white"/>
<path d="M7.49717 3.18121L9.13737 5.18702C9.13737 5.18702 9.31628 5.42038 9.32184 5.61263C9.33073 5.91489 9.34629 6.11714 9.60632 6.37606C9.86635 6.63609 10.1986 6.65054 10.3764 6.64387C10.5542 6.6372 10.782 6.83056 10.782 6.83056L12.7878 8.47077C12.8945 8.56078 13.0579 8.54411 13.1423 8.42632C13.2112 8.33075 13.1923 8.1974 13.1134 8.10961C12.6711 7.61733 11.4243 6.20826 11.4243 6.20826C11.4243 6.20826 11.2343 5.96934 11.2299 5.77154C11.2254 5.57263 11.2443 5.31148 10.9498 5.01811C10.6553 4.72474 10.442 4.7503 10.1764 4.7403C9.95192 4.73141 9.75967 4.54361 9.75967 4.54361C9.75967 4.54361 8.35061 3.29567 7.85721 2.85451C7.76942 2.77561 7.63607 2.75672 7.54051 2.82561C7.42383 2.91118 7.40716 3.07453 7.49717 3.18121Z" fill="#9E740B"/>
<path d="M10.2927 5.69853L7.48284 2.88867C7.42285 2.97756 7.42618 3.09644 7.49729 3.18088L9.1372 5.18633C9.1372 5.18633 9.31608 5.41965 9.32163 5.61186C9.32608 5.78408 9.33386 5.92407 9.38719 6.06073C9.45829 6.24183 9.69828 6.28405 9.83716 6.14739C10.0383 5.95073 10.2927 5.69853 10.2927 5.69853Z" fill="#E2A610"/>
<path d="M10.2763 6.13662C10.5212 6.13662 10.7196 5.93814 10.7196 5.69331C10.7196 5.44848 10.5212 5.25 10.2763 5.25C10.0315 5.25 9.83301 5.44848 9.83301 5.69331C9.83301 5.93814 10.0315 6.13662 10.2763 6.13662Z" fill="#1E4EA6"/>
<path d="M10.203 5.5726C10.1697 5.62593 10.1519 5.67592 10.1619 5.73592C10.1653 5.7837 10.1942 5.83592 10.1608 5.88036C10.1186 5.93813 10.0264 5.9248 9.98195 5.87258C9.91862 5.79592 9.91529 5.70148 9.92751 5.62371C9.94862 5.48927 10.0186 5.38816 10.1397 5.39927C10.2275 5.40705 10.2519 5.50704 10.203 5.5726Z" fill="#42A5F5"/>
<path d="M11.2925 4.67756C11.4836 4.86866 11.6425 5.06532 11.7625 5.24864C11.7836 5.23642 11.8025 5.22197 11.8203 5.2042C12.0058 5.01865 11.9203 4.632 11.6292 4.34091C11.3381 4.04981 10.9514 3.96426 10.7659 4.14981C10.7481 4.16758 10.7348 4.18647 10.7214 4.20758C10.9048 4.32758 11.1014 4.48646 11.2925 4.67756Z" fill="#A65F3E"/>
<path d="M11.8555 4.11514C12.0255 4.28513 12.1655 4.45957 12.2689 4.624C12.2877 4.61178 12.3066 4.59845 12.3222 4.58289C12.4944 4.41068 12.4255 4.0607 12.1677 3.80293C11.91 3.54517 11.5611 3.47628 11.3878 3.6485C11.3711 3.66516 11.3578 3.68294 11.3467 3.70183C11.51 3.80516 11.6856 3.94515 11.8555 4.11514Z" fill="#A65F3E"/>
<path d="M12.4181 3.55218C12.5658 3.69995 12.687 3.85328 12.7758 3.99771C12.7936 3.9866 12.8103 3.97438 12.8247 3.95883C12.9847 3.79883 12.9314 3.48774 12.707 3.2622C12.4825 3.03665 12.1703 2.98443 12.0103 3.14442C11.9959 3.15887 11.9825 3.17553 11.9714 3.19331C12.117 3.28331 12.2703 3.40441 12.4181 3.55218Z" fill="#A65F3E"/>
<path d="M12.9803 2.99016C13.1059 3.11571 13.2081 3.24793 13.2826 3.37348C13.2981 3.36348 13.3137 3.35125 13.327 3.33792C13.4737 3.19126 13.437 2.91683 13.2459 2.72573C13.0548 2.53463 12.7804 2.49797 12.6337 2.64463C12.6204 2.65796 12.6081 2.67351 12.5981 2.68907C12.7226 2.7624 12.8548 2.86461 12.9803 2.99016Z" fill="#A65F3E"/>
<path d="M13.5057 2.19295C13.3812 2.08295 13.2401 2.02851 13.139 2.00407C13.0557 1.98407 12.9924 1.91518 12.9757 1.83074V1.82963C12.9446 1.67075 13.089 1.53298 13.2468 1.57076C13.4234 1.61409 13.6312 1.70631 13.8101 1.86741C13.9134 1.96074 13.8979 2.12739 13.7845 2.2085C13.7001 2.27072 13.5845 2.26183 13.5057 2.19295Z" fill="#E2A610"/>
</svg>
