<svg width="16" height="16" viewBox="0 0 16 16" fill="none" xmlns="http://www.w3.org/2000/svg">
<path d="M13.0145 5.29259C13.0323 5.39369 13.1267 5.68368 13.0734 5.827L12.7423 6.69696C12.6556 6.92028 12.7889 7.17915 13.0378 7.27582C13.2878 7.37248 13.5589 7.26915 13.6456 7.04472L13.9889 6.17032C14.0433 6.03255 14.2644 5.87033 14.3544 5.80034C14.4266 5.74478 14.41 5.63146 14.3233 5.60035C13.9878 5.47813 13.5767 5.31147 13.1656 5.16482C13.0845 5.13593 12.9989 5.20592 13.0145 5.29259Z" fill="#616161"/>
<path d="M13.6458 7.04465L13.9613 6.24358C13.9613 6.24358 13.6191 6.46802 12.9503 6.15137L12.7436 6.69689C12.657 6.92022 12.7903 7.17909 13.0392 7.27575C13.288 7.3713 13.5603 7.26798 13.6458 7.04465Z" fill="#212121"/>
<path d="M14.123 6.8638C14.1696 6.81714 14.1508 6.73825 14.0885 6.71714L12.4875 6.17162C12.3242 6.10718 12.1997 5.97496 12.1342 5.81275C11.942 5.34277 11.4931 5.03834 11.3198 4.97168L10.932 5.19278L10.1976 6.91936L10.4465 7.346C10.6187 7.41266 11.1431 7.4971 11.5831 7.28267C11.7442 7.20379 11.9287 7.18601 12.0964 7.24934L13.1964 7.59821C13.2864 7.6271 13.3852 7.60265 13.4519 7.53599L14.123 6.8638Z" fill="#616161"/>
<path d="M11.3322 4.9761L4.54356 2.23242C4.44354 2.49134 3.56343 4.60494 3.54565 4.82164L10.4221 7.33751C10.6843 7.43863 11.0999 6.9908 11.3511 6.33849C11.6022 5.6873 11.5944 5.07722 11.3322 4.9761Z" fill="#CFD8DC"/>
<path d="M3.90015 4.95255L10.4221 7.33798C10.5521 7.38798 10.7232 7.29798 10.891 7.1191L9.25081 6.45247C9.25081 6.45247 9.80755 5.84361 9.37194 5.08588L8.43293 6.13027L4.12684 4.39258C4.09906 4.46369 4.01127 4.67701 3.90015 4.95255Z" fill="#BDBDBD"/>
<path d="M3.18383 3.19547C3.52081 2.32114 3.49276 1.49622 3.12117 1.35295C2.74959 1.20968 2.17518 1.80232 1.83819 2.67665C1.50121 3.55098 1.52926 4.37591 1.90085 4.51918C2.27243 4.66244 2.84684 4.0698 3.18383 3.19547Z" fill="#CFD8DC"/>
<path d="M5.64823 2.40412C5.29269 2.26746 4.74272 2.8341 4.41941 3.67183C4.0972 4.50957 4.12387 5.29841 4.4794 5.43618C4.83494 5.57284 5.38491 5.00621 5.70823 4.16847C6.03043 3.33074 6.00377 2.54078 5.64823 2.40412Z" fill="#616161"/>
<path d="M5.64735 2.40457L3.12081 1.35352L1.90088 4.51891L4.47852 5.43553L5.64735 2.40457Z" fill="#616161"/>
<path d="M2.91358 3.09447C3.18965 2.37817 3.19299 1.7125 2.92102 1.60764C2.64906 1.50278 2.20479 1.99845 1.92871 2.71475C1.65264 3.43104 1.6493 4.09672 1.92127 4.20158C2.19323 4.30644 2.6375 3.81077 2.91358 3.09447Z" fill="#212121"/>
<path d="M2.27125 2.8463C2.46902 2.33299 2.81678 1.96412 3.17454 1.91412C3.22676 1.90635 3.14787 2.65186 2.90344 3.2485C2.69234 3.76514 2.3168 4.14845 2.28569 4.10401C2.08237 3.81958 2.08237 3.33627 2.27125 2.8463Z" fill="url(#paint0_linear_2523_6078)"/>
<path d="M2.83217 4.31031L4.60096 4.9736C4.91872 5.09249 5.1576 5.11249 5.32648 4.89583C5.52314 4.64362 5.57091 4.51918 5.63535 4.35253C5.73535 4.09476 5.4698 3.9081 5.36759 3.86811L3.45213 3.07704C3.33881 3.03037 3.20881 3.07481 3.14882 3.18148L2.70662 3.96255C2.63329 4.09365 2.69217 4.25809 2.83217 4.31031Z" fill="#212121"/>
<path d="M3.12057 1.35339C2.74837 1.21006 2.17506 1.80336 1.8373 2.67665C1.50065 3.55105 1.52843 4.37545 1.90063 4.51878C2.27172 4.6621 2.84614 4.06991 3.18279 3.19551C3.51944 2.32111 3.49166 1.49671 3.12057 1.35339ZM1.9673 4.08324C1.74175 3.99658 1.76286 3.39661 2.01396 2.74443C2.26506 2.09224 2.6517 1.63337 2.87836 1.72115C3.10501 1.80892 3.08279 2.40778 2.83169 3.05996C2.57949 3.71215 2.19284 4.17102 1.9673 4.08324Z" fill="#9E9E9E"/>
<path d="M7.11475 7.0178C7.11475 7.43444 7.33696 7.77109 7.61028 7.77109C7.88359 7.77109 8.10581 7.43333 8.10581 7.0178C8.10581 6.75337 8.01581 6.52116 7.88137 6.38672L7.33473 6.39227C7.20141 6.52671 7.11475 6.7567 7.11475 7.0178Z" fill="#82AEC0"/>
<path d="M8.12245 7.46875C7.98912 7.46875 7.72803 7.70545 7.72803 7.90881L7.79913 10.9992L7.8958 11.4515L7.92246 14.2796C7.92246 14.4674 8.0769 14.6252 8.08356 14.6319L8.12023 14.6697L8.15912 14.6341C8.16578 14.6274 8.33577 14.4707 8.33577 14.2807V11.4215L8.44355 10.9603L8.51465 7.8099C8.51465 7.60877 8.26022 7.46875 8.12245 7.46875Z" fill="#82AEC0"/>
<path d="M8.01253 6.97164C7.89698 7.03831 7.78921 7.37391 7.89031 7.5506L9.60689 10.381L9.91687 10.7243L11.3535 13.1602C11.4479 13.3235 11.659 13.3824 11.669 13.3847L11.7201 13.398L11.7357 13.348C11.739 13.3391 11.8068 13.118 11.7112 12.9535L10.2824 10.4776L10.1457 10.0242L8.52139 7.07054C8.4214 6.89718 8.13141 6.90274 8.01253 6.97164Z" fill="#82AEC0"/>
<path d="M8.20977 6.97171C8.32532 7.03838 8.43309 7.37398 8.33199 7.55067L6.6143 10.381L6.30432 10.7244L4.86773 13.1591C4.77329 13.3225 4.56219 13.3814 4.55219 13.3836L4.50108 13.397L4.48552 13.347C4.48219 13.3381 4.41442 13.1169 4.50997 12.9525L5.93878 10.4777L6.07544 10.0243L7.6998 7.0695C7.79979 6.89725 8.08978 6.90281 8.20977 6.97171Z" fill="#82AEC0"/>
<path d="M7.51147 7.77137C7.51147 7.77137 8.5992 7.91025 8.78807 7.83914C9.02917 7.74693 9.21805 7.42028 9.20139 7.05141C9.18472 6.68254 8.85918 6.387 8.83696 6.41366C9.04917 6.32144 9.25249 6.13812 9.39693 5.6337C9.45359 5.43482 9.46804 5.25817 9.41804 5.1304C9.34693 4.94596 9.20139 4.85819 9.07361 4.89819C8.94362 4.93818 8.88696 5.11817 8.85029 5.2315C8.77585 5.46149 8.68919 5.69259 8.54586 5.88702C8.40254 6.08146 8.07033 6.287 7.66147 6.32478L7.51147 7.77137Z" fill="#82AEC0"/>
<path d="M7.38135 7.67773L7.74244 7.74884V8.52547L7.55912 8.82545C7.55912 8.82545 7.58578 8.39992 7.56134 8.18326C7.52245 7.85106 7.38135 7.67773 7.38135 7.67773Z" fill="#2F7889"/>
<path d="M8.57705 8.68228C8.57705 8.68228 8.65149 8.42785 8.95037 8.42785C9.24924 8.42785 9.40701 8.68228 9.40701 8.68228L8.90704 7.77344C8.90704 7.77344 8.75149 7.92343 8.5115 7.93787L8.49817 8.55229L8.57705 8.68228Z" fill="#2F7889"/>
<path d="M8.43118 7.81807C8.78217 7.81807 9.0667 7.50617 9.0667 7.12144C9.0667 6.7367 8.78217 6.4248 8.43118 6.4248C8.08019 6.4248 7.79565 6.7367 7.79565 7.12144C7.79565 7.50617 8.08019 7.81807 8.43118 7.81807Z" fill="#B9E4EA"/>
<path d="M8.48118 7.43149C8.63704 7.43149 8.76339 7.29271 8.76339 7.12151C8.76339 6.95031 8.63704 6.81152 8.48118 6.81152C8.32532 6.81152 8.19897 6.95031 8.19897 7.12151C8.19897 7.29271 8.32532 7.43149 8.48118 7.43149Z" fill="#2F7889"/>
<path d="M7.14223 6.14383L7.66221 6.32382C7.66221 6.32382 8.29106 6.23716 8.5466 5.88606C8.80215 5.53386 8.89436 5.045 8.93658 4.98833C8.9788 4.93167 9.0788 4.87501 9.16324 4.89612C9.24879 4.91723 9.24879 4.91723 9.24879 4.91723C9.24879 4.91723 9.0788 4.91056 9.03658 5.08722C8.99436 5.26499 8.82437 5.7894 8.61104 6.00939C8.39883 6.22938 8.0433 6.34937 7.92997 6.40604C7.81664 6.4627 7.68887 6.91712 7.52555 6.9949C7.36222 7.07267 7.13557 6.97379 7.14223 6.79602C7.1489 6.61825 7.29111 6.43381 7.29111 6.43381L7.14223 6.14383Z" fill="#2F7889"/>
<path fill-rule="evenodd" clip-rule="evenodd" d="M6.38456 3.53267C6.4176 3.44676 6.51402 3.4039 6.59993 3.43693L8.61094 4.21022C8.69685 4.24326 8.73971 4.33968 8.70667 4.42559C8.67364 4.5115 8.57722 4.55437 8.49131 4.52133L6.4803 3.74804C6.39439 3.715 6.35153 3.61858 6.38456 3.53267Z" fill="white"/>
<defs>
<linearGradient id="paint0_linear_2523_6078" x1="3.36732" y1="3.64173" x2="2.46582" y2="2.74555" gradientUnits="userSpaceOnUse">
<stop stop-color="#1565C0"/>
<stop offset="0.1307" stop-color="#2574C5"/>
<stop offset="0.7229" stop-color="#69B5D8"/>
<stop offset="1" stop-color="#84CFE0"/>
</linearGradient>
</defs>
</svg>
