<svg width="14" height="14" viewBox="0 0 14 14" fill="none" xmlns="http://www.w3.org/2000/svg">
<path d="M7.71387 0.857422C7.77026 0.857096 7.8267 0.867353 7.87891 0.888672C7.93112 0.909997 7.97851 0.94173 8.01855 0.981445L8.74707 1.71387H11.1426C11.2562 1.71387 11.3659 1.75947 11.4463 1.83984C11.5265 1.92013 11.5712 2.02912 11.5713 2.14258V3.85742C11.5712 3.97089 11.5265 4.07986 11.4463 4.16016C11.3659 4.24053 11.2562 4.28613 11.1426 4.28613H10.7139V12C10.7139 12.1136 10.6691 12.2224 10.5889 12.3027C10.5086 12.383 10.3996 12.4286 10.2861 12.4287H3.42871C3.31507 12.4287 3.20634 12.3831 3.12598 12.3027C3.0456 12.2224 3 12.1137 3 12V4.28613H2.57129C2.4577 4.2861 2.34889 4.24046 2.26855 4.16016C2.18824 4.07984 2.14265 3.97099 2.14258 3.85742V2.14258C2.14266 2.02902 2.18825 1.92015 2.26855 1.83984C2.34889 1.75956 2.45771 1.7139 2.57129 1.71387H4.9668L5.69531 0.981445C5.73536 0.941725 5.78372 0.91 5.83594 0.888672C5.88801 0.867482 5.94378 0.857097 6 0.857422H7.71387ZM3.85742 11.5713H9.85742V4.28613H3.85742V11.5713ZM5.57129 5.14258C5.68488 5.14258 5.79366 5.18827 5.87402 5.26855C5.95436 5.34889 5.99996 5.45768 6 5.57129V10.2861C5.99989 10.3997 5.9543 10.5086 5.87402 10.5889C5.79368 10.6691 5.68483 10.7139 5.57129 10.7139C5.45774 10.7138 5.34888 10.6691 5.26855 10.5889C5.18828 10.5086 5.14268 10.3997 5.14258 10.2861V5.57129C5.14262 5.45768 5.18822 5.34889 5.26855 5.26855C5.34889 5.18822 5.45768 5.14261 5.57129 5.14258ZM8.14258 5.14258C8.25624 5.14258 8.36592 5.18818 8.44629 5.26855C8.52646 5.34886 8.57125 5.45781 8.57129 5.57129V10.2861C8.57118 10.3996 8.52647 10.5086 8.44629 10.5889C8.36592 10.6692 8.25624 10.7139 8.14258 10.7139C8.02904 10.7138 7.92014 10.6691 7.83984 10.5889C7.75957 10.5086 7.71397 10.3997 7.71387 10.2861V5.57129C7.71391 5.45771 7.75955 5.34888 7.83984 5.26855C7.92015 5.18825 8.02901 5.14265 8.14258 5.14258ZM5.44727 2.44727C5.40723 2.48697 5.35981 2.51871 5.30762 2.54004C5.2554 2.56137 5.19898 2.57162 5.14258 2.57129H3V3.42871H10.7139V2.57129H8.57129C8.51509 2.5716 8.45928 2.56124 8.40723 2.54004C8.35513 2.51876 8.30757 2.48686 8.26758 2.44727L7.53809 1.71387H6.17578L5.44727 2.44727Z" fill="#AA4335"/>
</svg>
