<svg xmlns="http://www.w3.org/2000/svg" width="16" height="16" viewBox="0 0 16 16" fill="none">
<path d="M7.62698 5.45606L5.2171 2.43177C5.18377 2.38955 5.18933 2.32845 5.22932 2.29289C5.27154 2.25623 5.33487 2.25956 5.37154 2.30178L7.93474 5.18941C7.9714 5.23163 7.96807 5.29496 7.92585 5.33162L7.77252 5.46717C7.72919 5.50606 7.66253 5.5005 7.62698 5.45606Z" fill="#455A64"/>
<path d="M8.24644 5.43919L8.10867 5.31698C8.06311 5.27587 8.05867 5.20587 8.09978 5.16032L10.6485 2.28713C10.6896 2.24158 10.7596 2.23714 10.8052 2.27825C10.8496 2.31713 10.8552 2.38491 10.8185 2.43157L8.40754 5.42697C8.36643 5.47475 8.2931 5.48141 8.24644 5.43919Z" fill="#455A64"/>
<path d="M6.19409 5.60759C6.19409 5.21984 7.05405 4.9043 8.1151 4.9043C9.17616 4.9043 10.0361 5.21872 10.0361 5.60759H6.19409Z" fill="#455A64"/>
<path d="M14.1757 14.6685H1.82529C1.55304 14.6685 1.33301 14.4395 1.33301 14.1584V5.90069C1.33301 5.61843 1.55304 5.39062 1.82529 5.39062H14.1768C14.448 5.39062 14.6691 5.61954 14.6691 5.90069V14.1584C14.668 14.4395 14.448 14.6685 14.1757 14.6685Z" fill="#82AEC0"/>
<path d="M13.8179 14.1841H2.21871C2.00091 14.1841 1.82422 14.0074 1.82422 13.7896V6.2275C1.82422 6.0097 2.00091 5.83301 2.21871 5.83301H13.8179C14.0357 5.83301 14.2124 6.0097 14.2124 6.2275V13.7896C14.2124 14.0074 14.0357 14.1841 13.8179 14.1841Z" fill="#212121"/>
<path d="M2.59938 12.9971L2.06598 13.8359C1.97264 13.9826 2.07265 14.1815 2.24601 14.1826C2.24823 14.1826 2.25045 14.1826 2.25267 14.1826C2.48937 14.1826 11.1693 14.1826 11.4449 14.1826H11.4527C11.6494 14.1815 11.7772 13.9748 11.6916 13.7981L11.3583 13.1115L2.59938 12.9971Z" fill="#B9E4EA"/>
<path d="M13.6559 13.8317H12.3904C12.2615 13.8317 12.1582 13.7272 12.1582 13.5995V10.9607C12.1582 10.8318 12.2626 10.7285 12.3904 10.7285H13.6559C13.7848 10.7285 13.8881 10.833 13.8881 10.9607V13.5995C13.8881 13.7272 13.7848 13.8317 13.6559 13.8317Z" fill="#455A64"/>
<path d="M13.0233 10.1131C13.4461 10.1131 13.7888 9.77033 13.7888 9.34755C13.7888 8.92476 13.4461 8.58203 13.0233 8.58203C12.6005 8.58203 12.2578 8.92476 12.2578 9.34755C12.2578 9.77033 12.6005 10.1131 13.0233 10.1131Z" fill="#455A64"/>
<path d="M12.4825 8.89944C12.4447 8.94499 12.4436 9.00943 12.478 9.0561L12.7302 9.39497C12.8091 9.50052 12.9113 9.58607 13.0302 9.64384L13.4102 9.82828C13.4624 9.85383 13.5257 9.8405 13.5635 9.79495C13.6013 9.74939 13.6024 9.68495 13.568 9.63829L13.3158 9.29942C13.2369 9.19387 13.1347 9.10832 13.0158 9.05054L12.6358 8.86611C12.5836 8.84055 12.5202 8.855 12.4825 8.89944Z" fill="#82AEC0"/>
<path d="M13.0233 8.13455C13.4461 8.13455 13.7888 7.79181 13.7888 7.36903C13.7888 6.94625 13.4461 6.60352 13.0233 6.60352C12.6005 6.60352 12.2578 6.94625 12.2578 7.36903C12.2578 7.79181 12.6005 8.13455 13.0233 8.13455Z" fill="#455A64"/>
<path d="M13.0238 6.66602C12.9649 6.66602 12.9138 6.70601 12.9004 6.76268L12.8004 7.17377C12.7693 7.30154 12.7693 7.43486 12.8004 7.56375L12.9004 7.97484C12.9149 8.0315 12.9649 8.0715 13.0238 8.0715C13.0826 8.0715 13.1337 8.0315 13.1471 7.97484L13.2471 7.56375C13.2782 7.43598 13.2782 7.30265 13.2471 7.17377L13.1471 6.76268C13.1326 6.70601 13.0815 6.66602 13.0238 6.66602Z" fill="#82AEC0"/>
<path d="M11.4957 12.6098C11.4101 12.9954 11.1246 13.2932 10.7578 13.3743C10.1555 13.5088 9.03318 13.6766 7.18406 13.6766C5.24271 13.6766 3.94032 13.4921 3.23913 13.3554C2.8513 13.2799 2.54682 12.9621 2.47125 12.552C2.29679 11.6097 2.07787 9.72609 2.48014 7.37358C2.5546 6.93797 2.88686 6.60348 3.30136 6.54681C4.04923 6.44346 5.38495 6.30566 7.18406 6.30566C8.89094 6.30566 10.0344 6.43012 10.6823 6.53014C11.0812 6.59237 11.4001 6.91574 11.4813 7.33468C11.9624 9.81277 11.6968 11.7008 11.4957 12.6098Z" fill="#2F7889"/>
<path fill-rule="evenodd" clip-rule="evenodd" d="M7.1839 6.52751C5.39607 6.52751 4.07056 6.66444 3.33162 6.76656L3.3313 6.7666C3.02014 6.80915 2.75842 7.06327 2.69905 7.41061L2.69905 7.41063C2.30228 9.731 2.51859 11.5873 2.68963 12.5111L2.68966 12.5113C2.7498 12.8377 2.98928 13.08 3.28147 13.1369L3.28149 13.1369C3.96862 13.2708 5.25676 13.4539 7.1839 13.4539C9.01987 13.4539 10.1256 13.2873 10.7093 13.157L10.7097 13.1569C10.9856 13.0959 11.2103 12.8691 11.2786 12.5612C11.4747 11.675 11.7371 9.81851 11.2629 7.37664L11.2629 7.37653C11.198 7.0414 10.9463 6.79593 10.648 6.74934C10.0117 6.65114 8.87969 6.52751 7.1839 6.52751ZM3.27092 6.32622C4.02774 6.22164 5.37362 6.08301 7.1839 6.08301C8.90167 6.08301 10.0565 6.20827 10.716 6.31008L10.7164 6.31014V6.31014C11.2159 6.38805 11.602 6.78932 11.6993 7.29203C12.1875 9.80615 11.9187 11.7255 11.7126 12.6574L11.7125 12.6575C11.6097 13.1209 11.2632 13.4897 10.8057 13.5909C10.1846 13.7295 9.04575 13.8984 7.1839 13.8984C5.22833 13.8984 3.91171 13.7126 3.19644 13.5732C2.713 13.479 2.34353 13.0856 2.25253 12.5919M3.27092 6.32622C2.75317 6.39709 2.35044 6.8119 2.26091 7.33573C1.85317 9.72023 2.07463 11.6309 2.25252 12.5919" fill="#212121"/>
<path d="M4.34267 7.08849C4.52933 7.06627 4.88264 7.08182 5.00708 7.46069C5.13152 7.83956 4.8582 7.94178 4.71154 8.05399C4.29045 8.37509 4.08157 8.4973 3.82825 8.84729C3.62604 9.12727 3.27273 9.0395 3.16718 8.85506C3.08274 8.70618 3.02052 8.22843 3.1994 7.91289C3.58493 7.23737 4.15602 7.11071 4.34267 7.08849Z" fill="url(#paint0_linear_2527_14319)"/>
<defs>
<linearGradient id="paint0_linear_2527_14319" x1="4.15103" y1="4.79591" x2="4.03495" y2="9.00789" gradientUnits="userSpaceOnUse">
<stop stop-color="white"/>
<stop offset="1" stop-color="white" stop-opacity="0"/>
</linearGradient>
</defs>
</svg>