<svg xmlns="http://www.w3.org/2000/svg" width="16" height="16" viewBox="0 0 16 16" fill="none">
<path d="M7.0508 9.22324C10.1097 9.22324 12.5894 8.31194 12.5894 7.18779C12.5894 6.06364 10.1097 5.15234 7.0508 5.15234C3.99192 5.15234 1.51221 6.06364 1.51221 7.18779C1.51221 8.31194 3.99192 9.22324 7.0508 9.22324Z" fill="url(#paint0_linear_2527_5963)"/>
<path d="M12.5127 14.6691V14.338C12.5127 12.4726 9.73622 11.5504 7.03414 11.5537C4.34873 11.5571 1.55554 12.3626 1.55554 14.3369V14.668H12.5127V14.6691Z" fill="url(#paint1_linear_2527_5963)"/>
<path d="M13.366 12.2593C13.3004 12.2249 13.2204 12.2471 13.1827 12.3104C12.9738 12.6604 12.5649 12.9193 12.1694 13.1704C11.9872 13.2859 11.8005 13.4048 11.6383 13.5293C11.5883 13.5682 11.5705 13.6359 11.5961 13.6937L12.0216 14.6636H12.1727H12.4494H13.996H14.1404H14.2793C14.3359 14.0948 14.3504 12.7826 13.366 12.2593Z" fill="url(#paint2_linear_2527_5963)"/>
<path d="M4.59994 13.6162L4.65549 13.9118L4.92992 14.034L4.66549 14.1773L4.63438 14.4762L4.41661 14.2706L4.12218 14.3328L4.25107 14.0617L4.10107 13.8018L4.39884 13.8406L4.59994 13.6162Z" fill="#F9F722"/>
<path d="M2.79108 13.0625L3.02996 13.3069L3.36661 13.2503L3.20773 13.5525L3.36661 13.8547L3.02996 13.7969L2.79108 14.0424L2.7422 13.7036L2.43555 13.5525L2.7422 13.4014L2.79108 13.0625Z" fill="#F9F722"/>
<path d="M9.69407 12.7988L9.70962 13.1688L10.0229 13.3655L9.67629 13.4943L9.58519 13.8532L9.3552 13.5632L8.98633 13.5888L9.19076 13.2799L9.05299 12.9366L9.40964 13.0355L9.69407 12.7988Z" fill="#F9F722"/>
<path d="M10.1452 6.36426H9.34191H4.99103H4.18774C3.54555 6.36426 3.02002 6.92423 3.02002 7.60864C3.02002 8.29304 3.54555 8.85301 4.18774 8.85301H4.99103H9.34191H10.1452C10.7874 8.85301 11.3129 8.29304 11.3129 7.60864C11.3129 6.92423 10.7885 6.36426 10.1452 6.36426Z" fill="#C48E6A"/>
<path d="M7.1208 3.04199C5.22313 3.04199 3.46655 4.07527 3.46655 6.99511C3.46655 9.8994 5.27646 11.3349 7.1208 11.3349C8.96515 11.3349 10.7751 9.8994 10.7751 6.99511C10.7751 4.07527 9.01848 3.04199 7.1208 3.04199Z" fill="#E0BB95"/>
<path d="M4.13114 4.54395C3.72894 4.54395 3.40229 4.87059 3.40229 5.2728C3.4034 5.60278 3.41118 6.06386 3.44007 6.74272C3.46229 7.27936 3.22897 8.5404 3.0412 9.10592C2.75788 9.96254 2.80232 11.0114 3.20119 11.8202C3.55895 12.5446 5.28552 13.6968 6.30547 14.2634C6.69434 14.4801 7.60096 14.4823 7.99205 14.2701C8.99533 13.7257 10.6697 12.6335 11.0541 11.9447C11.5252 11.1014 11.5941 9.98254 11.2908 9.06593C11.1041 8.50151 10.8786 7.26713 10.8963 6.74383C10.9208 6.05609 10.9219 5.59278 10.9174 5.2628C10.9119 4.86393 10.5875 4.54506 10.1886 4.54506H4.13114V4.54395ZM10.1842 7.09825C10.1842 8.43818 9.80529 9.12481 8.91422 9.12481C7.98205 9.12481 7.82317 8.85149 7.13098 8.85149C6.43769 8.85149 6.27214 9.12481 5.36996 9.12481C4.55667 9.12481 4.13336 8.18153 4.13336 7.0627C4.13336 5.94387 4.02004 4.87615 4.3278 4.9317C4.80222 5.01836 6.2888 5.12391 7.1232 5.12391C7.92427 5.12391 9.38975 5.02614 9.87306 4.9417C10.203 4.88504 10.1842 5.75721 10.1842 7.09825Z" fill="url(#paint3_linear_2527_5963)"/>
<path d="M11.2918 9.06286C11.1051 8.49845 10.8796 7.26518 10.8973 6.74076C10.9218 6.05302 10.9229 5.58971 10.9184 5.25973C10.9129 4.86086 10.5885 4.54199 10.1907 4.54199H10.184V7.0963C10.184 8.43623 9.80516 9.12175 8.9141 9.12175C7.98082 9.12175 7.82193 8.84843 7.12975 8.84843C6.43645 8.84843 6.27202 9.12175 5.36984 9.12175C4.55544 9.12175 4.13213 8.17958 4.13213 7.06075C4.13213 6.27523 4.07658 5.51527 4.14991 5.15085V4.54199H4.13102C3.72882 4.54199 3.40217 4.86753 3.40328 5.27084C3.40328 5.59971 3.41106 6.06191 3.43994 6.74076C3.46328 7.2774 3.22884 8.53845 3.04108 9.10397C2.75776 9.96059 2.8022 11.0094 3.20107 11.8183C3.55883 12.5427 5.2854 13.6948 6.30535 14.2615C6.69422 14.4781 7.60083 14.4804 7.99193 14.2681C8.99521 13.7237 10.6696 12.6316 11.0551 11.9427C11.5262 11.0994 11.5951 9.98059 11.2918 9.06286Z" fill="url(#paint4_radial_2527_5963)"/>
<path d="M8.01522 9.35046C7.66857 9.55712 6.52974 9.55712 6.18198 9.35046C5.9831 9.23158 5.77867 9.41379 5.862 9.5949C5.94311 9.77266 6.56418 10.186 7.10193 10.186C7.63968 10.186 8.25187 9.77266 8.33298 9.5949C8.41631 9.41379 8.21521 9.23269 8.01522 9.35046Z" fill="#6D4C41"/>
<path d="M9.75078 6.48588C9.75078 6.48477 9.50079 6.07812 8.91971 6.07812C8.33863 6.07812 8.08753 6.48477 8.08753 6.48477V6.48588C8.06753 6.51477 8.0542 6.55032 8.0542 6.58921C8.0542 6.68698 8.13086 6.76698 8.22641 6.76698C8.24641 6.76698 8.29419 6.75253 8.29863 6.75031C8.64639 6.60254 8.91971 6.60143 8.91971 6.60143C8.91971 6.60143 9.18969 6.60254 9.53857 6.75031C9.54301 6.75253 9.59079 6.76698 9.61078 6.76698C9.70633 6.76698 9.783 6.68698 9.783 6.58921C9.783 6.55032 9.77078 6.51477 9.75078 6.48588Z" fill="white"/>
<path d="M6.20877 6.48588C6.20988 6.48477 5.95879 6.07812 5.3777 6.07812C4.79662 6.07812 4.54553 6.48477 4.54553 6.48477L4.54664 6.48588C4.52664 6.51477 4.51331 6.55032 4.51331 6.58921C4.51331 6.68698 4.58997 6.76698 4.68552 6.76698C4.70552 6.76698 4.75329 6.75253 4.75774 6.75031C5.1055 6.60254 5.37882 6.60143 5.37882 6.60143C5.37882 6.60143 5.64991 6.60254 5.99767 6.75031C6.00212 6.75253 6.04989 6.76698 6.06989 6.76698C6.16544 6.76698 6.2421 6.68698 6.2421 6.58921C6.2421 6.55032 6.22877 6.51477 6.20877 6.48588Z" fill="white"/>
<path d="M9.12731 2.82417C9.18731 2.70862 10.375 2.97083 10.4995 2.77529C10.6295 2.56974 9.98282 1.70423 8.58845 1.43203C8.11959 1.33981 7.48184 1.21537 6.68966 1.47758C6.22302 1.63201 4.14868 2.37753 3.68982 5.11627C3.68871 5.12294 10.8361 5.14294 10.8361 5.14294C10.5495 4.19077 9.06731 2.93972 9.12731 2.82417Z" fill="url(#paint5_linear_2527_5963)"/>
<path d="M12.6461 6.98868C11.9017 3.82774 7.47637 2.51003 4.51764 3.83219C3.57658 4.2255 2.61219 4.90435 1.99 5.8843C1.78556 6.17206 1.00783 7.77531 2.16221 7.33755C8.54965 3.60109 12.6861 8.7597 12.6461 6.98868Z" fill="url(#paint6_linear_2527_5963)"/>
<path d="M7.5186 8.48447C7.50749 8.48003 7.49526 8.4767 7.48304 8.47559H6.71197C6.69975 8.4767 6.68864 8.48003 6.67642 8.48447C6.60642 8.51225 6.56865 8.58558 6.60087 8.66224C6.63309 8.73891 6.78752 8.95556 7.0964 8.95556C7.40527 8.95556 7.55971 8.73891 7.59193 8.66224C7.62637 8.58558 7.58859 8.51336 7.5186 8.48447Z" fill="#C48E6A"/>
<path d="M5.29872 8.02831C5.5951 8.02831 5.83536 7.7791 5.83536 7.47168C5.83536 7.16425 5.5951 6.91504 5.29872 6.91504C5.00235 6.91504 4.76208 7.16425 4.76208 7.47168C4.76208 7.7791 5.00235 8.02831 5.29872 8.02831Z" fill="#5D4037"/>
<path d="M8.92409 8.02831C9.22047 8.02831 9.46073 7.7791 9.46073 7.47168C9.46073 7.16425 9.22047 6.91504 8.92409 6.91504C8.62771 6.91504 8.38745 7.16425 8.38745 7.47168C8.38745 7.7791 8.62771 8.02831 8.92409 8.02831Z" fill="#5D4037"/>
<path d="M13.3516 9.94192L13.0161 10.2452L13.285 10.9152L14.1327 10.903L14.5927 9.60527L13.1205 8.35645L11.4995 9.62416L12.3172 11.3318C12.2561 11.5741 11.9106 12.9373 11.8184 13.3028C11.7373 13.6239 11.6284 14.1406 11.5251 14.655H11.6328H11.7406H12.165H12.2761H12.3872L13.3705 11.4541L12.4972 9.87748L13.1005 9.47305L13.7016 9.73859L13.6861 10.0097L13.3516 9.94192Z" fill="#CF8900"/>
<path d="M13.7296 13.2372C13.714 13.0805 13.6596 12.9305 13.6074 12.805C13.4452 12.4083 13.2585 12.1006 12.8363 11.7895C12.4075 11.4728 11.9353 11.4095 11.7219 11.4439C11.4831 11.4828 11.3308 11.5762 11.2686 11.7217C11.2208 11.8328 11.2408 11.9472 11.2697 12.0317C11.1475 12.0728 10.982 12.1561 10.9286 12.3061C10.8664 12.4817 10.9175 12.625 10.9909 12.7216C10.8864 12.7883 10.7542 12.8939 10.7164 13.0261C10.6664 13.2016 10.8298 13.3983 10.9386 13.5049C10.8853 13.576 10.8209 13.6727 10.8064 13.7427C10.7309 14.1127 11.2131 14.3216 11.5097 14.386C11.5553 14.396 11.6019 14.3749 11.6264 14.3349L11.7297 14.1549C12.1108 14.2727 12.6685 14.4304 12.9008 14.4304C12.9319 14.4304 12.9574 14.4271 12.9763 14.4216C13.1896 14.3471 13.3285 14.1738 13.4507 14.0205C13.4696 13.9971 13.4885 13.9727 13.5074 13.9494C13.6741 13.7483 13.754 13.4883 13.7296 13.2372Z" fill="url(#paint7_linear_2527_5963)"/>
<defs>
<linearGradient id="paint0_linear_2527_5963" x1="7.05125" y1="5.24154" x2="7.05125" y2="9.09679" gradientUnits="userSpaceOnUse">
<stop offset="5.45058e-05" stop-color="#05080F"/>
<stop offset="0.1125" stop-color="#070A15"/>
<stop offset="0.2637" stop-color="#0B1026"/>
<stop offset="0.4371" stop-color="#131A42"/>
<stop offset="0.6268" stop-color="#1D286A"/>
<stop offset="0.8276" stop-color="#2B399B"/>
<stop offset="1" stop-color="#384ACC"/>
</linearGradient>
<linearGradient id="paint1_linear_2527_5963" x1="7.0337" y1="11.5534" x2="7.0337" y2="16.1995" gradientUnits="userSpaceOnUse">
<stop stop-color="#384ACC"/>
<stop offset="0.216" stop-color="#3548BF"/>
<stop offset="0.6146" stop-color="#2F449D"/>
<stop offset="0.9606" stop-color="#283F7A"/>
</linearGradient>
<linearGradient id="paint2_linear_2527_5963" x1="11.5837" y1="13.454" x2="14.2997" y2="13.454" gradientUnits="userSpaceOnUse">
<stop stop-color="#384ACC"/>
<stop offset="0.216" stop-color="#3548BF"/>
<stop offset="0.6146" stop-color="#2F449D"/>
<stop offset="0.9606" stop-color="#283F7A"/>
</linearGradient>
<linearGradient id="paint3_linear_2527_5963" x1="7.16707" y1="6.99769" x2="7.16707" y2="15.5653" gradientUnits="userSpaceOnUse">
<stop offset="0.4878" stop-color="#F5F5F5"/>
<stop offset="0.8314" stop-color="#BDBDBD"/>
</linearGradient>
<radialGradient id="paint4_radial_2527_5963" cx="0" cy="0" r="1" gradientUnits="userSpaceOnUse" gradientTransform="translate(7.16688 9.48382) scale(4.4637 5.42027)">
<stop offset="0.6895" stop-color="white" stop-opacity="0"/>
<stop offset="1" stop-color="#BDBDBD"/>
</radialGradient>
<linearGradient id="paint5_linear_2527_5963" x1="7.34839" y1="1.3312" x2="7.30164" y2="3.3886" gradientUnits="userSpaceOnUse">
<stop offset="0.3696" stop-color="#3649BF"/>
<stop offset="1" stop-color="#2C4585"/>
</linearGradient>
<linearGradient id="paint6_linear_2527_5963" x1="7.09534" y1="3.32149" x2="7.09534" y2="7.41186" gradientUnits="userSpaceOnUse">
<stop offset="0.2075" stop-color="#384ACC"/>
<stop offset="1" stop-color="#1D3678"/>
</linearGradient>
<linearGradient id="paint7_linear_2527_5963" x1="10.7999" y1="12.2285" x2="13.4199" y2="13.9803" gradientUnits="userSpaceOnUse">
<stop offset="0.5" stop-color="#E0BB95"/>
<stop offset="1" stop-color="#CCA47A"/>
</linearGradient>
</defs>
</svg>